SplineFontDB: 3.0
FontName: nootka
FullName: nootka
FamilyName: nootka
Weight: Regular
Copyright: 
Version: 2.0
ItalicAngle: 0
UnderlinePosition: -100
UnderlineWidth: 50
Ascent: 800
Descent: 200
InvalidEm: 0
sfntRevision: 0x00010000
LayerCount: 2
Layer: 0 1 "Warstwa t+AUIA-a" 1
Layer: 1 1 "Plan pierwszy" 0
XUID: [1021 905 4475020 9871967]
FSType: 0
OS2Version: 0
OS2_WeightWidthSlopeOnly: 0
OS2_UseTypoMetrics: 1
CreationTime: 1411211154
ModificationTime: 1494490613
PfmFamily: 17
TTFWeight: 500
TTFWidth: 5
LineGap: 90
VLineGap: 0
Panose: 2 0 6 9 0 0 0 0 0 0
OS2TypoAscent: 0
OS2TypoAOffset: 1
OS2TypoDescent: 0
OS2TypoDOffset: 1
OS2TypoLinegap: 90
OS2WinAscent: 1
OS2WinAOffset: 1
OS2WinDescent: 0
OS2WinDOffset: 1
HheadAscent: 1
HheadAOffset: 1
HheadDescent: 0
HheadDOffset: 1
OS2SubXSize: 650
OS2SubYSize: 700
OS2SubXOff: 0
OS2SubYOff: 140
OS2SupXSize: 650
OS2SupYSize: 700
OS2SupXOff: 0
OS2SupYOff: 480
OS2StrikeYSize: 49
OS2StrikeYPos: 258
OS2Vendor: 'PfEd'
OS2CodePages: 00000001.00000000
OS2UnicodeRanges: 00000001.10000000.00000000.00000000
MarkAttachClasses: 1
DEI: 91125
ShortTable: cvt  2
  33
  633
EndShort
ShortTable: maxp 16
  1
  0
  24
  164
  7
  0
  0
  2
  0
  1
  1
  0
  64
  46
  0
  0
EndShort

StartChar: .notdef
Encoding: 65536 -1 0
Width: 1000
Flags: W
LayerCount: 2
Fore
SplineSet
33 0 m 1,0,-1
 33 666 l 1,1,-1
 298 666 l 1,2,-1
 298 0 l 1,3,-1
 33 0 l 1,0,-1
66 33 m 1,4,-1
 265 33 l 1,5,-1
 265 633 l 1,6,-1
 66 633 l 1,7,-1
 66 33 l 1,4,-1
EndSplineSet
Validated: 1
EndChar

StartChar: space
Encoding: 32 32 3
Width: 1000
Flags: W
LayerCount: 2
Fore
SplineSet
590 118 m 1,0,-1
 380 118 l 1,1,-1
 590 118 l 1,0,-1
EndSplineSet
Validated: 1
EndChar

StartChar: numbersign
Encoding: 35 35 4
Width: 730
Flags: W
HStem: 556 20G<286.25 298.75 483.5 495.5>
VStem: 262 62<-141.233 29 197 344 511 681.718> 406 62<-81.7178 89 256 403 571 741.233>
LayerCount: 2
Fore
SplineSet
468 256 m 1,0,1
 480 260 480 260 487 260 c 0,2,3
 504 260 504 260 517 247.5 c 128,-1,4
 530 235 530 235 530 217 c 2,5,-1
 530 168 l 2,6,7
 530 155 530 155 522.5 144 c 128,-1,8
 515 133 515 133 504 128 c 2,9,-1
 468 113 l 1,10,-1
 468 -60 l 2,11,12
 468 -73 468 -73 459 -82 c 128,-1,13
 450 -91 450 -91 437.5 -91 c 128,-1,14
 425 -91 425 -91 415.5 -82 c 128,-1,15
 406 -73 406 -73 406 -60 c 2,16,-1
 406 89 l 1,17,-1
 324 54 l 1,18,-1
 324 -120 l 2,19,20
 324 -132 324 -132 314.5 -141 c 128,-1,21
 305 -150 305 -150 292.5 -150 c 128,-1,22
 280 -150 280 -150 271 -141.5 c 128,-1,23
 262 -133 262 -133 262 -120 c 2,24,-1
 262 29 l 1,25,26
 250 24 250 24 243 24 c 0,27,28
 226 24 226 24 213 36.5 c 128,-1,29
 200 49 200 49 200 67 c 2,30,-1
 200 118 l 2,31,32
 200 130 200 130 207.5 141.5 c 128,-1,33
 215 153 215 153 226 157 c 2,34,-1
 262 172 l 1,35,-1
 262 344 l 1,36,37
 250 340 250 340 243 340 c 0,38,39
 226 340 226 340 213 352.5 c 128,-1,40
 200 365 200 365 200 383 c 2,41,-1
 200 432 l 2,42,43
 200 445 200 445 207.5 456 c 128,-1,44
 215 467 215 467 226 472 c 2,45,-1
 262 487 l 1,46,-1
 262 660 l 2,47,48
 262 673 262 673 271 682 c 128,-1,49
 280 691 280 691 292.5 691 c 128,-1,50
 305 691 305 691 314.5 682 c 128,-1,51
 324 673 324 673 324 660 c 2,52,-1
 324 511 l 1,53,-1
 406 546 l 1,54,-1
 406 720 l 2,55,56
 406 732 406 732 415.5 741 c 128,-1,57
 425 750 425 750 437.5 750 c 128,-1,58
 450 750 450 750 459 741.5 c 128,-1,59
 468 733 468 733 468 720 c 2,60,-1
 468 571 l 1,61,62
 480 576 480 576 487 576 c 0,63,64
 504 576 504 576 517 563.5 c 128,-1,65
 530 551 530 551 530 533 c 2,66,-1
 530 482 l 2,67,68
 530 470 530 470 522.5 458.5 c 128,-1,69
 515 447 515 447 504 443 c 2,70,-1
 468 428 l 1,71,-1
 468 256 l 1,0,1
406 403 m 1,72,-1
 324 370 l 1,73,-1
 324 197 l 1,74,-1
 406 230 l 1,75,-1
 406 403 l 1,72,-1
EndSplineSet
Validated: 1
EndChar

StartChar: one
Encoding: 49 49 5
Width: 920
Flags: W
LayerCount: 2
Fore
SplineSet
463.150390625 621.900390625 m 128,-1,1
 477.099609375 621.900390625 477.099609375 621.900390625 495.549804688 629.549804688 c 128,-1,2
 514 637.200195312 514 637.200195312 515.799804688 637.200195312 c 0,3,4
 522.099609375 637.200195312 522.099609375 637.200195312 527.5 630.900390625 c 128,-1,5
 532.900390625 624.599609375 532.900390625 624.599609375 532.900390625 614.700195312 c 2,6,-1
 532.900390625 239.400390625 l 2,7,8
 532.900390625 195.299804688 532.900390625 195.299804688 557.200195312 163.799804688 c 128,-1,9
 581.5 132.299804688 581.5 132.299804688 619.299804688 132.299804688 c 0,10,11
 634.599609375 132.299804688 634.599609375 132.299804688 634.599609375 116.099609375 c 0,12,13
 634.599609375 100.799804688 634.599609375 100.799804688 619.299804688 100.799804688 c 0,14,15
 593.200195312 100.799804688 593.200195312 100.799804688 541.450195312 108.450195312 c 128,-1,16
 489.700195312 116.099609375 489.700195312 116.099609375 463.150390625 116.099609375 c 128,-1,17
 436.599609375 116.099609375 436.599609375 116.099609375 385.299804688 108.450195312 c 128,-1,18
 334 100.799804688 334 100.799804688 307.900390625 100.799804688 c 0,19,20
 299.799804688 100.799804688 299.799804688 100.799804688 295.75 105.299804688 c 128,-1,21
 291.700195312 109.799804688 291.700195312 109.799804688 291.700195312 116.099609375 c 128,-1,22
 291.700195312 122.400390625 291.700195312 122.400390625 295.75 127.349609375 c 128,-1,23
 299.799804688 132.299804688 299.799804688 132.299804688 307.900390625 132.299804688 c 0,24,25
 345.700195312 132.299804688 345.700195312 132.299804688 369.549804688 163.799804688 c 128,-1,26
 393.400390625 195.299804688 393.400390625 195.299804688 393.400390625 239.400390625 c 2,27,-1
 393.400390625 469.799804688 l 2,28,29
 393.400390625 480.599609375 393.400390625 480.599609375 386.650390625 487.349609375 c 128,-1,30
 379.900390625 494.099609375 379.900390625 494.099609375 371.799804688 494.099609375 c 0,31,32
 362.799804688 494.099609375 362.799804688 494.099609375 360.099609375 486.900390625 c 2,33,-1
 289.900390625 350.099609375 l 1,34,35
 283.599609375 341.099609375 283.599609375 341.099609375 273.700195312 341.099609375 c 0,36,37
 265.599609375 341.099609375 265.599609375 341.099609375 259.299804688 346.049804688 c 128,-1,38
 253 351 253 351 253 359.099609375 c 0,39,40
 253 365.400390625 253 365.400390625 254.799804688 369 c 2,41,-1
 393.400390625 636.299804688 l 2,42,43
 395.200195312 640.799804688 395.200195312 640.799804688 400.599609375 640.799804688 c 256,44,45
 406 640.799804688 406 640.799804688 427.599609375 631.349609375 c 128,-1,0
 449.200195312 621.900390625 449.200195312 621.900390625 463.150390625 621.900390625 c 128,-1,1
460 720 m 128,-1,47
 558.099609375 720 558.099609375 720 640.900390625 671.849609375 c 128,-1,48
 723.700195312 623.700195312 723.700195312 623.700195312 771.849609375 540.900390625 c 128,-1,49
 820 458.099609375 820 458.099609375 820 360 c 128,-1,50
 820 261.900390625 820 261.900390625 771.849609375 179.099609375 c 128,-1,51
 723.700195312 96.2998046875 723.700195312 96.2998046875 640.900390625 48.150390625 c 128,-1,52
 558.099609375 0 558.099609375 0 460 0 c 128,-1,53
 361.900390625 0 361.900390625 0 279.099609375 48.150390625 c 128,-1,54
 196.299804688 96.2998046875 196.299804688 96.2998046875 148.150390625 179.099609375 c 128,-1,55
 100 261.900390625 100 261.900390625 100 360 c 128,-1,56
 100 458.099609375 100 458.099609375 148.150390625 540.900390625 c 128,-1,57
 196.299804688 623.700195312 196.299804688 623.700195312 279.099609375 671.849609375 c 128,-1,46
 361.900390625 720 361.900390625 720 460 720 c 128,-1,47
460 701.099609375 m 128,-1,59
 367.299804688 701.099609375 367.299804688 701.099609375 289 655.650390625 c 128,-1,60
 210.700195312 610.200195312 210.700195312 610.200195312 164.799804688 531.450195312 c 128,-1,61
 118.900390625 452.700195312 118.900390625 452.700195312 118.900390625 360 c 128,-1,62
 118.900390625 267.299804688 118.900390625 267.299804688 164.799804688 188.549804688 c 128,-1,63
 210.700195312 109.799804688 210.700195312 109.799804688 289 64.349609375 c 128,-1,64
 367.299804688 18.900390625 367.299804688 18.900390625 460 18.900390625 c 128,-1,65
 552.700195312 18.900390625 552.700195312 18.900390625 631 64.349609375 c 128,-1,66
 709.299804688 109.799804688 709.299804688 109.799804688 755.200195312 188.549804688 c 128,-1,67
 801.099609375 267.299804688 801.099609375 267.299804688 801.099609375 360 c 128,-1,68
 801.099609375 452.700195312 801.099609375 452.700195312 755.200195312 531.450195312 c 128,-1,69
 709.299804688 610.200195312 709.299804688 610.200195312 631 655.650390625 c 128,-1,58
 552.700195312 701.099609375 552.700195312 701.099609375 460 701.099609375 c 128,-1,59
EndSplineSet
Validated: 1
EndChar

StartChar: two
Encoding: 50 50 6
Width: 920
Flags: W
LayerCount: 2
Fore
SplineSet
518.5 100.799804688 m 0,0,1
 489.700195312 100.799804688 489.700195312 100.799804688 468.549804688 108.450195312 c 128,-1,2
 447.400390625 116.099609375 447.400390625 116.099609375 435.25 126.900390625 c 128,-1,3
 423.099609375 137.700195312 423.099609375 137.700195312 412.75 148.950195312 c 128,-1,4
 402.400390625 160.200195312 402.400390625 160.200195312 389.799804688 167.849609375 c 128,-1,5
 377.200195312 175.5 377.200195312 175.5 361.900390625 175.5 c 0,6,7
 337.599609375 175.5 337.599609375 175.5 318.25 158.849609375 c 128,-1,8
 298.900390625 142.200195312 298.900390625 142.200195312 297.099609375 115.200195312 c 0,9,10
 295.299804688 100.799804688 295.299804688 100.799804688 281.799804688 100.799804688 c 0,11,12
 275.5 100.799804688 275.5 100.799804688 270.549804688 104.849609375 c 128,-1,13
 265.599609375 108.900390625 265.599609375 108.900390625 265.599609375 116.099609375 c 0,14,15
 265.599609375 145.799804688 265.599609375 145.799804688 276.400390625 172.349609375 c 128,-1,16
 287.200195312 198.900390625 287.200195312 198.900390625 304.75 218.25 c 128,-1,17
 322.299804688 237.599609375 322.299804688 237.599609375 345.25 257.400390625 c 128,-1,18
 368.200195312 277.200195312 368.200195312 277.200195312 391.599609375 293.400390625 c 128,-1,19
 415 309.599609375 415 309.599609375 437.5 329.849609375 c 128,-1,20
 460 350.099609375 460 350.099609375 478 371.25 c 128,-1,21
 496 392.400390625 496 392.400390625 506.799804688 421.650390625 c 128,-1,22
 517.599609375 450.900390625 517.599609375 450.900390625 517.599609375 484.200195312 c 256,23,24
 517.599609375 517.5 517.599609375 517.5 511.75 544.049804688 c 128,-1,25
 505.900390625 570.599609375 505.900390625 570.599609375 490.150390625 589.950195312 c 128,-1,26
 474.400390625 609.299804688 474.400390625 609.299804688 450.099609375 609.299804688 c 0,27,28
 421.299804688 609.299804688 421.299804688 609.299804688 400.150390625 596.700195312 c 128,-1,29
 379 584.099609375 379 584.099609375 379 561.599609375 c 0,30,31
 379 549 379 549 395.650390625 529.200195312 c 128,-1,32
 412.299804688 509.400390625 412.299804688 509.400390625 412.299804688 495.900390625 c 0,33,34
 412.299804688 468.900390625 412.299804688 468.900390625 393.400390625 449.549804688 c 128,-1,35
 374.5 430.200195312 374.5 430.200195312 346.599609375 430.200195312 c 128,-1,36
 318.700195312 430.200195312 318.700195312 430.200195312 299.799804688 449.549804688 c 128,-1,37
 280.900390625 468.900390625 280.900390625 468.900390625 280.900390625 495.900390625 c 0,38,39
 280.900390625 558 280.900390625 558 331.299804688 599.400390625 c 128,-1,40
 381.700195312 640.799804688 381.700195312 640.799804688 450.099609375 640.799804688 c 0,41,42
 533.799804688 640.799804688 533.799804688 640.799804688 595 597.599609375 c 128,-1,43
 656.200195312 554.400390625 656.200195312 554.400390625 656.200195312 484.200195312 c 0,44,45
 656.200195312 447.299804688 656.200195312 447.299804688 644.5 417.599609375 c 128,-1,46
 632.799804688 387.900390625 632.799804688 387.900390625 615.25 369.450195312 c 128,-1,47
 597.700195312 351 597.700195312 351 569.799804688 334.799804688 c 128,-1,48
 541.900390625 318.599609375 541.900390625 318.599609375 517.599609375 309.150390625 c 128,-1,49
 493.299804688 299.700195312 493.299804688 299.700195312 459.549804688 286.200195312 c 128,-1,50
 425.799804688 272.700195312 425.799804688 272.700195312 405.099609375 261.900390625 c 1,51,-1
 412.299804688 261.900390625 l 2,52,53
 444.700195312 261.900390625 444.700195312 261.900390625 472.599609375 251.549804688 c 128,-1,54
 500.5 241.200195312 500.5 241.200195312 516.700195312 228.599609375 c 128,-1,55
 532.900390625 216 532.900390625 216 554.049804688 206.099609375 c 128,-1,56
 575.200195312 196.200195312 575.200195312 196.200195312 595.900390625 196.200195312 c 0,57,58
 614.799804688 196.200195312 614.799804688 196.200195312 626.049804688 202.950195312 c 128,-1,59
 637.299804688 209.700195312 637.299804688 209.700195312 640.450195312 218.25 c 128,-1,60
 643.599609375 226.799804688 643.599609375 226.799804688 648.099609375 234 c 128,-1,61
 652.599609375 241.200195312 652.599609375 241.200195312 659.799804688 241.200195312 c 0,62,63
 666.099609375 241.200195312 666.099609375 241.200195312 671.049804688 237.150390625 c 128,-1,64
 676 233.099609375 676 233.099609375 676 225.900390625 c 0,65,66
 676 215.099609375 676 215.099609375 666.099609375 195.75 c 128,-1,67
 656.200195312 176.400390625 656.200195312 176.400390625 638.200195312 154.349609375 c 128,-1,68
 620.200195312 132.299804688 620.200195312 132.299804688 588.25 116.549804688 c 128,-1,69
 556.299804688 100.799804688 556.299804688 100.799804688 518.5 100.799804688 c 0,0,1
820 360 m 128,-1,71
 820 261.900390625 820 261.900390625 771.849609375 179.099609375 c 128,-1,72
 723.700195312 96.2998046875 723.700195312 96.2998046875 640.900390625 48.150390625 c 128,-1,73
 558.099609375 0 558.099609375 0 460 0 c 128,-1,74
 361.900390625 0 361.900390625 0 279.099609375 48.150390625 c 128,-1,75
 196.299804688 96.2998046875 196.299804688 96.2998046875 148.150390625 179.099609375 c 128,-1,76
 100 261.900390625 100 261.900390625 100 360 c 128,-1,77
 100 458.099609375 100 458.099609375 148.150390625 540.900390625 c 128,-1,78
 196.299804688 623.700195312 196.299804688 623.700195312 279.099609375 671.849609375 c 128,-1,79
 361.900390625 720 361.900390625 720 460 720 c 128,-1,80
 558.099609375 720 558.099609375 720 640.900390625 671.849609375 c 128,-1,81
 723.700195312 623.700195312 723.700195312 623.700195312 771.849609375 540.900390625 c 128,-1,70
 820 458.099609375 820 458.099609375 820 360 c 128,-1,71
801.099609375 360 m 128,-1,83
 801.099609375 452.700195312 801.099609375 452.700195312 755.650390625 531 c 128,-1,84
 710.200195312 609.299804688 710.200195312 609.299804688 631.450195312 655.200195312 c 128,-1,85
 552.700195312 701.099609375 552.700195312 701.099609375 460 701.099609375 c 128,-1,86
 367.299804688 701.099609375 367.299804688 701.099609375 288.549804688 655.200195312 c 128,-1,87
 209.799804688 609.299804688 209.799804688 609.299804688 164.349609375 531 c 128,-1,88
 118.900390625 452.700195312 118.900390625 452.700195312 118.900390625 360 c 128,-1,89
 118.900390625 267.299804688 118.900390625 267.299804688 164.349609375 189 c 128,-1,90
 209.799804688 110.700195312 209.799804688 110.700195312 288.549804688 64.7998046875 c 128,-1,91
 367.299804688 18.900390625 367.299804688 18.900390625 460 18.900390625 c 128,-1,92
 552.700195312 18.900390625 552.700195312 18.900390625 631.450195312 64.7998046875 c 128,-1,93
 710.200195312 110.700195312 710.200195312 110.700195312 755.650390625 189 c 128,-1,82
 801.099609375 267.299804688 801.099609375 267.299804688 801.099609375 360 c 128,-1,83
EndSplineSet
Validated: 1
EndChar

StartChar: three
Encoding: 51 51 7
Width: 920
Flags: W
LayerCount: 2
Fore
SplineSet
575.200195312 385.900390625 m 0,0,1
 575.200195312 375.099609375 575.200195312 375.099609375 583.75 366.549804688 c 128,-1,2
 592.299804688 358 592.299804688 358 604.450195312 350.349609375 c 128,-1,3
 616.599609375 342.700195312 616.599609375 342.700195312 628.75 332.349609375 c 128,-1,4
 640.900390625 322 640.900390625 322 649.450195312 301.299804688 c 128,-1,5
 658 280.599609375 658 280.599609375 658 250.900390625 c 0,6,7
 658 178 658 178 601.299804688 138.400390625 c 128,-1,8
 544.599609375 98.7998046875 544.599609375 98.7998046875 456.400390625 98.7998046875 c 0,9,10
 387.099609375 98.7998046875 387.099609375 98.7998046875 335.349609375 134.349609375 c 128,-1,11
 283.599609375 169.900390625 283.599609375 169.900390625 283.599609375 227.5 c 0,12,13
 283.599609375 253.599609375 283.599609375 253.599609375 302.049804688 271.599609375 c 128,-1,14
 320.5 289.599609375 320.5 289.599609375 346.599609375 289.599609375 c 128,-1,15
 372.700195312 289.599609375 372.700195312 289.599609375 391.150390625 271.599609375 c 128,-1,16
 409.599609375 253.599609375 409.599609375 253.599609375 409.599609375 227.5 c 0,17,18
 409.599609375 215.799804688 409.599609375 215.799804688 389.799804688 201.400390625 c 128,-1,19
 370 187 370 187 370 175.299804688 c 0,20,21
 370 151 370 151 395.200195312 140.650390625 c 128,-1,22
 420.400390625 130.299804688 420.400390625 130.299804688 456.400390625 130.299804688 c 0,23,24
 517.599609375 130.299804688 517.599609375 130.299804688 517.599609375 250.900390625 c 2,25,-1
 517.599609375 292.299804688 l 2,26,27
 517.599609375 330.099609375 517.599609375 330.099609375 508.599609375 348.549804688 c 128,-1,28
 499.599609375 367 499.599609375 367 470.799804688 367 c 2,29,-1
 390.700195312 367 l 2,30,31
 381.700195312 367 381.700195312 367 376.75 372.400390625 c 128,-1,32
 371.799804688 377.799804688 371.799804688 377.799804688 371.799804688 385.900390625 c 128,-1,33
 371.799804688 394 371.799804688 394 376.75 399.849609375 c 128,-1,34
 381.700195312 405.700195312 381.700195312 405.700195312 390.700195312 405.700195312 c 2,35,-1
 470.799804688 405.700195312 l 2,36,37
 500.5 405.700195312 500.5 405.700195312 509.049804688 424.599609375 c 128,-1,38
 517.599609375 443.5 517.599609375 443.5 517.599609375 484 c 2,39,-1
 517.599609375 516.400390625 l 2,40,41
 517.599609375 607.299804688 517.599609375 607.299804688 451 607.299804688 c 0,42,43
 375.400390625 607.299804688 375.400390625 607.299804688 375.400390625 566.799804688 c 0,44,45
 375.400390625 556 375.400390625 556 392.5 543.849609375 c 128,-1,46
 409.599609375 531.700195312 409.599609375 531.700195312 409.599609375 520.900390625 c 0,47,48
 409.599609375 498.400390625 409.599609375 498.400390625 393.400390625 482.200195312 c 128,-1,49
 377.200195312 466 377.200195312 466 354.25 466 c 128,-1,50
 331.299804688 466 331.299804688 466 315.099609375 482.200195312 c 128,-1,51
 298.900390625 498.400390625 298.900390625 498.400390625 298.900390625 520.900390625 c 0,52,53
 298.900390625 573.099609375 298.900390625 573.099609375 344.349609375 605.950195312 c 128,-1,54
 389.799804688 638.799804688 389.799804688 638.799804688 451 638.799804688 c 0,55,56
 504.099609375 638.799804688 504.099609375 638.799804688 545.049804688 627.099609375 c 128,-1,57
 586 615.400390625 586 615.400390625 612.549804688 587.049804688 c 128,-1,58
 639.099609375 558.700195312 639.099609375 558.700195312 639.099609375 516.400390625 c 0,59,60
 639.099609375 483.099609375 639.099609375 483.099609375 632.799804688 461.5 c 128,-1,61
 626.5 439.900390625 626.5 439.900390625 617.049804688 431.799804688 c 128,-1,62
 607.599609375 423.700195312 607.599609375 423.700195312 598.150390625 418.299804688 c 128,-1,63
 588.700195312 412.900390625 588.700195312 412.900390625 581.950195312 405.700195312 c 128,-1,64
 575.200195312 398.5 575.200195312 398.5 575.200195312 385.900390625 c 0,0,1
460 718 m 128,-1,66
 558.099609375 718 558.099609375 718 640.900390625 669.849609375 c 128,-1,67
 723.700195312 621.700195312 723.700195312 621.700195312 771.849609375 538.450195312 c 128,-1,68
 820 455.200195312 820 455.200195312 820 357.549804688 c 128,-1,69
 820 259.900390625 820 259.900390625 771.849609375 177.099609375 c 128,-1,70
 723.700195312 94.2998046875 723.700195312 94.2998046875 640.900390625 46.150390625 c 128,-1,71
 558.099609375 -2 558.099609375 -2 460 -2 c 128,-1,72
 361.900390625 -2 361.900390625 -2 279.099609375 46.150390625 c 128,-1,73
 196.299804688 94.2998046875 196.299804688 94.2998046875 148.150390625 177.099609375 c 128,-1,74
 100 259.900390625 100 259.900390625 100 357.549804688 c 128,-1,75
 100 455.200195312 100 455.200195312 148.150390625 538.450195312 c 128,-1,76
 196.299804688 621.700195312 196.299804688 621.700195312 279.099609375 669.849609375 c 128,-1,65
 361.900390625 718 361.900390625 718 460 718 c 128,-1,66
460 699.099609375 m 128,-1,78
 367.299804688 699.099609375 367.299804688 699.099609375 289 653.650390625 c 128,-1,79
 210.700195312 608.200195312 210.700195312 608.200195312 164.799804688 529.450195312 c 128,-1,80
 118.900390625 450.700195312 118.900390625 450.700195312 118.900390625 358 c 128,-1,81
 118.900390625 265.299804688 118.900390625 265.299804688 164.799804688 186.549804688 c 128,-1,82
 210.700195312 107.799804688 210.700195312 107.799804688 289 62.349609375 c 128,-1,83
 367.299804688 16.900390625 367.299804688 16.900390625 460 16.900390625 c 128,-1,84
 552.700195312 16.900390625 552.700195312 16.900390625 631.450195312 62.349609375 c 128,-1,85
 710.200195312 107.799804688 710.200195312 107.799804688 755.650390625 186.549804688 c 128,-1,86
 801.099609375 265.299804688 801.099609375 265.299804688 801.099609375 358 c 128,-1,87
 801.099609375 450.700195312 801.099609375 450.700195312 755.650390625 529.450195312 c 128,-1,88
 710.200195312 608.200195312 710.200195312 608.200195312 631.450195312 653.650390625 c 128,-1,77
 552.700195312 699.099609375 552.700195312 699.099609375 460 699.099609375 c 128,-1,78
EndSplineSet
Validated: 1
EndChar

StartChar: four
Encoding: 52 52 8
Width: 920
Flags: W
LayerCount: 2
Fore
SplineSet
350.200195312 642.799804688 m 0,0,1
 351.099609375 642.799804688 351.099609375 642.799804688 364.599609375 638.75 c 128,-1,2
 378.099609375 634.700195312 378.099609375 634.700195312 398.799804688 630.650390625 c 128,-1,3
 419.5 626.599609375 419.5 626.599609375 436.599609375 626.599609375 c 0,4,5
 462.700195312 626.599609375 462.700195312 626.599609375 493.299804688 634.700195312 c 128,-1,6
 523.900390625 642.799804688 523.900390625 642.799804688 526.599609375 642.799804688 c 0,7,8
 533.799804688 642.799804688 533.799804688 642.799804688 539.200195312 638.299804688 c 128,-1,9
 544.599609375 633.799804688 544.599609375 633.799804688 544.599609375 627.5 c 0,10,11
 544.599609375 622.099609375 544.599609375 622.099609375 542.799804688 620.299804688 c 2,12,-1
 238.599609375 276.5 l 1,13,-1
 402.400390625 276.5 l 1,14,-1
 402.400390625 380 l 2,15,16
 402.400390625 398.900390625 402.400390625 398.900390625 413.200195312 407.900390625 c 128,-1,17
 424 416.900390625 424 416.900390625 445.150390625 429.950195312 c 128,-1,18
 466.299804688 443 466.299804688 443 483.400390625 464.599609375 c 0,19,20
 493.299804688 478.099609375 493.299804688 478.099609375 500.5 495.200195312 c 128,-1,21
 507.700195312 512.299804688 507.700195312 512.299804688 512.650390625 520.400390625 c 128,-1,22
 517.599609375 528.5 517.599609375 528.5 524.799804688 528.5 c 256,23,24
 532 528.5 532 528.5 537.400390625 523.549804688 c 128,-1,25
 542.799804688 518.599609375 542.799804688 518.599609375 542.799804688 510.5 c 2,26,-1
 542.799804688 276.5 l 1,27,-1
 627.400390625 276.5 l 2,28,29
 636.400390625 276.5 636.400390625 276.5 641.799804688 270.650390625 c 128,-1,30
 647.200195312 264.799804688 647.200195312 264.799804688 647.200195312 257.150390625 c 128,-1,31
 647.200195312 249.5 647.200195312 249.5 641.799804688 243.650390625 c 128,-1,32
 636.400390625 237.799804688 636.400390625 237.799804688 627.400390625 237.799804688 c 2,33,-1
 542.799804688 237.799804688 l 1,34,35
 543.700195312 194.599609375 543.700195312 194.599609375 567.549804688 164.450195312 c 128,-1,36
 591.400390625 134.299804688 591.400390625 134.299804688 628.299804688 134.299804688 c 0,37,38
 636.400390625 134.299804688 636.400390625 134.299804688 640.450195312 129.349609375 c 128,-1,39
 644.5 124.400390625 644.5 124.400390625 644.5 118.099609375 c 128,-1,40
 644.5 111.799804688 644.5 111.799804688 640.450195312 107.299804688 c 128,-1,41
 636.400390625 102.799804688 636.400390625 102.799804688 628.299804688 102.799804688 c 0,42,43
 602.200195312 102.799804688 602.200195312 102.799804688 550.450195312 110.450195312 c 128,-1,44
 498.700195312 118.099609375 498.700195312 118.099609375 472.150390625 118.099609375 c 128,-1,45
 445.599609375 118.099609375 445.599609375 118.099609375 393.400390625 110.450195312 c 128,-1,46
 341.200195312 102.799804688 341.200195312 102.799804688 315.099609375 102.799804688 c 0,47,48
 299.799804688 102.799804688 299.799804688 102.799804688 299.799804688 118.099609375 c 0,49,50
 299.799804688 134.299804688 299.799804688 134.299804688 315.099609375 134.299804688 c 0,51,52
 352 134.299804688 352 134.299804688 376.299804688 164.450195312 c 128,-1,53
 400.599609375 194.599609375 400.599609375 194.599609375 402.400390625 237.799804688 c 1,54,-1
 238.599609375 237.799804688 l 2,55,56
 217 237.799804688 217 237.799804688 207.099609375 247.25 c 128,-1,57
 197.200195312 256.700195312 197.200195312 256.700195312 197.200195312 267.5 c 0,58,59
 197.200195312 271.099609375 197.200195312 271.099609375 211.150390625 288.650390625 c 128,-1,60
 225.099609375 306.200195312 225.099609375 306.200195312 244.900390625 336.349609375 c 128,-1,61
 264.700195312 366.5 264.700195312 366.5 284.5 405.650390625 c 128,-1,62
 304.299804688 444.799804688 304.299804688 444.799804688 318.25 501.950195312 c 128,-1,63
 332.200195312 559.099609375 332.200195312 559.099609375 332.200195312 620.299804688 c 0,64,65
 332.200195312 629.299804688 332.200195312 629.299804688 337.599609375 636.049804688 c 128,-1,66
 343 642.799804688 343 642.799804688 350.200195312 642.799804688 c 0,0,1
460 722 m 128,-1,68
 558.099609375 722 558.099609375 722 640.900390625 673.849609375 c 128,-1,69
 723.700195312 625.700195312 723.700195312 625.700195312 771.849609375 542.450195312 c 128,-1,70
 820 459.200195312 820 459.200195312 820 361.549804688 c 128,-1,71
 820 263.900390625 820 263.900390625 771.849609375 181.099609375 c 128,-1,72
 723.700195312 98.2998046875 723.700195312 98.2998046875 640.900390625 50.150390625 c 128,-1,73
 558.099609375 2 558.099609375 2 460 2 c 128,-1,74
 361.900390625 2 361.900390625 2 279.099609375 50.150390625 c 128,-1,75
 196.299804688 98.2998046875 196.299804688 98.2998046875 148.150390625 181.099609375 c 128,-1,76
 100 263.900390625 100 263.900390625 100 361.549804688 c 128,-1,77
 100 459.200195312 100 459.200195312 148.150390625 542.450195312 c 128,-1,78
 196.299804688 625.700195312 196.299804688 625.700195312 279.099609375 673.849609375 c 128,-1,67
 361.900390625 722 361.900390625 722 460 722 c 128,-1,68
460 703.099609375 m 128,-1,80
 367.299804688 703.099609375 367.299804688 703.099609375 289 657.650390625 c 128,-1,81
 210.700195312 612.200195312 210.700195312 612.200195312 164.799804688 533.450195312 c 128,-1,82
 118.900390625 454.700195312 118.900390625 454.700195312 118.900390625 362 c 128,-1,83
 118.900390625 269.299804688 118.900390625 269.299804688 164.799804688 190.549804688 c 128,-1,84
 210.700195312 111.799804688 210.700195312 111.799804688 289 66.349609375 c 128,-1,85
 367.299804688 20.900390625 367.299804688 20.900390625 460 20.900390625 c 128,-1,86
 552.700195312 20.900390625 552.700195312 20.900390625 631.450195312 66.349609375 c 128,-1,87
 710.200195312 111.799804688 710.200195312 111.799804688 755.650390625 190.549804688 c 128,-1,88
 801.099609375 269.299804688 801.099609375 269.299804688 801.099609375 362 c 128,-1,89
 801.099609375 454.700195312 801.099609375 454.700195312 755.650390625 533.450195312 c 128,-1,90
 710.200195312 612.200195312 710.200195312 612.200195312 631.450195312 657.650390625 c 128,-1,79
 552.700195312 703.099609375 552.700195312 703.099609375 460 703.099609375 c 128,-1,80
EndSplineSet
Validated: 1
EndChar

StartChar: five
Encoding: 53 53 9
Width: 920
Flags: W
LayerCount: 2
Fore
SplineSet
323.200195312 631.400390625 m 0,0,1
 324.099609375 631.400390625 324.099609375 631.400390625 332.650390625 630.049804688 c 128,-1,2
 341.200195312 628.700195312 341.200195312 628.700195312 355.150390625 626.450195312 c 128,-1,3
 369.099609375 624.200195312 369.099609375 624.200195312 386.650390625 621.950195312 c 128,-1,4
 404.200195312 619.700195312 404.200195312 619.700195312 427.599609375 617.900390625 c 128,-1,5
 451 616.099609375 451 616.099609375 473.5 616.099609375 c 0,6,7
 505.900390625 616.099609375 505.900390625 616.099609375 542.349609375 620.150390625 c 128,-1,8
 578.799804688 624.200195312 578.799804688 624.200195312 602.200195312 627.799804688 c 128,-1,9
 625.599609375 631.400390625 625.599609375 631.400390625 625.599609375 631.400390625 c 1,10,11
 634.599609375 631.400390625 634.599609375 631.400390625 640.450195312 626.900390625 c 128,-1,12
 646.299804688 622.400390625 646.299804688 622.400390625 646.299804688 616.099609375 c 0,13,14
 646.299804688 612.5 646.299804688 612.5 634.150390625 599.900390625 c 128,-1,15
 622 587.299804688 622 587.299804688 596.799804688 570.650390625 c 128,-1,16
 571.599609375 554 571.599609375 554 539.200195312 538.25 c 128,-1,17
 506.799804688 522.5 506.799804688 522.5 460 511.700195312 c 128,-1,18
 413.200195312 500.900390625 413.200195312 500.900390625 364.599609375 500.900390625 c 0,19,20
 355.599609375 500.900390625 355.599609375 500.900390625 349.299804688 494.150390625 c 128,-1,21
 343 487.400390625 343 487.400390625 343 478.400390625 c 2,22,-1
 343 399.200195312 l 1,23,24
 381.700195312 437.900390625 381.700195312 437.900390625 457.299804688 437.900390625 c 0,25,26
 554.5 437.900390625 554.5 437.900390625 607.150390625 395.150390625 c 128,-1,27
 659.799804688 352.400390625 659.799804688 352.400390625 659.799804688 264.200195312 c 0,28,29
 659.799804688 187.700195312 659.799804688 187.700195312 595.900390625 139.549804688 c 128,-1,30
 532 91.400390625 532 91.400390625 443.799804688 91.400390625 c 0,31,32
 371.799804688 91.400390625 371.799804688 91.400390625 319.599609375 126.049804688 c 128,-1,33
 267.400390625 160.700195312 267.400390625 160.700195312 267.400390625 220.099609375 c 0,34,35
 267.400390625 246.200195312 267.400390625 246.200195312 285.400390625 264.200195312 c 128,-1,36
 303.400390625 282.200195312 303.400390625 282.200195312 329.5 282.200195312 c 128,-1,37
 355.599609375 282.200195312 355.599609375 282.200195312 374.049804688 264.200195312 c 128,-1,38
 392.5 246.200195312 392.5 246.200195312 392.5 220.099609375 c 0,39,40
 392.5 208.400390625 392.5 208.400390625 373.150390625 194 c 128,-1,41
 353.799804688 179.599609375 353.799804688 179.599609375 353.799804688 167.900390625 c 0,42,43
 353.799804688 122.900390625 353.799804688 122.900390625 443.799804688 122.900390625 c 0,44,45
 472.599609375 122.900390625 472.599609375 122.900390625 490.150390625 144.5 c 128,-1,46
 507.700195312 166.099609375 507.700195312 166.099609375 514.450195312 196.25 c 128,-1,47
 521.200195312 226.400390625 521.200195312 226.400390625 521.200195312 264.200195312 c 0,48,49
 521.200195312 399.200195312 521.200195312 399.200195312 457.299804688 399.200195312 c 0,50,51
 415 399.200195312 415 399.200195312 388.450195312 391.549804688 c 128,-1,52
 361.900390625 383.900390625 361.900390625 383.900390625 354.25 374.450195312 c 128,-1,53
 346.599609375 365 346.599609375 365 338.950195312 357.349609375 c 128,-1,54
 331.299804688 349.700195312 331.299804688 349.700195312 323.200195312 349.700195312 c 256,55,56
 315.099609375 349.700195312 315.099609375 349.700195312 309.25 355.099609375 c 128,-1,57
 303.400390625 360.5 303.400390625 360.5 303.400390625 368.599609375 c 2,58,-1
 303.400390625 609.799804688 l 2,59,60
 303.400390625 618.799804688 303.400390625 618.799804688 309.25 625.099609375 c 128,-1,61
 315.099609375 631.400390625 315.099609375 631.400390625 323.200195312 631.400390625 c 0,0,1
460 725 m 128,-1,63
 558.099609375 725 558.099609375 725 640.900390625 676.849609375 c 128,-1,64
 723.700195312 628.700195312 723.700195312 628.700195312 771.849609375 545.450195312 c 128,-1,65
 820 462.200195312 820 462.200195312 820 364.549804688 c 128,-1,66
 820 266.900390625 820 266.900390625 771.849609375 184.099609375 c 128,-1,67
 723.700195312 101.299804688 723.700195312 101.299804688 640.900390625 53.150390625 c 128,-1,68
 558.099609375 5 558.099609375 5 460 5 c 128,-1,69
 361.900390625 5 361.900390625 5 279.099609375 53.150390625 c 128,-1,70
 196.299804688 101.299804688 196.299804688 101.299804688 148.150390625 184.099609375 c 128,-1,71
 100 266.900390625 100 266.900390625 100 364.549804688 c 128,-1,72
 100 462.200195312 100 462.200195312 148.150390625 545.450195312 c 128,-1,73
 196.299804688 628.700195312 196.299804688 628.700195312 279.099609375 676.849609375 c 128,-1,62
 361.900390625 725 361.900390625 725 460 725 c 128,-1,63
460 706.099609375 m 128,-1,75
 367.299804688 706.099609375 367.299804688 706.099609375 289 660.650390625 c 128,-1,76
 210.700195312 615.200195312 210.700195312 615.200195312 164.799804688 536.450195312 c 128,-1,77
 118.900390625 457.700195312 118.900390625 457.700195312 118.900390625 365 c 128,-1,78
 118.900390625 272.299804688 118.900390625 272.299804688 164.799804688 193.549804688 c 128,-1,79
 210.700195312 114.799804688 210.700195312 114.799804688 289 69.349609375 c 128,-1,80
 367.299804688 23.900390625 367.299804688 23.900390625 460 23.900390625 c 128,-1,81
 552.700195312 23.900390625 552.700195312 23.900390625 631.450195312 69.349609375 c 128,-1,82
 710.200195312 114.799804688 710.200195312 114.799804688 755.650390625 193.549804688 c 128,-1,83
 801.099609375 272.299804688 801.099609375 272.299804688 801.099609375 365 c 128,-1,84
 801.099609375 457.700195312 801.099609375 457.700195312 755.650390625 536.450195312 c 128,-1,85
 710.200195312 615.200195312 710.200195312 615.200195312 631.450195312 660.650390625 c 128,-1,74
 552.700195312 706.099609375 552.700195312 706.099609375 460 706.099609375 c 128,-1,75
EndSplineSet
Validated: 1
EndChar

StartChar: six
Encoding: 54 54 10
Width: 920
Flags: W
LayerCount: 2
Fore
SplineSet
449.200195312 383.5 m 0,0,1
 417.700195312 383.5 417.700195312 383.5 408.25 363.700195312 c 128,-1,2
 398.799804688 343.900390625 398.799804688 343.900390625 398.799804688 301.599609375 c 2,3,-1
 398.799804688 261.099609375 l 1,4,-1
 398.799804688 219.700195312 l 2,5,6
 398.799804688 177.400390625 398.799804688 177.400390625 408.25 157.599609375 c 128,-1,7
 417.700195312 137.799804688 417.700195312 137.799804688 449.200195312 137.799804688 c 0,8,9
 463.599609375 137.799804688 463.599609375 137.799804688 473.950195312 141.400390625 c 128,-1,10
 484.299804688 145 484.299804688 145 491.049804688 154.450195312 c 128,-1,11
 497.799804688 163.900390625 497.799804688 163.900390625 501.400390625 172.450195312 c 128,-1,12
 505 181 505 181 506.349609375 198.549804688 c 128,-1,13
 507.700195312 216.099609375 507.700195312 216.099609375 508.150390625 226.900390625 c 128,-1,14
 508.599609375 237.700195312 508.599609375 237.700195312 508.599609375 260.650390625 c 128,-1,15
 508.599609375 283.599609375 508.599609375 283.599609375 508.150390625 294.400390625 c 128,-1,16
 507.700195312 305.200195312 507.700195312 305.200195312 506.349609375 322.75 c 128,-1,17
 505 340.299804688 505 340.299804688 501.400390625 348.849609375 c 128,-1,18
 497.799804688 357.400390625 497.799804688 357.400390625 491.049804688 366.849609375 c 128,-1,19
 484.299804688 376.299804688 484.299804688 376.299804688 473.950195312 379.900390625 c 128,-1,20
 463.599609375 383.5 463.599609375 383.5 449.200195312 383.5 c 0,0,1
398.799804688 399.700195312 m 1,21,22
 431.200195312 415 431.200195312 415 449.200195312 415 c 0,23,24
 536.5 415 536.5 415 587.799804688 375.849609375 c 128,-1,25
 639.099609375 336.700195312 639.099609375 336.700195312 639.099609375 260.650390625 c 128,-1,26
 639.099609375 184.599609375 639.099609375 184.599609375 587.799804688 145.450195312 c 128,-1,27
 536.5 106.299804688 536.5 106.299804688 449.200195312 106.299804688 c 0,28,29
 389.799804688 106.299804688 389.799804688 106.299804688 345.700195312 145.900390625 c 128,-1,30
 301.599609375 185.5 301.599609375 185.5 280.450195312 245.799804688 c 128,-1,31
 259.299804688 306.099609375 259.299804688 306.099609375 259.299804688 376.299804688 c 256,32,33
 259.299804688 446.5 259.299804688 446.5 284.950195312 507.700195312 c 128,-1,34
 310.599609375 568.900390625 310.599609375 568.900390625 360.099609375 607.599609375 c 128,-1,35
 409.599609375 646.299804688 409.599609375 646.299804688 471.700195312 646.299804688 c 256,36,37
 533.799804688 646.299804688 533.799804688 646.299804688 578.799804688 613.450195312 c 128,-1,38
 623.799804688 580.599609375 623.799804688 580.599609375 623.799804688 528.400390625 c 0,39,40
 623.799804688 502.299804688 623.799804688 502.299804688 605.799804688 484.299804688 c 128,-1,41
 587.799804688 466.299804688 587.799804688 466.299804688 561.700195312 466.299804688 c 128,-1,42
 535.599609375 466.299804688 535.599609375 466.299804688 517.150390625 484.299804688 c 128,-1,43
 498.700195312 502.299804688 498.700195312 502.299804688 498.700195312 528.400390625 c 0,44,45
 498.700195312 540.099609375 498.700195312 540.099609375 517.599609375 552.25 c 128,-1,46
 536.5 564.400390625 536.5 564.400390625 536.5 576.099609375 c 0,47,48
 536.5 595.900390625 536.5 595.900390625 517.599609375 605.349609375 c 128,-1,49
 498.700195312 614.799804688 498.700195312 614.799804688 471.700195312 614.799804688 c 0,50,51
 448.299804688 614.799804688 448.299804688 614.799804688 433 605.349609375 c 128,-1,52
 417.700195312 595.900390625 417.700195312 595.900390625 410.049804688 576.549804688 c 128,-1,53
 402.400390625 557.200195312 402.400390625 557.200195312 399.25 535.599609375 c 128,-1,54
 396.099609375 514 396.099609375 514 396.099609375 484.299804688 c 0,55,56
 396.099609375 456.400390625 396.099609375 456.400390625 398.799804688 399.700195312 c 1,21,22
460 725.5 m 128,-1,58
 558.099609375 725.5 558.099609375 725.5 640.900390625 677.349609375 c 128,-1,59
 723.700195312 629.200195312 723.700195312 629.200195312 771.849609375 545.950195312 c 128,-1,60
 820 462.700195312 820 462.700195312 820 365.049804688 c 128,-1,61
 820 267.400390625 820 267.400390625 771.849609375 184.599609375 c 128,-1,62
 723.700195312 101.799804688 723.700195312 101.799804688 640.900390625 53.650390625 c 128,-1,63
 558.099609375 5.5 558.099609375 5.5 460 5.5 c 128,-1,64
 361.900390625 5.5 361.900390625 5.5 279.099609375 53.650390625 c 128,-1,65
 196.299804688 101.799804688 196.299804688 101.799804688 148.150390625 184.599609375 c 128,-1,66
 100 267.400390625 100 267.400390625 100 365.049804688 c 128,-1,67
 100 462.700195312 100 462.700195312 148.150390625 545.950195312 c 128,-1,68
 196.299804688 629.200195312 196.299804688 629.200195312 279.099609375 677.349609375 c 128,-1,57
 361.900390625 725.5 361.900390625 725.5 460 725.5 c 128,-1,58
460 706.599609375 m 128,-1,70
 367.299804688 706.599609375 367.299804688 706.599609375 289 661.150390625 c 128,-1,71
 210.700195312 615.700195312 210.700195312 615.700195312 164.799804688 536.950195312 c 128,-1,72
 118.900390625 458.200195312 118.900390625 458.200195312 118.900390625 365.5 c 128,-1,73
 118.900390625 272.799804688 118.900390625 272.799804688 164.799804688 194.049804688 c 128,-1,74
 210.700195312 115.299804688 210.700195312 115.299804688 289 69.849609375 c 128,-1,75
 367.299804688 24.400390625 367.299804688 24.400390625 460 24.400390625 c 128,-1,76
 552.700195312 24.400390625 552.700195312 24.400390625 631.450195312 69.849609375 c 128,-1,77
 710.200195312 115.299804688 710.200195312 115.299804688 755.650390625 194.049804688 c 128,-1,78
 801.099609375 272.799804688 801.099609375 272.799804688 801.099609375 365.5 c 128,-1,79
 801.099609375 458.200195312 801.099609375 458.200195312 755.650390625 536.950195312 c 128,-1,80
 710.200195312 615.700195312 710.200195312 615.700195312 631.450195312 661.150390625 c 128,-1,69
 552.700195312 706.599609375 552.700195312 706.599609375 460 706.599609375 c 128,-1,70
EndSplineSet
Validated: 1
EndChar

StartChar: question
Encoding: 63 63 11
Width: 1000
Flags: W
LayerCount: 2
Fore
SplineSet
212 461 m 2,0,1
 212 589 212 589 316 646 c 1,2,3
 398 689 398 689 542 689 c 0,4,5
 614 689 614 689 677 659 c 0,6,7
 753 624 753 624 790 556 c 0,8,9
 812 515 812 515 812 467 c 0,10,11
 812 391 812 391 754 320 c 0,12,13
 712 268 712 268 660 240 c 0,14,15
 578 196 578 196 532 141 c 0,16,17
 516 121 516 121 516 105 c 0,18,19
 516 103 516 103 515 97 c 0,20,21
 514 93 514 93 514 91 c 0,22,23
 514 70 514 70 457 70 c 0,24,25
 432 70 432 70 429 75 c 0,26,27
 427 77 427 77 427 80 c 0,28,29
 427 81 427 81 428 82 c 1,30,31
 428 86 428 86 428 93 c 0,32,33
 428 158 428 158 488 217 c 0,34,35
 505 235 505 235 542 266 c 0,36,37
 580 297 580 297 598 315 c 0,38,39
 657 373 657 373 657 434 c 0,40,41
 657 465 657 465 636 495 c 0,42,43
 608 536 608 536 558 536 c 0,44,45
 527 536 527 536 501 515 c 0,46,47
 469 490 469 490 469 450 c 0,48,49
 469 438 469 438 475 426 c 1,50,51
 483 415 483 415 483 408 c 0,52,53
 483 392 483 392 453 392 c 2,54,-1
 243 392 l 2,55,56
 212 392 212 392 212 445 c 2,57,-1
 212 461 l 2,0,1
377 31 m 1,58,-1
 523 31 l 2,59,60
 536 31 536 31 572 -21 c 0,61,62
 610 -77 610 -77 610 -101 c 0,63,64
 610 -111 610 -111 605 -111 c 0,65,66
 604 -111 604 -111 603 -111 c 0,67,68
 597 -110 597 -110 593 -110 c 2,69,-1
 473 -110 l 2,70,71
 467 -110 467 -110 428 -60 c 0,72,73
 384 -5 384 -5 377 31 c 1,58,-1
EndSplineSet
Validated: 1
EndChar

StartChar: B
Encoding: 66 66 12
Width: 970
Flags: W
HStem: 252 77<326.523 412 572.303 683.5>
VStem: 200 101<483.783 745.887> 223 59<-35.4998 158.217> 382 153<68.8884 228.593> 433 102<579 745.887> 446 74<315 484.2> 453 82<-26.5017 51> 651 119<94.4991 232.612>
LayerCount: 2
Fore
SplineSet
537 154 m 6,0,-1
 535 75 l 5,1,-1
 535 61 l 6,2,3
 535 20 535 20 542 -28 c 5,4,5
 593 22 593 22 622 67 c 132,-1,6
 651 112 651 112 651 164 c 4,7,8
 651 201 651 201 638 226.5 c 132,-1,9
 625 252 625 252 599 252 c 4,10,11
 569 252 569 252 554 223.5 c 132,-1,12
 539 195 539 195 537 154 c 6,0,-1
457 -95 m 6,13,-1
 453 51 l 5,14,15
 434 27 434 27 394 -13.5 c 132,-1,16
 354 -54 354 -54 341 -68 c 4,17,18
 332 -78 332 -78 321.5 -100.5 c 132,-1,19
 311 -123 311 -123 299 -136.5 c 132,-1,20
 287 -150 287 -150 269 -150 c 4,21,22
 249 -150 249 -150 236 -134 c 132,-1,23
 223 -118 223 -118 223 -95 c 6,24,-1
 200 737 l 5,25,26
 224 750 224 750 250.5 750 c 132,-1,27
 277 750 277 750 301 737 c 5,28,-1
 288 263 l 5,29,30
 304 294 304 294 333 311.5 c 132,-1,31
 362 329 362 329 397 329 c 4,32,33
 427 329 427 329 446 315 c 5,34,-1
 433 737 l 5,35,36
 456 750 456 750 483 750 c 4,37,38
 511 750 511 750 535 737 c 5,39,-1
 520 263 l 5,40,41
 545 295 545 295 581.5 312 c 132,-1,42
 618 329 618 329 658 329 c 4,43,44
 709 329 709 329 739.5 284 c 132,-1,45
 770 239 770 239 770 176 c 4,46,47
 770 145 770 145 759 117 c 132,-1,48
 748 89 748 89 726.5 63.5 c 132,-1,49
 705 38 705 38 685.5 19.5 c 132,-1,50
 666 1 666 1 634.5 -25.5 c 132,-1,51
 603 -52 603 -52 586 -68 c 5,52,53
 577 -78 577 -78 563 -101 c 132,-1,54
 549 -124 549 -124 535 -137 c 132,-1,55
 521 -150 521 -150 502 -150 c 4,56,57
 482 -150 482 -150 469.5 -134 c 132,-1,58
 457 -118 457 -118 457 -95 c 6,13,-1
285 154 m 6,59,-1
 282 75 l 5,60,-1
 282 60 l 6,61,62
 282 11 282 11 291 -37 c 5,63,64
 382 68 382 68 382 164 c 4,65,66
 382 252 382 252 338 252 c 4,67,68
 288 252 288 252 285 154 c 6,59,-1
EndSplineSet
Validated: 1
EndChar

StartChar: b
Encoding: 98 98 13
Width: 738
Flags: W
HStem: 252 77<342.553 455>
VStem: 200 101<591.154 745.887> 427 111<93.7231 230.662>
LayerCount: 2
Fore
SplineSet
304 154 m 2,0,-1
 301 75 l 1,1,-1
 301 61 l 2,2,3
 301 20 301 20 308 -28 c 1,4,5
 337 -1 337 -1 352 15 c 128,-1,6
 367 31 367 31 387.5 57.5 c 128,-1,7
 408 84 408 84 417.5 110 c 128,-1,8
 427 136 427 136 427 164 c 0,9,10
 427 200 427 200 412.5 226 c 128,-1,11
 398 252 398 252 371 252 c 0,12,13
 340 252 340 252 322.5 223 c 128,-1,14
 305 194 305 194 304 154 c 2,0,-1
223 -95 m 2,15,-1
 200 737 l 1,16,17
 224 750 224 750 250.5 750 c 128,-1,18
 277 750 277 750 301 737 c 1,19,-1
 288 263 l 1,20,21
 345 329 345 329 430 329 c 0,22,23
 480 329 480 329 509 283 c 128,-1,24
 538 237 538 237 538 174 c 0,25,26
 538 144 538 144 527 116 c 128,-1,27
 516 88 516 88 494 63 c 128,-1,28
 472 38 472 38 452 19.5 c 128,-1,29
 432 1 432 1 400.5 -25.5 c 128,-1,30
 369 -52 369 -52 352 -68 c 1,31,32
 343 -78 343 -78 329.5 -100.5 c 128,-1,33
 316 -123 316 -123 302 -136.5 c 128,-1,34
 288 -150 288 -150 269 -150 c 0,35,36
 249 -150 249 -150 236 -134 c 128,-1,37
 223 -118 223 -118 223 -95 c 2,15,-1
EndSplineSet
Validated: 1
EndChar

StartChar: g
Encoding: 103 103 14
Width: 479
Flags: W
HStem: -67.0713 106.071<179.824 284 286 302.607> 69 65.4844<201.042 279.686> 647 20G<214 261>
VStem: 118.453 245.597<230.546 325.434> 141.571 51.0488<145.883 219.517> 208 60<355 665.205> 214.125 46.875<499.549 667> 287.407 47.7334<147.523 222.356>
LayerCount: 2
Fore
SplineSet
223 -67 m 1,0,1
 116 -62 116 -62 85 0 c 1,2,3
 75.2001953125 22.400390625 75.2001953125 22.400390625 75.2001953125 44.3095703125 c 0,4,5
 75.2001953125 53.7001953125 75.2001953125 53.7001953125 77 63 c 0,6,7
 83 94 83 94 103 122 c 0,8,9
 106 127 106 127 113 136.5 c 128,-1,10
 120 146 120 146 123.5 151.5 c 128,-1,11
 127 157 127 157 132 166 c 128,-1,12
 137 175 137 175 139 182.5 c 128,-1,13
 141 190 141 190 141.5 199 c 0,14,15
 141.571289062 200.286132812 141.571289062 200.286132812 141.571289062 201.571289062 c 0,16,17
 141.571289062 209.286132812 141.571289062 209.286132812 139 217 c 1,18,19
 118.453125 257.471679688 118.453125 257.471679688 118.453125 285.537109375 c 0,20,21
 118.453125 302.546875 118.453125 302.546875 126 315 c 0,22,23
 148 351 148 351 208 354 c 1,24,25
 214.125 516.75 214.125 516.75 214.125 634.328125 c 0,26,27
 214.125 651.125 214.125 651.125 214 667 c 1,28,-1
 261 667 l 1,29,30
 261 610 261 610 264 496 c 128,-1,31
 267 382 267 382 268 355 c 1,32,33
 270.788085938 355.12109375 270.788085938 355.12109375 273.524414062 355.12109375 c 0,34,35
 315.939453125 355.12109375 315.939453125 355.12109375 346 326 c 0,36,37
 364.049804688 307.950195312 364.049804688 307.950195312 364.049804688 283.58203125 c 0,38,39
 364.049804688 282.299804688 364.049804688 282.299804688 364 281 c 0,40,41
 363 255 363 255 347 233 c 1,42,43
 335.140625 217.947265625 335.140625 217.947265625 335.140625 200.3984375 c 0,44,45
 335.140625 179.473632812 335.140625 179.473632812 352 155 c 0,46,47
 356 149 356 149 363 138.5 c 128,-1,48
 370 128 370 128 374 122 c 128,-1,49
 378 116 378 116 384.5 105 c 128,-1,50
 391 94 391 94 393.5 87.5 c 128,-1,51
 396 81 396 81 400 69.5 c 0,52,53
 403.200195312 60.2998046875 403.200195312 60.2998046875 403.200195312 53.66015625 c 0,54,55
 403.200195312 52 403.200195312 52 403 50.5 c 0,56,57
 402 43 402 43 402 30 c 1,58,59
 398 0 398 0 376.5 -23 c 128,-1,60
 355 -46 355 -46 325 -55 c 0,61,62
 287.857421875 -67.0712890625 287.857421875 -67.0712890625 231.745117188 -67.0712890625 c 0,63,64
 227.428710938 -67.0712890625 227.428710938 -67.0712890625 223 -67 c 1,0,1
286 42 m 1,65,66
 301 42 301 42 303 55 c 1,67,68
 303.077148438 56.0771484375 303.077148438 56.0771484375 303.077148438 57.0830078125 c 0,69,70
 303.077148438 69.154296875 303.077148438 69.154296875 292 71 c 0,71,72
 290.75 71.25 290.75 71.25 289.375 71.25 c 0,73,74
 285.25 71.25 285.25 71.25 280 69 c 1,75,76
 271 69 271 69 229.5 69 c 128,-1,77
 188 69 188 69 179 69 c 1,78,79
 177.286132812 63.5712890625 177.286132812 63.5712890625 177.286132812 59.2041015625 c 0,80,81
 177.286132812 48.2861328125 177.286132812 48.2861328125 188 44 c 0,82,83
 200.857421875 38.857421875 200.857421875 38.857421875 218.122070312 38.857421875 c 0,84,85
 221 38.857421875 221 38.857421875 224 39 c 1,86,-1
 284 39 l 1,87,-1
 285 41 l 1,88,-1
 286 42 l 1,65,66
252 136 m 0,89,90
 270 140 270 140 280 156.5 c 0,91,92
 287.407226562 168.72265625 287.407226562 168.72265625 287.407226562 182.31640625 c 0,93,94
 287.407226562 187.07421875 287.407226562 187.07421875 286.5 192 c 0,95,96
 283 211 283 211 268 221 c 1,97,98
 256 230 256 230 242.875 230 c 128,-1,99
 229.75 230 229.75 230 215.5 221 c 0,100,101
 192.620117188 206.548828125 192.620117188 206.548828125 192.620117188 184.364257812 c 0,102,103
 192.620117188 178.915039062 192.620117188 178.915039062 194 173 c 0,104,105
 198 154 198 154 215.5 142.5 c 0,106,107
 227.697265625 134.484375 227.697265625 134.484375 240.623046875 134.484375 c 0,108,109
 246.2421875 134.484375 246.2421875 134.484375 252 136 c 0,89,90
EndSplineSet
Validated: 1
EndChar

StartChar: n
Encoding: 110 110 15
Width: 599
Flags: W
HStem: -78 215<173.873 271.187> 658 20G<333.5 340>
VStem: 324 21<112.001 490 617.389 677.924> 499 48<204.492 367.715>
LayerCount: 2
Fore
SplineSet
184 -78 m 2,0,1
 152 -78 152 -78 126 -55 c 128,-1,2
 100 -32 100 -32 100 0 c 2,3,-1
 100 2 l 2,4,5
 102 58 102 58 148.5 97.5 c 128,-1,6
 195 137 195 137 251 137 c 0,7,8
 269 137 269 137 292 130 c 0,9,10
 298 129 298 129 309 120.5 c 128,-1,11
 320 112 320 112 322 112 c 0,12,13
 325 112 325 112 325 117 c 128,-1,14
 325 122 325 122 324 126 c 2,15,-1
 324 400 l 2,16,17
 324 584 324 584 325 675 c 1,18,19
 331 678 331 678 336 678 c 0,20,21
 344 678 344 678 346.5 665.5 c 128,-1,22
 349 653 349 653 350.5 636.5 c 128,-1,23
 352 620 352 620 358 614 c 0,24,25
 371 579 371 579 399 542 c 128,-1,26
 427 505 427 505 453.5 477.5 c 128,-1,27
 480 450 480 450 505.5 412 c 128,-1,28
 531 374 531 374 541 337 c 0,29,30
 547 313 547 313 547 288 c 0,31,32
 547 250 547 250 532 217 c 0,33,34
 527 202 527 202 519 202 c 128,-1,35
 511 202 511 202 503.5 216 c 128,-1,36
 496 230 496 230 496 244 c 0,37,38
 496 248 496 248 498 254 c 0,39,40
 499 261 499 261 499 274 c 0,41,42
 499 364 499 364 436 421 c 0,43,44
 389 465 389 465 345 490 c 1,45,-1
 345 268 l 1,46,-1
 344 46 l 1,47,48
 337 -7 337 -7 291.5 -42.5 c 128,-1,49
 246 -78 246 -78 192 -78 c 2,50,-1
 184 -78 l 2,0,1
EndSplineSet
Validated: 1
EndChar

StartChar: v
Encoding: 118 118 16
Width: 665
Flags: W
HStem: 644.212 20G<330.769 369.935>
VStem: 232.278 201.229<107.8 237.64>
LayerCount: 2
Fore
SplineSet
50.1416015625 34.2421875 m 1,0,1
 72.1796875 46.232421875 72.1796875 46.232421875 129.551757812 67.7138671875 c 128,-1,2
 186.922851562 89.1953125 186.922851562 89.1953125 214.38671875 107.64453125 c 1,3,4
 218.478515625 112.606445312 218.478515625 112.606445312 221.563476562 118.447265625 c 128,-1,5
 224.647460938 124.2890625 224.647460938 124.2890625 226.7890625 129.252929688 c 128,-1,6
 228.931640625 134.217773438 228.931640625 134.217773438 229.981445312 141.638671875 c 128,-1,7
 231.030273438 149.060546875 231.030273438 149.060546875 231.797851562 153.497070312 c 0,8,9
 232.278320312 156.272460938 232.278320312 156.272460938 232.278320312 160.725585938 c 0,10,11
 232.278320312 163.38671875 232.278320312 163.38671875 232.107421875 166.647460938 c 0,12,13
 231.6484375 175.361328125 231.6484375 175.361328125 231.569335938 178.982421875 c 128,-1,14
 231.490234375 182.6015625 231.490234375 182.6015625 230.048828125 192.323242188 c 128,-1,15
 228.608398438 202.043945312 228.608398438 202.043945312 228.208007812 204.561523438 c 128,-1,16
 227.807617188 207.081054688 227.807617188 207.081054688 225.913085938 217.522460938 c 128,-1,17
 224.016601562 227.962890625 224.016601562 227.962890625 223.772460938 229.337890625 c 0,18,19
 220.254882812 237.328125 220.254882812 237.328125 211.836914062 257.872070312 c 128,-1,20
 203.41796875 278.416015625 203.41796875 278.416015625 198.467773438 289.361328125 c 128,-1,21
 193.518554688 300.306640625 193.518554688 300.306640625 184.3515625 315.564453125 c 128,-1,22
 175.18359375 330.821289062 175.18359375 330.821289062 165.124023438 341.624023438 c 1,23,24
 145.978515625 378.271484375 145.978515625 378.271484375 145.978515625 404.702148438 c 0,25,26
 145.978515625 425.419921875 145.978515625 425.419921875 157.7421875 439.860351562 c 1,27,28
 157.059570312 459.659179688 157.059570312 459.659179688 157.059570312 475.416015625 c 0,29,30
 157.059570312 489.030273438 157.059570312 489.030273438 157.569335938 499.626953125 c 0,31,32
 158.66796875 522.490234375 158.66796875 522.490234375 168.65625 553.057617188 c 128,-1,33
 178.642578125 583.625976562 178.642578125 583.625976562 199.154296875 603.5390625 c 1,34,35
 245.09375 661.256835938 245.09375 661.256835938 324.905273438 664.073242188 c 0,36,37
 328.837890625 664.211914062 328.837890625 664.211914062 332.69921875 664.211914062 c 0,38,39
 407.170898438 664.211914062 407.170898438 664.211914062 454.551757812 612.547851562 c 1,40,41
 509.1875 563.18359375 509.1875 563.18359375 509.1875 459.813476562 c 0,42,43
 509.1875 453.469726562 509.1875 453.469726562 508.982421875 446.921875 c 1,44,45
 513.009765625 441.774414062 513.009765625 441.774414062 515.559570312 435.779296875 c 128,-1,46
 518.110351562 429.784179688 518.110351562 429.784179688 518.624023438 422.760742188 c 128,-1,47
 519.137695312 415.73828125 519.137695312 415.73828125 519.3515625 409.916015625 c 0,48,49
 519.373046875 409.340820312 519.373046875 409.340820312 519.373046875 408.7421875 c 0,50,51
 519.373046875 403.282226562 519.373046875 403.282226562 517.623046875 395.884765625 c 0,52,53
 515.681640625 387.674804688 515.681640625 387.674804688 514.703125 382.942382812 c 128,-1,54
 513.723632812 378.208984375 513.723632812 378.208984375 510.471679688 369.728515625 c 128,-1,55
 507.21875 361.249023438 507.21875 361.249023438 506.193359375 358.521484375 c 128,-1,56
 505.166015625 355.793945312 505.166015625 355.793945312 501.748046875 347.958984375 c 128,-1,57
 498.329101562 340.125 498.329101562 340.125 498.313476562 340.090820312 c 0,58,59
 469.111328125 278.848632812 469.111328125 278.848632812 454.409179688 234.875 c 0,60,61
 440.831054688 196.07421875 440.831054688 196.07421875 436.375976562 178.856445312 c 0,62,63
 433.5078125 167.770507812 433.5078125 167.770507812 433.5078125 155.60546875 c 0,64,65
 433.5078125 148.874023438 433.5078125 148.874023438 434.385742188 141.811523438 c 0,66,67
 436.850585938 121.987304688 436.850585938 121.987304688 451.607421875 106.127929688 c 0,68,69
 459.805664062 97.5712890625 459.805664062 97.5712890625 467.201171875 91.796875 c 128,-1,70
 474.596679688 86.021484375 474.596679688 86.021484375 489.125 78.6953125 c 128,-1,71
 503.65234375 71.369140625 503.65234375 71.369140625 515.134765625 66.376953125 c 128,-1,72
 526.618164062 61.3857421875 526.618164062 61.3857421875 557.568359375 48.1943359375 c 128,-1,73
 588.517578125 35.0029296875 588.517578125 35.0029296875 614.181640625 23.69921875 c 1,74,75
 499.924804688 -43.431640625 499.924804688 -43.431640625 410.538085938 -61.927734375 c 0,76,77
 370.783203125 -70.1533203125 370.783203125 -70.1533203125 332.3984375 -70.1533203125 c 0,78,79
 284.478515625 -70.1533203125 284.478515625 -70.1533203125 238.694335938 -57.33203125 c 0,80,81
 156.23828125 -34.2412109375 156.23828125 -34.2412109375 50.1416015625 34.2421875 c 1,0,1
365.40234375 300.029296875 m 0,82,83
 365.420898438 301.09765625 365.420898438 301.09765625 365.420898438 302.150390625 c 0,84,85
 365.420898438 321.584960938 365.420898438 321.584960938 359.0234375 335.126953125 c 0,86,87
 352.280273438 349.401367188 352.280273438 349.401367188 342.41796875 352.680664062 c 0,88,89
 337.482421875 354.321289062 337.482421875 354.321289062 332.53515625 354.321289062 c 128,-1,90
 327.594726562 354.321289062 327.594726562 354.321289062 322.641601562 352.685546875 c 0,91,92
 312.73046875 349.413085938 312.73046875 349.413085938 305.764648438 335.137695312 c 128,-1,93
 298.842773438 320.948242188 298.842773438 320.948242188 298.842773438 300.278320312 c 0,94,-1
 298.842773438 300.029296875 l 1,95,96
 298.602539062 296.282226562 298.602539062 296.282226562 298.602539062 292.77734375 c 0,97,98
 298.602539062 264.89453125 298.602539062 264.89453125 313.826171875 252.33984375 c 0,99,100
 322.435546875 245.241210938 322.435546875 245.241210938 331.177734375 245.241210938 c 128,-1,101
 339.836914062 245.241210938 339.836914062 245.241210938 348.625976562 252.206054688 c 0,102,103
 365.444335938 265.533203125 365.444335938 265.533203125 365.444335938 296.8359375 c 0,104,105
 365.444335938 298.41015625 365.444335938 298.41015625 365.40234375 300.029296875 c 0,82,83
EndSplineSet
Validated: 1
EndChar

StartChar: x
Encoding: 120 120 17
Width: 900
Flags: W
HStem: 50 205<223.282 302 598 676.718> 345 205<223.282 302 598 676.718>
VStem: 200 205<66.6885 152 448 533.312> 214 191<152 207.406 392.594 448> 495 205<66.6885 152 448 533.312> 495 191<152 207.406 392.594 448>
LayerCount: 2
Fore
SplineSet
509 300 m 5,0,1
 554 255 554 255 655 255 c 4,2,3
 668 255 668 255 677 245.5 c 132,-1,4
 686 236 686 236 686 223 c 5,5,-1
 700 81 l 6,6,7
 700 79 700 79 700 78 c 4,8,9
 700 66 700 66 691.5 58 c 132,-1,10
 683 50 683 50 672 50 c 6,11,-1
 669 50 l 5,12,-1
 527 64 l 6,13,14
 513 66 513 66 504 74.5 c 132,-1,15
 495 83 495 83 495 95 c 4,16,17
 495 196 495 196 450 241 c 5,18,19
 405 196 405 196 405 95 c 4,20,21
 405 83 405 83 396 74.5 c 132,-1,22
 387 66 387 66 373 64 c 6,23,-1
 231 50 l 5,24,-1
 228 50 l 6,25,26
 217 50 217 50 208.5 58 c 132,-1,27
 200 66 200 66 200 78 c 4,28,29
 200 79 200 79 200 81 c 6,30,-1
 214 223 l 5,31,32
 214 236 214 236 223 245.5 c 132,-1,33
 232 255 232 255 245 255 c 4,34,35
 346 255 346 255 391 300 c 5,36,37
 346 345 346 345 245 345 c 4,38,39
 232 345 232 345 223 354.5 c 132,-1,40
 214 364 214 364 214 377 c 5,41,-1
 200 519 l 6,42,43
 200 521 200 521 200 522 c 4,44,45
 200 534 200 534 208.5 542 c 132,-1,46
 217 550 217 550 228 550 c 6,47,-1
 231 550 l 5,48,-1
 373 536 l 6,49,50
 387 534 387 534 396 525.5 c 132,-1,51
 405 517 405 517 405 505 c 4,52,53
 405 404 405 404 450 359 c 5,54,55
 495 404 495 404 495 505 c 4,56,57
 495 517 495 517 504 525.5 c 132,-1,58
 513 534 513 534 527 536 c 6,59,-1
 669 550 l 5,60,-1
 672 550 l 6,61,62
 683 550 683 550 691.5 542 c 132,-1,63
 700 534 700 534 700 522 c 4,64,65
 700 521 700 521 700 519 c 6,66,-1
 686 377 l 5,67,68
 686 364 686 364 677 354.5 c 132,-1,69
 668 345 668 345 655 345 c 4,70,71
 554 345 554 345 509 300 c 5,0,1
EndSplineSet
Validated: 1
EndChar

StartChar: uniE1A7
Encoding: 57767 57767 18
Width: 1000
Flags: W
LayerCount: 2
Fore
SplineSet
117 411 m 1,0,1
 94 490 94 490 94 570 c 0,2,3
 94 608 94 608 111 642 c 128,-1,4
 128 676 128 676 158 699 c 0,5,6
 159 700 159 700 161 700 c 128,-1,7
 163 700 163 700 164 699 c 0,8,9
 189 670 189 670 207 622 c 128,-1,10
 225 574 225 574 225 537 c 0,11,12
 225 494 225 494 204 457 c 128,-1,13
 183 420 183 420 145 377 c 1,14,15
 157 337 157 337 170 284 c 1,16,-1
 173 284 l 2,17,18
 220 284 220 284 250 251 c 128,-1,19
 280 218 280 218 280 175 c 0,20,21
 280 121 280 121 235 87 c 0,22,23
 219 76 219 76 200 70 c 1,24,25
 200 68 200 68 200 62 c 128,-1,26
 200 56 200 56 200 54 c 0,27,28
 200 21 200 21 199 -4 c 0,29,30
 196 -44 196 -44 170.5 -72 c 128,-1,31
 145 -100 145 -100 108 -100 c 0,32,33
 73 -100 73 -100 48 -74.5 c 128,-1,34
 23 -49 23 -49 23 -14 c 0,35,36
 23 4 23 4 37.5 17 c 128,-1,37
 52 30 52 30 71 30 c 0,38,39
 88 30 88 30 99.5 17 c 128,-1,40
 111 4 111 4 111 -14 c 0,41,42
 111 -30 111 -30 99 -42 c 128,-1,43
 87 -54 87 -54 71 -54 c 0,44,45
 63 -54 63 -54 55 -50 c 1,46,47
 73 -83 73 -83 109 -83 c 0,48,49
 139 -83 139 -83 159.5 -59 c 128,-1,50
 180 -35 180 -35 182 -2 c 0,51,52
 183 23 183 23 183 54 c 2,53,-1
 183 67 l 1,54,55
 167 65 167 65 150 65 c 0,56,57
 91 65 91 65 50.5 111 c 128,-1,58
 10 157 10 157 10 221 c 0,59,60
 10 235 10 235 13 249.5 c 128,-1,61
 16 264 16 264 19 274.5 c 128,-1,62
 22 285 22 285 31 300 c 128,-1,63
 40 315 40 315 44 322.5 c 128,-1,64
 48 330 48 330 61.5 346.5 c 128,-1,65
 75 363 75 363 78.5 367.5 c 128,-1,66
 82 372 82 372 98 390 c 128,-1,67
 114 408 114 408 117 411 c 1,0,1
199 87 m 1,68,69
 222 94 222 94 237 114.5 c 128,-1,70
 252 135 252 135 252 158 c 0,71,72
 252 188 252 188 232.5 211.5 c 128,-1,73
 213 235 213 235 181 239 c 1,74,75
 197 162 197 162 199 87 c 1,68,69
151 81 m 0,76,77
 170 81 170 81 183 83 c 1,78,79
 181 158 181 158 163 240 c 1,80,81
 137 239 137 239 121.5 223.5 c 128,-1,82
 106 208 106 208 106 188 c 0,83,84
 106 155 106 155 141 135 c 1,85,86
 144 132 144 132 144 129 c 0,87,88
 144 121 144 121 135 121 c 0,89,90
 134 121 134 121 132 121 c 0,91,92
 83 148 83 148 83 199 c 0,93,94
 83 228 83 228 102 252 c 128,-1,95
 121 276 121 276 154 282 c 1,96,97
 150 297 150 297 131 362 c 1,98,99
 108 336 108 336 96 321 c 128,-1,100
 84 306 84 306 68.5 282.5 c 128,-1,101
 53 259 53 259 46 236 c 128,-1,102
 39 213 39 213 39 188 c 0,103,104
 39 145 39 145 73 113 c 128,-1,105
 107 81 107 81 151 81 c 0,76,77
181 640 m 1,106,107
 150 623 150 623 131.5 592 c 128,-1,108
 113 561 113 561 113 525 c 0,109,110
 113 485 113 485 130 426 c 1,111,112
 162 464 162 464 179 498 c 128,-1,113
 196 532 196 532 196 570 c 0,114,115
 196 606 196 606 181 640 c 1,106,107
149 -140 m 1,116,117
 156 -145 156 -145 158 -148 c 0,118,119
 163 -154 163 -154 163 -161 c 0,120,121
 163 -174 163 -174 153 -182 c 128,-1,122
 143 -190 143 -190 129 -190 c 0,123,124
 102 -190 102 -190 102 -170 c 0,125,126
 102 -152 102 -152 125 -143 c 1,127,128
 116 -136 116 -136 116 -125 c 0,129,130
 116 -113 116 -113 124.5 -105 c 128,-1,131
 133 -97 133 -97 145 -97 c 0,132,133
 155 -97 155 -97 162 -103 c 128,-1,134
 169 -109 169 -109 169 -117 c 0,135,136
 169 -128 169 -128 160 -134 c 0,137,138
 157 -137 157 -137 149 -140 c 1,116,117
144 -137 m 0,139,140
 145 -137 145 -137 146 -136 c 0,141,142
 159 -130 159 -130 159 -117 c 0,143,144
 159 -111 159 -111 155 -107 c 128,-1,145
 151 -103 151 -103 144 -103 c 0,146,147
 136 -103 136 -103 131 -107.5 c 128,-1,148
 126 -112 126 -112 126 -119 c 0,149,150
 126 -129 126 -129 144 -137 c 0,139,140
130 -146 m 1,151,152
 129 -147 129 -147 128 -147 c 0,153,154
 112 -154 112 -154 112 -168 c 0,155,156
 112 -184 112 -184 130 -184 c 0,157,158
 139 -184 139 -184 145.5 -179 c 128,-1,159
 152 -174 152 -174 152 -167 c 0,160,161
 152 -158 152 -158 142 -152 c 0,162,163
 138 -150 138 -150 130 -146 c 1,151,152
EndSplineSet
Validated: 1
EndChar

StartChar: o
Encoding: 111 111 19
Width: 726
VWidth: 0
Flags: W
HStem: 671.383 19.877G<96.4961 106.938 108.246 115.025 369.445 375.142 618.618 627.191>
VStem: 363.612 20.5547<115.321 221.185 391.052 484.44 615.651 669.485> 537.001 50.1006<207.178 369.194>
LayerCount: 2
Fore
SplineSet
618.061523438 691.375 m 0,0,1
 618.43359375 691.3828125 618.43359375 691.3828125 618.802734375 691.3828125 c 0,2,3
 635.579101562 691.3828125 635.579101562 691.3828125 645.211914062 675.97265625 c 0,4,5
 650.676757812 667.231445312 650.676757812 667.231445312 650.676757812 658.59765625 c 0,6,7
 650.676757812 651.6796875 650.676757812 651.6796875 647.16796875 644.831054688 c 1,8,9
 596.666015625 574.346679688 596.666015625 574.346679688 511.764648438 456.805664062 c 1,10,11
 529.700195312 435.716796875 529.700195312 435.716796875 547.221679688 409.028320312 c 0,12,13
 571.157226562 372.571289062 571.157226562 372.571289062 580.861328125 336.55859375 c 1,14,15
 587.1015625 308.849609375 587.1015625 308.849609375 587.1015625 284.764648438 c 0,16,17
 587.1015625 236.584960938 587.1015625 236.584960938 562.127929688 202.912109375 c 1,18,19
 549.045898438 205.322265625 549.045898438 205.322265625 543.040039062 215.939453125 c 128,-1,20
 537.033203125 226.556640625 537.033203125 226.556640625 537.001953125 237.762695312 c 0,21,22
 537.000976562 238.110351562 537.000976562 238.110351562 537.000976562 238.461914062 c 0,23,24
 537.000976562 249.48046875 537.000976562 249.48046875 537.94140625 265.490234375 c 0,25,26
 538.498046875 274.983398438 538.498046875 274.983398438 538.498046875 281.3515625 c 0,27,28
 538.498046875 286.064453125 538.498046875 286.064453125 538.193359375 289.065429688 c 0,29,30
 535.829101562 333.244140625 535.829101562 333.244140625 513.18359375 372.923828125 c 0,31,32
 499.876953125 396.241210938 499.876953125 396.241210938 481.748046875 415.266601562 c 1,33,34
 448.795898438 369.682617188 448.795898438 369.682617188 411.311523438 317.8984375 c 0,35,36
 407.21484375 312.237304688 407.21484375 312.237304688 403.169921875 306.649414062 c 1,37,38
 491.319335938 184.590820312 491.319335938 184.590820312 601.403320312 31.802734375 c 0,39,40
 604.916015625 25.4814453125 604.916015625 25.4814453125 625.591796875 -1.3369140625 c 128,-1,41
 646.266601562 -28.154296875 646.266601562 -28.154296875 649.65625 -45.796875 c 1,42,43
 649.975585938 -48.234375 649.975585938 -48.234375 649.975585938 -50.51953125 c 0,44,45
 649.975585938 -68.4794921875 649.975585938 -68.4794921875 630.264648438 -77.03125 c 0,46,47
 622.075195312 -80.5849609375 622.075195312 -80.5849609375 614.987304688 -80.5849609375 c 0,48,49
 602.844726562 -80.5849609375 602.844726562 -80.5849609375 593.934570312 -70.1591796875 c 1,50,51
 548.3828125 -6.3125 548.3828125 -6.3125 384.165039062 221.184570312 c 1,52,53
 384.166992188 214.55078125 384.166992188 214.55078125 384.166992188 208.1015625 c 0,54,55
 384.166992188 102.161132812 384.166992188 102.161132812 383.657226562 46.017578125 c 1,56,57
 376.368164062 -8.7744140625 376.368164062 -8.7744140625 328.3203125 -44.71875 c 0,58,59
 283.528320312 -78.2216796875 283.528320312 -78.2216796875 231.736328125 -78.2216796875 c 0,60,61
 227.961914062 -78.2216796875 227.961914062 -78.2216796875 224.151367188 -78.0439453125 c 1,62,63
 223.169921875 -78.0654296875 223.169921875 -78.0654296875 222.196289062 -78.0654296875 c 0,64,65
 184.69140625 -78.0654296875 184.69140625 -78.0654296875 158.014648438 -46.62109375 c 0,66,67
 155.5 -43.6572265625 155.5 -43.6572265625 153.313476562 -40.6513671875 c 1,68,69
 152.23046875 -42.3154296875 152.23046875 -42.3154296875 151.09375 -44.072265625 c 0,70,71
 134 -70.501953125 134 -70.501953125 119.002929688 -78.3056640625 c 1,72,73
 112.90625 -80.7109375 112.90625 -80.7109375 107.276367188 -80.7109375 c 0,74,75
 94.1640625 -80.7109375 94.1640625 -80.7109375 83.5791015625 -67.6650390625 c 0,76,77
 75.1083984375 -57.2236328125 75.1083984375 -57.2236328125 75.1083984375 -46.8837890625 c 0,78,79
 75.1083984375 -38.7548828125 75.1083984375 -38.7548828125 80.34375 -30.6875 c 0,80,81
 111.19921875 12.7607421875 111.19921875 12.7607421875 322.842773438 306.11328125 c 1,82,83
 221.720703125 446.130859375 221.720703125 446.130859375 85.1640625 635.014648438 c 1,84,85
 75.427734375 644.204101562 75.427734375 644.204101562 75.427734375 656.348632812 c 0,86,87
 75.427734375 662.856445312 75.427734375 662.856445312 78.2236328125 670.212890625 c 0,88,89
 86.20703125 691.219726562 86.20703125 691.219726562 106.78515625 691.219726562 c 0,90,-1
 106.938476562 691.21875 l 0,91,92
 107.814453125 691.259765625 107.814453125 691.259765625 108.676757812 691.259765625 c 0,93,94
 121.373046875 691.259765625 121.373046875 691.259765625 130.739257812 682.331054688 c 1,95,96
 209.267578125 574.971679688 209.267578125 574.971679688 363.17578125 362.010742188 c 1,97,98
 363.4296875 362.36328125 363.4296875 362.36328125 363.684570312 362.715820312 c 0,99,100
 363.676757812 383.043945312 363.676757812 383.043945312 363.666015625 404.995117188 c 0,101,102
 363.65234375 433.09375 363.65234375 433.09375 363.65234375 458.533203125 c 0,103,104
 363.65234375 621.088867188 363.65234375 621.088867188 364.205078125 675.037109375 c 1,105,106
 367.883789062 675.916015625 367.883789062 675.916015625 371.006835938 675.916015625 c 0,107,108
 379.27734375 675.916015625 379.27734375 675.916015625 383.657226562 669.750976562 c 0,109,110
 389.692382812 661.2578125 389.692382812 661.2578125 389.950195312 648.462890625 c 128,-1,111
 390.208007812 635.668945312 390.208007812 635.668945312 393.143554688 620.891601562 c 128,-1,112
 396.079101562 606.114257812 396.079101562 606.114257812 403.473632812 599.897460938 c 1,113,114
 418.176757812 568.310546875 418.176757812 568.310546875 446.025390625 532.905273438 c 0,115,116
 456.983398438 518.971679688 456.983398438 518.971679688 467.456054688 506.494140625 c 1,117,118
 513.354492188 570.076171875 513.354492188 570.076171875 564.62109375 641.079101562 c 0,119,120
 569.333007812 646.14453125 569.333007812 646.14453125 578.334960938 660.680664062 c 128,-1,121
 587.336914062 675.216796875 587.336914062 675.216796875 596.373046875 683.211914062 c 128,-1,122
 605.408203125 691.20703125 605.408203125 691.20703125 618.061523438 691.375 c 0,0,1
362.775390625 250.813476562 m 1,123,124
 317.891601562 188.748046875 317.891601562 188.748046875 280.4609375 136.864257812 c 1,125,126
 285.04296875 137.186523438 285.04296875 137.186523438 289.61328125 137.186523438 c 0,127,128
 313.8125 137.186523438 313.8125 137.186523438 337.665039062 128.166015625 c 1,129,130
 351.259765625 115.318359375 351.259765625 115.318359375 359.407226562 115.318359375 c 0,131,132
 364.834960938 115.318359375 364.834960938 115.318359375 364.834960938 124.345703125 c 0,133,134
 364.834960938 128.631835938 364.834960938 128.631835938 363.612304688 134.952148438 c 1,135,136
 363.697265625 169.706054688 363.697265625 169.706054688 363.704101562 249.52734375 c 0,137,138
 363.240234375 250.169921875 363.240234375 250.169921875 362.775390625 250.813476562 c 1,123,124
384.1328125 391.051757812 m 1,139,140
 407.284179688 423.1328125 407.284179688 423.1328125 432.170898438 457.610351562 c 0,141,142
 431.958007812 457.791992188 431.958007812 457.791992188 431.743164062 457.975585938 c 0,143,144
 414.577148438 472.6484375 414.577148438 472.6484375 402.509765625 479.83203125 c 0,145,146
 394.768554688 484.440429688 394.768554688 484.440429688 389.536132812 484.440429688 c 0,147,148
 386.612304688 484.440429688 386.612304688 484.440429688 384.471679688 483.001953125 c 1,149,150
 384.21484375 447.168945312 384.21484375 447.168945312 384.1328125 391.051757812 c 1,139,140
EndSplineSet
Validated: 1
EndChar

StartChar: I
Encoding: 73 73 20
Width: 327
Flags: W
HStem: -112 19<16 80.8828 249.55 313> 531 19<16 77.4453 250.954 313>
VStem: 113 102<-73.975 511.006>
LayerCount: 2
Fore
SplineSet
113 -3 m 2,0,-1
 113 441 l 2,1,2
 113 496 113 496 96.5 511.5 c 128,-1,3
 80 527 80 527 16 531 c 1,4,-1
 16 550 l 1,5,-1
 313 550 l 1,6,-1
 313 531 l 1,7,8
 250 528 250 528 232.5 512 c 128,-1,9
 215 496 215 496 215 441 c 2,10,-1
 215 -3 l 2,11,12
 215 -58 215 -58 233 -74.5 c 128,-1,13
 251 -91 251 -91 313 -93 c 1,14,-1
 313 -112 l 1,15,-1
 16 -112 l 1,16,-1
 16 -93 l 1,17,18
 79 -91 79 -91 96 -75 c 128,-1,19
 113 -59 113 -59 113 -3 c 2,0,-1
EndSplineSet
Validated: 1
EndChar

StartChar: V
Encoding: 86 86 21
Width: 701
Flags: W
LayerCount: 2
Fore
SplineSet
686.5 557 m 5,0,-1
 686.5 538 l 5,1,2
 649.5 536 649.5 536 634 520 c 132,-1,3
 618.5 504 618.5 504 594.5 445 c 6,4,-1
 372.5 -116 l 5,5,-1
 357.5 -116 l 5,6,-1
 111.5 433 l 6,7,8
 82.5 499 82.5 499 63 517.5 c 132,-1,9
 43.5 536 43.5 536 5.5 538 c 5,10,-1
 5.5 557 l 5,11,-1
 271.5 557 l 5,12,-1
 271.5 538 l 5,13,14
 243.5 536 243.5 536 242.5 536 c 4,15,16
 196.5 533 196.5 533 196.5 505 c 4,17,18
 196.5 485 196.5 485 237.5 394 c 6,19,-1
 388.5 56 l 5,20,-1
 535.5 423 l 6,21,22
 554.5 471 554.5 471 554.5 496 c 4,23,24
 554.5 517 554.5 517 538.5 526.5 c 132,-1,25
 522.5 536 522.5 536 481.5 538 c 5,26,-1
 481.5 557 l 5,27,-1
 686.5 557 l 5,0,-1
EndSplineSet
Validated: 1
EndChar

StartChar: X
Encoding: 88 88 22
Width: 714
Flags: W
LayerCount: 2
Fore
SplineSet
702 535 m 5,0,-1
 702 516 l 5,1,2
 653 513 653 513 626.5 496.5 c 132,-1,3
 600 480 600 480 553 422 c 6,4,-1
 407 240 l 5,5,-1
 599 -34 l 6,6,7
 629 -77 629 -77 649 -90 c 132,-1,8
 669 -103 669 -103 710 -108 c 5,9,-1
 710 -127 l 5,10,-1
 413 -127 l 5,11,-1
 413 -108 l 5,12,13
 454 -104 454 -104 472 -97.5 c 132,-1,14
 490 -91 490 -91 490 -77 c 4,15,16
 490 -55 490 -55 439 21 c 6,17,-1
 344 161 l 5,18,-1
 225 13 l 6,19,20
 173 -52 173 -52 173 -73 c 4,21,22
 173 -90 173 -90 189 -97.5 c 132,-1,23
 205 -105 205 -105 249 -108 c 5,24,-1
 249 -127 l 5,25,-1
 16 -127 l 5,26,-1
 16 -108 l 5,27,28
 55 -105 55 -105 76 -89 c 132,-1,29
 97 -73 97 -73 161 6 c 6,30,-1
 318 199 l 5,31,-1
 209 359 l 6,32,33
 139 462 139 462 108.5 488 c 132,-1,34
 78 514 78 514 28 516 c 5,35,-1
 28 535 l 5,36,-1
 330 535 l 5,37,-1
 330 516 l 5,38,-1
 302 515 l 6,39,40
 254 514 254 514 254 486 c 4,41,42
 254 454 254 454 339 336 c 6,43,-1
 381 277 l 5,44,-1
 494 415 l 6,45,46
 534 465 534 465 534 484 c 4,47,48
 534 501 534 501 519.5 507.5 c 132,-1,49
 505 514 505 514 464 516 c 5,50,-1
 464 535 l 5,51,-1
 702 535 l 5,0,-1
EndSplineSet
Validated: 1
EndChar

StartChar: exclam
Encoding: 33 33 23
Width: 381
Flags: W
LayerCount: 2
Fore
SplineSet
12.1191 -24.6709 m 132,-1,1
 12.1191 0.849609 12.1191 0.849609 36.2168 22.5049 c 132,-1,2
 60.3145 44.1602 60.3145 44.1602 101.781 56.7451 c 132,-1,3
 143.249 69.3291 143.249 69.3291 192.119 69.3291 c 4,4,5
 266.639 69.3291 266.639 69.3291 319.379 41.7871 c 132,-1,6
 372.119 14.2451 372.119 14.2451 372.119 -24.6709 c 132,-1,7
 372.119 -63.5869 372.119 -63.5869 319.379 -91.1289 c 132,-1,8
 266.639 -118.671 266.639 -118.671 192.119 -118.671 c 4,9,10
 143.249 -118.671 143.249 -118.671 101.781 -106.087 c 132,-1,11
 60.3145 -93.5029 60.3145 -93.5029 36.2168 -71.8477 c 132,-1,0
 12.1191 -50.1924 12.1191 -50.1924 12.1191 -24.6709 c 132,-1,1
17 607 m 0,12,13
 17 614 17 614 113 655 c 0,14,15
 220 701 220 701 267 703 c 1,16,-1
 267 188 l 2,17,18
 267 144 267 144 245 136 c 0,19,20
 234 131 234 131 218 131 c 2,21,-1
 153 131 l 2,22,23
 113 131 113 131 92 138 c 0,24,25
 80 141 80 141 80 148 c 1,26,27
 80 146 80 146 90.5 176 c 128,-1,28
 101 206 101 206 101 244 c 2,29,-1
 101 265 l 2,30,31
 101 446 101 446 59 524 c 1,32,33
 46 543 46 543 32 563 c 1,34,35
 17 587 17 587 17 607 c 0,12,13
EndSplineSet
Validated: 1
EndChar

StartChar: uniE172
Encoding: 57714 57714 24
Width: 1000
Flags: W
LayerCount: 2
Fore
SplineSet
117 411 m 1,0,1
 94 490 94 490 94 570 c 0,2,3
 94 608 94 608 111 642 c 128,-1,4
 128 676 128 676 158 699 c 0,5,6
 159 700 159 700 161 700 c 128,-1,7
 163 700 163 700 164 699 c 0,8,9
 189 670 189 670 207 622 c 128,-1,10
 225 574 225 574 225 537 c 0,11,12
 225 494 225 494 204 457 c 128,-1,13
 183 420 183 420 145 377 c 1,14,15
 157 337 157 337 170 284 c 1,16,-1
 173 284 l 2,17,18
 220 284 220 284 250 251 c 128,-1,19
 280 218 280 218 280 175 c 0,20,21
 280 121 280 121 235 87 c 0,22,23
 219 76 219 76 200 70 c 1,24,25
 200 68 200 68 200 62 c 128,-1,26
 200 56 200 56 200 54 c 0,27,28
 200 21 200 21 199 -4 c 0,29,30
 196 -44 196 -44 170.5 -72 c 128,-1,31
 145 -100 145 -100 108 -100 c 0,32,33
 73 -100 73 -100 48 -74.5 c 128,-1,34
 23 -49 23 -49 23 -14 c 0,35,36
 23 4 23 4 37.5 17 c 128,-1,37
 52 30 52 30 71 30 c 0,38,39
 88 30 88 30 99.5 17 c 128,-1,40
 111 4 111 4 111 -14 c 0,41,42
 111 -30 111 -30 99 -42 c 128,-1,43
 87 -54 87 -54 71 -54 c 0,44,45
 63 -54 63 -54 55 -50 c 1,46,47
 73 -83 73 -83 109 -83 c 0,48,49
 139 -83 139 -83 159.5 -59 c 128,-1,50
 180 -35 180 -35 182 -2 c 0,51,52
 183 23 183 23 183 54 c 2,53,-1
 183 67 l 1,54,55
 167 65 167 65 150 65 c 0,56,57
 91 65 91 65 50.5 111 c 128,-1,58
 10 157 10 157 10 221 c 0,59,60
 10 235 10 235 13 249.5 c 128,-1,61
 16 264 16 264 19 274.5 c 128,-1,62
 22 285 22 285 31 300 c 128,-1,63
 40 315 40 315 44 322.5 c 128,-1,64
 48 330 48 330 61.5 346.5 c 128,-1,65
 75 363 75 363 78.5 367.5 c 128,-1,66
 82 372 82 372 98 390 c 128,-1,67
 114 408 114 408 117 411 c 1,0,1
199 87 m 1,68,69
 222 94 222 94 237 114.5 c 128,-1,70
 252 135 252 135 252 158 c 0,71,72
 252 188 252 188 232.5 211.5 c 128,-1,73
 213 235 213 235 181 239 c 1,74,75
 197 162 197 162 199 87 c 1,68,69
151 81 m 0,76,77
 170 81 170 81 183 83 c 1,78,79
 181 158 181 158 163 240 c 1,80,81
 137 239 137 239 121.5 223.5 c 128,-1,82
 106 208 106 208 106 188 c 0,83,84
 106 155 106 155 141 135 c 1,85,86
 144 132 144 132 144 129 c 0,87,88
 144 121 144 121 135 121 c 0,89,90
 134 121 134 121 132 121 c 0,91,92
 83 148 83 148 83 199 c 0,93,94
 83 228 83 228 102 252 c 128,-1,95
 121 276 121 276 154 282 c 1,96,97
 150 297 150 297 131 362 c 1,98,99
 108 336 108 336 96 321 c 128,-1,100
 84 306 84 306 68.5 282.5 c 128,-1,101
 53 259 53 259 46 236 c 128,-1,102
 39 213 39 213 39 188 c 0,103,104
 39 145 39 145 73 113 c 128,-1,105
 107 81 107 81 151 81 c 0,76,77
181 640 m 1,106,107
 150 623 150 623 131.5 592 c 128,-1,108
 113 561 113 561 113 525 c 0,109,110
 113 485 113 485 130 426 c 1,111,112
 162 464 162 464 179 498 c 128,-1,113
 196 532 196 532 196 570 c 0,114,115
 196 606 196 606 181 640 c 1,106,107
EndSplineSet
Validated: 1
EndChar

StartChar: uniE170
Encoding: 57712 57712 25
Width: 673
Flags: W
HStem: 312.869 42.9668<252.082 282.015> 350.36 86.7744<44.0245 87.4768> 418.179 42.9658<252.082 282.015> 486.841 10.9512<83.2125 133.754>
VStem: 10.9365 89.3018<363.885 424.373> 180.694 51.3916<311.507 457.188> 245.565 42.9658<319.386 349.319 424.695 454.628>
LayerCount: 2
Fore
SplineSet
245.565 334.353 m 0,0,1
 245.565 343.199 245.565 343.199 251.884 349.517 c 128,-1,2
 258.202 355.836 258.202 355.836 267.048 355.836 c 128,-1,3
 275.894 355.836 275.894 355.836 282.213 349.517 c 128,-1,4
 288.531 343.199 288.531 343.199 288.531 334.353 c 128,-1,5
 288.531 325.506 288.531 325.506 282.213 319.188 c 128,-1,6
 275.894 312.869 275.894 312.869 267.048 312.869 c 0,7,8
 261.249 312.869 261.249 312.869 256.296 315.758 c 128,-1,9
 251.343 318.647 251.343 318.647 248.454 323.6 c 128,-1,10
 245.565 328.553 245.565 328.553 245.565 334.353 c 0,0,1
245.565 439.661 m 128,-1,12
 245.565 448.507 245.565 448.507 251.884 454.826 c 128,-1,13
 258.202 461.145 258.202 461.145 267.048 461.145 c 128,-1,14
 275.894 461.145 275.894 461.145 282.213 454.826 c 128,-1,15
 288.531 448.507 288.531 448.507 288.531 439.661 c 0,16,17
 288.531 433.862 288.531 433.862 285.642 428.91 c 128,-1,18
 282.753 423.957 282.753 423.957 277.8 421.068 c 128,-1,19
 272.847 418.179 272.847 418.179 267.048 418.179 c 0,20,21
 258.202 418.179 258.202 418.179 251.884 424.497 c 128,-1,11
 245.565 430.815 245.565 430.815 245.565 439.661 c 128,-1,12
108.663 497.792 m 0,22,23
 164.428 497.792 164.428 497.792 198.257 470.092 c 128,-1,24
 232.086 442.391 232.086 442.391 232.086 392.062 c 0,25,26
 232.086 352.4 232.086 352.4 214.033 318.076 c 128,-1,27
 195.981 283.751 195.981 283.751 162.449 256.984 c 128,-1,28
 128.916 230.216 128.916 230.216 94.5733 211.029 c 128,-1,29
 60.2302 191.842 60.2302 191.842 14.7275 172.599 c 0,30,31
 13.0443 170.914 13.0443 170.914 10.9365 170.914 c 0,32,33
 5.46094 170.914 5.46094 170.914 5.46094 176.39 c 0,34,35
 5.46094 178.496 5.46094 178.496 7.14551 180.181 c 0,36,37
 44.6294 202.077 44.6294 202.077 71.089 220.914 c 128,-1,38
 97.5486 239.75 97.5486 239.75 124.899 265.819 c 128,-1,39
 152.25 291.887 152.25 291.887 166.472 322.695 c 128,-1,40
 180.694 353.503 180.694 353.503 180.694 387.85 c 0,41,42
 180.694 427.948 180.694 427.948 161.008 457.395 c 128,-1,43
 141.321 486.841 141.321 486.841 108.663 486.841 c 0,44,45
 86.0958 486.841 86.0958 486.841 69.0666 472.174 c 128,-1,46
 52.0374 457.508 52.0374 457.508 43.793 433.765 c 1,47,48
 51.2066 437.135 51.2066 437.135 58.1152 437.135 c 0,49,50
 75.4911 437.135 75.4911 437.135 87.8647 424.761 c 128,-1,51
 100.238 412.387 100.238 412.387 100.238 395.011 c 0,52,53
 100.238 376.588 100.238 376.588 87.9761 363.474 c 128,-1,54
 75.7139 350.36 75.7139 350.36 58.1152 350.36 c 0,55,56
 45.63 350.36 45.63 350.36 34.7744 356.278 c 128,-1,57
 23.9189 362.195 23.9189 362.195 17.4277 372.525 c 128,-1,58
 10.9365 382.854 10.9365 382.854 10.9365 395.011 c 0,59,60
 10.9365 437.301 10.9365 437.301 39.3927 467.547 c 128,-1,61
 67.8488 497.792 67.8488 497.792 108.663 497.792 c 0,22,23
EndSplineSet
Validated: 1
EndChar

StartChar: uniE16E
Encoding: 57710 57710 26
Width: 679
Flags: W
LayerCount: 2
Fore
SplineSet
140.51 280.568 m 128,-1,1
 140.51 249.945 140.51 249.945 159.387 249.945 c 0,2,3
 165.365 249.945 165.365 249.945 177.531 256.447 c 128,-1,4
 189.696 262.949 189.696 262.949 196.303 262.949 c 0,5,6
 235.591 262.949 235.591 262.949 263.98 237.781 c 128,-1,7
 292.369 212.612 292.369 212.612 292.369 175.693 c 0,8,9
 292.369 70.8184 292.369 70.8184 181.201 70.8184 c 0,10,11
 154.816 70.8184 154.816 70.8184 136.126 87.9855 c 128,-1,12
 117.437 105.153 117.437 105.153 117.437 130.388 c 0,13,14
 117.437 143.642 117.437 143.642 126.79 153.166 c 128,-1,15
 136.144 162.689 136.144 162.689 149.318 162.689 c 128,-1,16
 162.493 162.689 162.493 162.689 171.847 153.166 c 128,-1,17
 181.201 143.642 181.201 143.642 181.201 130.388 c 0,18,19
 181.201 122.207 181.201 122.207 170.923 114.446 c 128,-1,20
 160.646 106.686 160.646 106.686 160.646 98.5059 c 0,21,22
 160.646 91.5232 160.646 91.5232 166.815 87.0438 c 128,-1,23
 172.985 82.5645 172.985 82.5645 181.201 82.5645 c 0,24,25
 215.253 82.5645 215.253 82.5645 227.592 106.038 c 128,-1,26
 239.931 129.512 239.931 129.512 239.931 175.693 c 0,27,28
 239.931 214.049 239.931 214.049 231.447 232.627 c 128,-1,29
 222.963 251.204 222.963 251.204 196.303 251.204 c 0,30,31
 185.291 251.204 185.291 251.204 175.813 246.036 c 128,-1,32
 166.335 240.867 166.335 240.867 159.964 232.225 c 128,-1,33
 153.593 223.582 153.593 223.582 149.988 212.266 c 128,-1,34
 146.383 200.949 146.383 200.949 146.383 188.698 c 0,35,36
 146.383 182.825 146.383 182.825 140.51 182.825 c 0,37,38
 135.056 182.825 135.056 182.825 135.056 188.698 c 0,39,40
 135.056 237.36 135.056 237.36 99.8174 272.599 c 1,41,-1
 99.8174 75.0137 l 2,42,43
 99.8174 70.8184 99.8174 70.8184 95.623 70.8184 c 2,44,-1
 86.8135 70.8184 l 2,45,46
 82.6182 70.8184 82.6182 70.8184 82.6182 75.0137 c 2,47,-1
 82.6182 486.124 l 2,48,49
 82.6182 490.319 82.6182 490.319 86.8135 490.319 c 2,50,-1
 95.623 490.319 l 2,51,52
 99.8174 490.319 99.8174 490.319 99.8174 486.124 c 2,53,-1
 99.8174 288.539 l 1,54,55
 135.056 323.776 135.056 323.776 135.056 372.439 c 0,56,57
 135.056 378.312 135.056 378.312 140.51 378.312 c 0,58,59
 146.383 378.312 146.383 378.312 146.383 372.439 c 0,60,61
 146.383 346.985 146.383 346.985 160.361 328.459 c 128,-1,62
 174.339 309.934 174.339 309.934 196.303 309.934 c 0,63,64
 222.963 309.934 222.963 309.934 231.447 328.511 c 128,-1,65
 239.931 347.088 239.931 347.088 239.931 385.444 c 0,66,67
 239.931 415.717 239.931 415.717 235.624 434.753 c 128,-1,68
 231.318 453.788 231.318 453.788 217.949 466.181 c 128,-1,69
 204.58 478.573 204.58 478.573 181.201 478.573 c 0,70,71
 172.985 478.573 172.985 478.573 166.815 474.094 c 128,-1,72
 160.646 469.614 160.646 469.614 160.646 462.632 c 0,73,74
 160.646 454.452 160.646 454.452 170.923 446.691 c 128,-1,75
 181.201 438.93 181.201 438.93 181.201 430.75 c 0,76,77
 181.201 417.496 181.201 417.496 171.847 407.972 c 128,-1,78
 162.493 398.448 162.493 398.448 149.318 398.448 c 128,-1,79
 136.144 398.448 136.144 398.448 126.79 407.972 c 128,-1,80
 117.437 417.496 117.437 417.496 117.437 430.75 c 0,81,82
 117.437 455.985 117.437 455.985 136.126 473.152 c 128,-1,83
 154.816 490.319 154.816 490.319 181.201 490.319 c 0,84,85
 292.369 490.319 292.369 490.319 292.369 385.444 c 0,86,87
 292.369 348.526 292.369 348.526 263.98 323.357 c 128,-1,88
 235.59 298.188 235.59 298.188 196.303 298.188 c 0,89,90
 189.696 298.188 189.696 298.188 177.531 304.69 c 128,-1,91
 165.365 311.192 165.365 311.192 159.387 311.192 c 0,92,0
 140.51 311.192 140.51 311.192 140.51 280.568 c 128,-1,1
61.2236 70.8184 m 2,93,-1
 11.3027 70.8184 l 2,94,95
 7.1084 70.8184 7.1084 70.8184 7.1084 75.0137 c 2,96,-1
 7.1084 486.124 l 2,97,98
 7.1084 490.319 7.1084 490.319 11.3027 490.319 c 2,99,-1
 61.2236 490.319 l 2,100,101
 65.4189 490.319 65.4189 490.319 65.4189 486.124 c 2,102,-1
 65.4189 75.0137 l 2,103,104
 65.4189 70.8184 65.4189 70.8184 61.2236 70.8184 c 2,93,-1
EndSplineSet
Validated: 1
EndChar

StartChar: uniE173
Encoding: 57715 57715 27
Width: 1000
Flags: W
HStem: -190 6<117.922 142.345> -103 6<133.109 153.766> -100 17<77.4424 141.211> -54 84<55.25 99.1393> 65 16<109.742 183>
VStem: 10 29<151.318 255.574> 23 88<-49.4401 16.5925> 83 23<155.509 218.699> 94 19<468.552 573.353> 102 10<-180.179 -155.479> 116 10<-128.883 -108.969> 152 11<-177.393 -155.438> 159 10<-130.237 -106.625> 183 17<-34.5195 67 87 176.768> 196 29<503.829 611.838> 252 28<121.77 203.689>
LayerCount: 2
Fore
SplineSet
117 411 m 1,0,1
 94 490 94 490 94 570 c 0,2,3
 94 608 94 608 111 642 c 128,-1,4
 128 676 128 676 158 699 c 0,5,6
 159 700 159 700 161 700 c 128,-1,7
 163 700 163 700 164 699 c 0,8,9
 189 670 189 670 207 622 c 128,-1,10
 225 574 225 574 225 537 c 0,11,12
 225 494 225 494 204 457 c 128,-1,13
 183 420 183 420 145 377 c 1,14,15
 157 337 157 337 170 284 c 1,16,-1
 173 284 l 2,17,18
 220 284 220 284 250 251 c 128,-1,19
 280 218 280 218 280 175 c 0,20,21
 280 121 280 121 235 87 c 0,22,23
 219 76 219 76 200 70 c 1,24,25
 200 68 200 68 200 62 c 128,-1,26
 200 56 200 56 200 54 c 0,27,28
 200 21 200 21 199 -4 c 0,29,30
 196 -44 196 -44 170.5 -72 c 128,-1,31
 145 -100 145 -100 108 -100 c 0,32,33
 73 -100 73 -100 48 -74.5 c 128,-1,34
 23 -49 23 -49 23 -14 c 0,35,36
 23 4 23 4 37.5 17 c 128,-1,37
 52 30 52 30 71 30 c 0,38,39
 88 30 88 30 99.5 17 c 128,-1,40
 111 4 111 4 111 -14 c 0,41,42
 111 -30 111 -30 99 -42 c 128,-1,43
 87 -54 87 -54 71 -54 c 0,44,45
 63 -54 63 -54 55 -50 c 1,46,47
 73 -83 73 -83 109 -83 c 0,48,49
 139 -83 139 -83 159.5 -59 c 128,-1,50
 180 -35 180 -35 182 -2 c 0,51,52
 183 23 183 23 183 54 c 2,53,-1
 183 67 l 1,54,55
 167 65 167 65 150 65 c 0,56,57
 91 65 91 65 50.5 111 c 128,-1,58
 10 157 10 157 10 221 c 0,59,60
 10 235 10 235 13 249.5 c 128,-1,61
 16 264 16 264 19 274.5 c 128,-1,62
 22 285 22 285 31 300 c 128,-1,63
 40 315 40 315 44 322.5 c 128,-1,64
 48 330 48 330 61.5 346.5 c 128,-1,65
 75 363 75 363 78.5 367.5 c 128,-1,66
 82 372 82 372 98 390 c 128,-1,67
 114 408 114 408 117 411 c 1,0,1
199 87 m 1,68,69
 222 94 222 94 237 114.5 c 128,-1,70
 252 135 252 135 252 158 c 0,71,72
 252 188 252 188 232.5 211.5 c 128,-1,73
 213 235 213 235 181 239 c 1,74,75
 197 162 197 162 199 87 c 1,68,69
151 81 m 0,76,77
 170 81 170 81 183 83 c 1,78,79
 181 158 181 158 163 240 c 1,80,81
 137 239 137 239 121.5 223.5 c 128,-1,82
 106 208 106 208 106 188 c 0,83,84
 106 155 106 155 141 135 c 1,85,86
 144 132 144 132 144 129 c 0,87,88
 144 121 144 121 135 121 c 0,89,90
 134 121 134 121 132 121 c 0,91,92
 83 148 83 148 83 199 c 0,93,94
 83 228 83 228 102 252 c 128,-1,95
 121 276 121 276 154 282 c 1,96,97
 150 297 150 297 131 362 c 1,98,99
 108 336 108 336 96 321 c 128,-1,100
 84 306 84 306 68.5 282.5 c 128,-1,101
 53 259 53 259 46 236 c 128,-1,102
 39 213 39 213 39 188 c 0,103,104
 39 145 39 145 73 113 c 128,-1,105
 107 81 107 81 151 81 c 0,76,77
181 640 m 1,106,107
 150 623 150 623 131.5 592 c 128,-1,108
 113 561 113 561 113 525 c 0,109,110
 113 485 113 485 130 426 c 1,111,112
 162 464 162 464 179 498 c 128,-1,113
 196 532 196 532 196 570 c 0,114,115
 196 606 196 606 181 640 c 1,106,107
149 -140 m 1,116,117
 156 -145 156 -145 158 -148 c 0,118,119
 163 -154 163 -154 163 -161 c 0,120,121
 163 -174 163 -174 153 -182 c 128,-1,122
 143 -190 143 -190 129 -190 c 0,123,124
 102 -190 102 -190 102 -170 c 0,125,126
 102 -152 102 -152 125 -143 c 1,127,128
 116 -136 116 -136 116 -125 c 0,129,130
 116 -113 116 -113 124.5 -105 c 128,-1,131
 133 -97 133 -97 145 -97 c 0,132,133
 155 -97 155 -97 162 -103 c 128,-1,134
 169 -109 169 -109 169 -117 c 0,135,136
 169 -128 169 -128 160 -134 c 0,137,138
 157 -137 157 -137 149 -140 c 1,116,117
144 -137 m 0,139,140
 145 -137 145 -137 146 -136 c 0,141,142
 159 -130 159 -130 159 -117 c 0,143,144
 159 -111 159 -111 155 -107 c 128,-1,145
 151 -103 151 -103 144 -103 c 0,146,147
 136 -103 136 -103 131 -107.5 c 128,-1,148
 126 -112 126 -112 126 -119 c 0,149,150
 126 -129 126 -129 144 -137 c 0,139,140
130 -146 m 1,151,152
 129 -147 129 -147 128 -147 c 0,153,154
 112 -154 112 -154 112 -168 c 0,155,156
 112 -184 112 -184 130 -184 c 0,157,158
 139 -184 139 -184 145.5 -179 c 128,-1,159
 152 -174 152 -174 152 -167 c 0,160,161
 152 -158 152 -158 142 -152 c 0,162,163
 138 -150 138 -150 130 -146 c 1,151,152
EndSplineSet
Validated: 1
EndChar

StartChar: uniE171
Encoding: 57713 57713 28
Width: 673
Flags: W
HStem: 39.0674 6.2373<142.532 164.622> 312.869 42.9668<252.082 282.015> 350.36 86.7744<44.0245 87.4768> 418.179 42.9658<252.082 282.015> 486.841 10.9512<83.2125 133.754>
VStem: 10.9365 89.3018<363.885 424.373> 106.624 68.458<-49.5135 -7.86131> 121.998 11.6035<9.74937 31.9524> 171.021 10.8779<8.11403 35.1384> 180.694 51.3916<311.507 457.188> 245.565 42.9658<319.386 349.319 424.695 454.628>
LayerCount: 2
Fore
SplineSet
245.565 334.353 m 0,0,1
 245.565 343.199 245.565 343.199 251.884 349.517 c 128,-1,2
 258.202 355.836 258.202 355.836 267.048 355.836 c 128,-1,3
 275.894 355.836 275.894 355.836 282.213 349.517 c 128,-1,4
 288.531 343.199 288.531 343.199 288.531 334.353 c 128,-1,5
 288.531 325.506 288.531 325.506 282.213 319.188 c 128,-1,6
 275.894 312.869 275.894 312.869 267.048 312.869 c 0,7,8
 261.249 312.869 261.249 312.869 256.296 315.758 c 128,-1,9
 251.343 318.647 251.343 318.647 248.454 323.6 c 128,-1,10
 245.565 328.553 245.565 328.553 245.565 334.353 c 0,0,1
245.565 439.661 m 128,-1,12
 245.565 448.507 245.565 448.507 251.884 454.826 c 128,-1,13
 258.202 461.145 258.202 461.145 267.048 461.145 c 128,-1,14
 275.894 461.145 275.894 461.145 282.213 454.826 c 128,-1,15
 288.531 448.507 288.531 448.507 288.531 439.661 c 0,16,17
 288.531 433.862 288.531 433.862 285.642 428.91 c 128,-1,18
 282.753 423.957 282.753 423.957 277.8 421.068 c 128,-1,19
 272.847 418.179 272.847 418.179 267.048 418.179 c 0,20,21
 258.202 418.179 258.202 418.179 251.884 424.497 c 128,-1,11
 245.565 430.815 245.565 430.815 245.565 439.661 c 128,-1,12
108.663 497.792 m 0,22,23
 164.428 497.792 164.428 497.792 198.257 470.092 c 128,-1,24
 232.086 442.391 232.086 442.391 232.086 392.062 c 0,25,26
 232.086 352.4 232.086 352.4 214.033 318.076 c 128,-1,27
 195.981 283.751 195.981 283.751 162.449 256.984 c 128,-1,28
 128.916 230.216 128.916 230.216 94.5733 211.029 c 128,-1,29
 60.2302 191.842 60.2302 191.842 14.7275 172.599 c 0,30,31
 13.0443 170.914 13.0443 170.914 10.9365 170.914 c 0,32,33
 5.46094 170.914 5.46094 170.914 5.46094 176.39 c 0,34,35
 5.46094 178.496 5.46094 178.496 7.14551 180.181 c 0,36,37
 44.6294 202.077 44.6294 202.077 71.089 220.914 c 128,-1,38
 97.5486 239.75 97.5486 239.75 124.899 265.819 c 128,-1,39
 152.25 291.887 152.25 291.887 166.472 322.695 c 128,-1,40
 180.694 353.503 180.694 353.503 180.694 387.85 c 0,41,42
 180.694 427.948 180.694 427.948 161.008 457.395 c 128,-1,43
 141.321 486.841 141.321 486.841 108.663 486.841 c 0,44,45
 86.0958 486.841 86.0958 486.841 69.0666 472.174 c 128,-1,46
 52.0374 457.508 52.0374 457.508 43.793 433.765 c 1,47,48
 51.2066 437.135 51.2066 437.135 58.1152 437.135 c 0,49,50
 75.4911 437.135 75.4911 437.135 87.8647 424.761 c 128,-1,51
 100.238 412.387 100.238 412.387 100.238 395.011 c 0,52,53
 100.238 376.588 100.238 376.588 87.9761 363.474 c 128,-1,54
 75.7139 350.36 75.7139 350.36 58.1152 350.36 c 0,55,56
 45.63 350.36 45.63 350.36 34.7744 356.278 c 128,-1,57
 23.9189 362.195 23.9189 362.195 17.4277 372.525 c 128,-1,58
 10.9365 382.854 10.9365 382.854 10.9365 395.011 c 0,59,60
 10.9365 437.301 10.9365 437.301 39.3927 467.547 c 128,-1,61
 67.8488 497.792 67.8488 497.792 108.663 497.792 c 0,22,23
159.998 -3.1377 m 1,62,63
 167.27 -7.85542 167.27 -7.85542 170.15 -11.6953 c 0,64,65
 175.082 -18.4197 175.082 -18.4197 175.082 -26.4893 c 0,66,67
 175.082 -40.6255 175.082 -40.6255 164.261 -49.8015 c 128,-1,68
 153.44 -58.9775 153.44 -58.9775 136.792 -58.9775 c 0,69,70
 122.89 -58.9775 122.89 -58.9775 114.757 -52.8214 c 128,-1,71
 106.624 -46.6653 106.624 -46.6653 106.624 -36.207 c 0,72,73
 106.624 -15.906 106.624 -15.906 132.876 -5.89355 c 1,74,75
 121.998 1.96243 121.998 1.96243 121.998 14.2666 c 0,76,77
 121.998 22.8428 121.998 22.8428 126.367 29.9716 c 128,-1,78
 130.736 37.1004 130.736 37.1004 138.37 41.2025 c 128,-1,79
 146.004 45.3047 146.004 45.3047 155.212 45.3047 c 0,80,81
 166.859 45.3047 166.859 45.3047 174.379 38.9374 c 128,-1,82
 181.898 32.5702 181.898 32.5702 181.898 22.6787 c 0,83,84
 181.898 11.1711 181.898 11.1711 172.326 3.82324 c 0,85,86
 168.769 1.0564 168.769 1.0564 159.998 -3.1377 c 1,62,63
153.762 0.197266 m 1,87,88
 155.005 0.944514 155.005 0.944514 156.082 1.21289 c 0,89,90
 171.021 8.07117 171.021 8.07117 171.021 23.5488 c 0,91,92
 171.021 27.9895 171.021 27.9895 168.849 31.536 c 128,-1,93
 166.678 35.0826 166.678 35.0826 162.798 37.075 c 128,-1,94
 158.918 39.0674 158.918 39.0674 154.052 39.0674 c 0,95,96
 145.568 39.0674 145.568 39.0674 139.585 33.8469 c 128,-1,97
 133.602 28.6264 133.602 28.6264 133.602 21.2285 c 0,98,99
 133.602 9.97832 133.602 9.97832 153.762 0.197266 c 1,87,88
138.388 -9.80957 m 4,100,101
 135.632 -10.9697 l 4,102,103
 118.372 -18.4336 118.372 -18.4336 118.372 -34.4658 c 4,104,105
 118.372 -52.5957 118.372 -52.5957 138.388 -52.5957 c 4,106,107
 145.098 -52.5957 145.098 -52.5957 150.629 -50.0165 c 132,-1,108
 156.159 -47.4373 156.159 -47.4373 159.311 -42.9438 c 132,-1,109
 162.464 -38.4502 162.464 -38.4502 162.464 -33.0156 c 4,110,111
 162.464 -23.0368 162.464 -23.0368 151.296 -16.3369 c 4,112,113
 147.627 -14.1353 147.627 -14.1353 138.388 -9.80957 c 4,100,101
EndSplineSet
Validated: 1
EndChar

StartChar: equal
Encoding: 61 61 29
Width: 1155
Flags: W
LayerCount: 2
Fore
SplineSet
215.5 482.42 m 1,0,-1
 938.43 482.42 l 1,1,-1
 938.43 436.5001 l 1,2,-1
 215.5 436.5001 l 1,3,-1
 215.5 482.42 l 1,0,-1
215.5 299.859 m 1,4,-1
 938.43 299.859 l 1,5,-1
 938.43 253.9391 l 1,6,-1
 215.5 253.9391 l 1,7,-1
 215.5 299.859 l 1,4,-1
EndSplineSet
Validated: 1
EndChar

StartChar: N
Encoding: 78 78 30
Width: 460
Flags: W
LayerCount: 2
Fore
SplineSet
277.025 685.551 m 0,0,1
 311.3814 685.551 311.3814 685.551 335.5357 668.3196 c 128,-1,2
 359.691 651.0882 359.691 651.0882 359.691 617.844 c 0,3,4
 359.691 548.5295 359.691 548.5295 277.8121 499.749 c 0,5,6
 231.4342 471.4072 231.4342 471.4072 183.3365 471.4072 c 0,7,8
 148.9801 471.4072 148.9801 471.4072 124.8258 488.6386 c 0,9,10
 122.24475 490.4804 122.24475 490.4804 119.93908 492.50481 c 1,11,-1
 119.93908 97.77381 l 1,12,13
 155.03478 118.33531 155.03478 118.33531 182.09138 137.36561 c 128,-1,14
 209.14898 156.39591 209.14898 156.39591 238.72808 182.91931 c 128,-1,15
 268.30618 209.44181 268.30618 209.44181 284.66168 239.91051 c 128,-1,16
 301.01618 270.38021 301.01618 270.38021 301.01618 301.68301 c 0,17,18
 301.01618 365.29821 301.01618 365.29821 269.52498 430.79901 c 1,19,20
 268.39803 436.43378 268.39803 436.43378 270.6451 441.06461 c 128,-1,21
 272.89119 445.69645 272.89119 445.69645 277.06502 448.08902 c 128,-1,22
 281.23885 450.4816 281.23885 450.4816 286.05818 450.4816 c 0,23,24
 294.94295 450.4816 294.94295 450.4816 299.44198 442.60855 c 0,25,26
 331.72128 370.30285 331.72128 370.30285 331.72128 301.68255 c 0,27,28
 331.72128 257.51555 331.72128 257.51555 309.90778 214.67375 c 128,-1,29
 288.09428 171.83195 288.09428 171.83195 256.96248 136.57415 c 128,-1,30
 225.82968 101.31635 225.82968 101.31635 194.69788 66.05755 c 128,-1,31
 163.56608 30.79975 163.56608 30.79975 141.75258 -12.04105 c 128,-1,32
 119.93908 -54.88285 119.93908 -54.88285 119.93908 -99.04985 c 2,33,-1
 119.93908 -105.18266 l 1,34,-1
 100.68418 -105.18266 l 1,35,-1
 100.68418 539.07634 l 1,36,-1
 100.68418 539.1144259 l 1,37,-1
 100.68418 539.1368868 l 1,38,-1
 100.68418 539.7501678 l 1,39,-1
 100.68613313 539.7501678 l 1,40,41
 101.05918013 608.1886678 101.05918013 608.1886678 183.33653313 657.2081678 c 0,42,43
 229.71643313 685.5509678 229.71643313 685.5509678 277.025 685.551 c 0,0,1
EndSplineSet
Validated: 1
EndChar

StartChar: c
Encoding: 99 99 31
Width: 813
Flags: W
HStem: 5.551 24<106.869 706.255> 106.039 40.9085<179.408 306.111 523.958 626.91> 325.975 39.4608<528.58 623.115> 404.899 40.9079<179.646 306.429> 518.926 24<106.869 706.255>
VStem: 54.1715 24<58.2489 490.228> 132.081 46.6819<147.205 404.642> 356.346 49.5679<194.118 357.062> 458.318 46.6812<165.679 302.314> 646.489 46.6819<165.682 302.426> 734.952 24<58.2489 490.228>
LayerCount: 2
Fore
SplineSet
144.484 542.926 m 6,0,-1
 668.64 542.926 l 6,1,2
 706.0111 542.926 706.0111 542.926 732.4818 516.4553 c 132,-1,3
 758.9525 489.9846 758.9525 489.9846 758.9525 452.6135 c 6,4,-1
 758.9525 95.8635 l 6,5,6
 758.9525 58.4924 758.9525 58.4924 732.4818 32.0217 c 132,-1,7
 706.0111 5.551 706.0111 5.551 668.64 5.551 c 6,8,-1
 144.484 5.551 l 6,9,10
 107.1129 5.551 107.1129 5.551 80.6422 32.0217 c 132,-1,11
 54.1715 58.4924 54.1715 58.4924 54.1715 95.8635 c 6,12,-1
 54.1715 452.6135 l 6,13,14
 54.1715 489.9846 54.1715 489.9846 80.6422 516.4553 c 132,-1,15
 107.1129 542.926 107.1129 542.926 144.484 542.926 c 6,0,-1
144.484 518.926 m 4,16,17
 116.7731 518.926 116.7731 518.926 97.4723 499.6252 c 132,-1,18
 78.1715 480.3244 78.1715 480.3244 78.1715 452.6135 c 6,19,-1
 78.1715 95.8635 l 6,20,21
 78.1715 68.1526 78.1715 68.1526 97.4723 48.8518 c 132,-1,22
 116.7731 29.551 116.7731 29.551 144.484 29.551 c 6,23,-1
 668.64 29.551 l 6,24,25
 696.3509 29.551 696.3509 29.551 715.6517 48.8518 c 132,-1,26
 734.9525 68.1526 734.9525 68.1526 734.9525 95.8635 c 6,27,-1
 734.9525 452.6135 l 6,28,29
 734.9525 480.3244 734.9525 480.3244 715.6517 499.6252 c 132,-1,30
 696.3509 518.926 696.3509 518.926 668.64 518.926 c 6,31,-1
 144.484 518.926 l 4,16,17
132.081 437.625 m 5,32,33
 165.6328 445.80664 165.6328 445.80664 213.5849 445.80664 c 4,34,35
 352.8139 445.80664 352.8139 445.80664 392.4389 350.99804 c 4,36,37
 405.9135 319.23634 405.9135 319.23634 405.9135 275.92384 c 4,38,39
 405.9135 148.74584 405.9135 148.74584 295.7065 116.14684 c 4,40,41
 261.5376 106.03944 261.5376 106.03944 213.5835 106.03944 c 132,-1,42
 165.6284 106.04139312 165.6284 106.04139312 132.0806 114.22108 c 5,43,-1
 132.0806 437.62508 l 5,44,-1
 132.081 437.625 l 5,32,33
323.62 180.635 m 5,45,46
 356.3446 214.803 356.3446 214.803 356.3456 275.9241 c 132,-1,47
 356.34364688 337.0432 356.34364688 337.0432 323.619 370.971 c 132,-1,48
 290.894449573 404.8987 290.894449573 404.8987 224.481691495 404.8987 c 0,49,-1
 224.4813 404.8987 l 4,50,51
 191.7645 404.8987 191.7645 404.8987 178.7625 403.45534 c 5,52,-1
 178.7625 148.39134 l 5,53,54
 191.7439 146.94798 191.7439 146.94798 224.3934 146.94798 c 4,55,56
 290.8963 146.94993312 290.8963 146.94993312 323.62 180.63548 c 5,57,-1
 323.62 180.635 l 5,45,46
491.044 329.342 m 4,58,59
 524.1329 365.4358 524.1329 365.4358 576.0059 365.4358 c 132,-1,60
 627.8799 365.4358 627.8799 365.4358 660.5254 329.2776 c 132,-1,61
 693.1709 293.1194 693.1709 293.1194 693.1709 234.0549 c 132,-1,62
 693.1709 174.9904 693.1709 174.9904 660.5264 138.8303 c 132,-1,63
 627.8819 102.6721 627.8819 102.6721 575.7452 102.6721 c 4,64,65
 524.1309 102.6721 524.1309 102.6721 491.044 138.7659 c 4,66,67
 458.3184 175.5862 458.3184 175.5862 458.3184 234.055 c 132,-1,68
 458.3184 292.5277 458.3184 292.5277 491.044 329.342 c 4,58,59
646.489 234.055 m 132,-1,70
 646.489 276.4046 646.489 276.4046 627.4802 301.1898 c 132,-1,71
 608.4704 325.973 608.4704 325.973 575.7448 325.975 c 132,-1,72
 543.0192 325.97304688 543.0192 325.97304688 524.0094 301.1879 c 132,-1,73
 504.9996 276.4047 504.9996 276.4047 504.9996 234.0531 c 132,-1,74
 504.9996 191.7035 504.9996 191.7035 523.7691 166.6781 c 4,75,76
 543.0191 142.1351 543.0191 142.1351 575.7447 142.1351 c 132,-1,77
 608.4693 142.1351 608.4693 142.1351 627.4781 166.9183 c 132,-1,69
 646.4879 191.7035 646.4879 191.7035 646.489 234.055 c 132,-1,70
EndSplineSet
Validated: 1
EndChar

StartChar: s
Encoding: 115 115 32
Width: 1018
Flags: W
HStem: -87.9775 20.7949<280.318 345.715> -45.5898 79.5771<267.482 299.54> 43 24<50 379.967 400.943 513.448 706.157 966> 68.3779 20.7949<304.366 379.351> 151 24<50 216.747 249.461 279.119 323.89 370.258 394.97 438.033 470.119 542.432 726.022 966> 234.73 42.2695<320.643 345.435> 253 24<52 217.336 273.771 293.387 437.84 708.19 726.141 860.74 894.4 968> 351 24<50 265.614 344.793 708.188 726.078 853.769 901.606 966> 455 24<50 277.78 306.778 338.542 397.714 708.161 726.271 766.933 856.409 966> 655.001 20G<329.962 337.655 715.348 721.296>
VStem: 212.198 32.3906<175.561 248.748> 228.193 82.7754<-34.0778 21.315> 270.978 23.9951<479 554.382> 274.979 31.1924<175 220.351> 380.149 20.7939<-24.0253 43 67 70.7764 97.991 151> 439.307 28.3281<118.061 151> 512.291 213.414<67.7011 140.974> 708.104 17.9189<175.308 253 277 351 375 455 479 506.419 619.828 670.594> 861.936 41.3828<277.733 351>
LayerCount: 2
Fore
SplineSet
357.35546875 609.421875 m 1,0,1
 328.510742188 592.897460938 328.510742188 592.897460938 311.7421875 563.940429688 c 128,-1,2
 294.97265625 534.983398438 294.97265625 534.983398438 294.97265625 501.454101562 c 0,3,4
 294.97265625 494.534179688 294.97265625 494.534179688 299.288085938 479 c 1,5,-1
 351.138671875 479 l 1,6,7
 372.150390625 523.51171875 372.150390625 523.51171875 372.151367188 561.8359375 c 0,8,9
 372.151367188 587.72265625 372.151367188 587.72265625 357.35546875 609.421875 c 1,0,1
332.962890625 122.361328125 m 0,10,11
 327.079101562 122.361328125 327.079101562 122.361328125 314.330078125 129.956054688 c 0,12,13
 303.623046875 136.33203125 303.623046875 136.33203125 292.5234375 151 c 1,14,-1
 249.4609375 151 l 1,15,16
 257.362304688 131.25390625 257.362304688 131.25390625 278.075195312 115.171875 c 0,17,18
 311.5625 89.1728515625 311.5625 89.1728515625 352.157226562 89.1728515625 c 0,19,20
 368.354492188 89.1728515625 368.354492188 89.1728515625 379.350585938 91.171875 c 1,21,22
 377.922851562 120.533203125 377.922851562 120.533203125 373.848632812 151 c 1,23,-1
 323.889648438 151 l 1,24,25
 330.567382812 145.354492188 330.567382812 145.354492188 339.760742188 140.7578125 c 1,26,27
 343.359375 137.159179688 343.359375 137.159179688 343.359375 133.16015625 c 0,28,-1
 343.359375 133.158203125 l 0,29,30
 343.359375 130.399414062 343.359375 130.399414062 341.943359375 127.903320312 c 128,-1,31
 340.526367188 125.40625 340.526367188 125.40625 338.111328125 123.884765625 c 128,-1,32
 335.696289062 122.361328125 335.696289062 122.361328125 332.962890625 122.361328125 c 0,10,11
400.143554688 97.1689453125 m 1,33,34
 416.9296875 104.592773438 416.9296875 104.592773438 428.329101562 121.071289062 c 0,35,36
 437.530273438 134.368164062 437.530273438 134.368164062 439.306640625 151 c 1,37,-1
 394.969726562 151 l 1,38,39
 398.596679688 123.465820312 398.596679688 123.465820312 400.143554688 97.1689453125 c 1,33,34
585.889648438 8.5966796875 m 0,40,41
 556.756835938 8.689453125 556.756835938 8.689453125 534.0546875 29.4345703125 c 0,42,43
 527.259765625 35.64453125 527.259765625 35.64453125 522.5859375 43 c 1,44,-1
 400.7734375 43 l 1,45,46
 400.360351562 22.7412109375 400.360351562 22.7412109375 398.943359375 6.794921875 c 0,47,48
 395.500976562 -32.330078125 395.500976562 -32.330078125 372.061523438 -60.154296875 c 128,-1,49
 348.622070312 -87.9775390625 348.622070312 -87.9775390625 314.16796875 -87.9775390625 c 0,50,51
 278.809570312 -87.9775390625 278.809570312 -87.9775390625 253.500976562 -64.609375 c 128,-1,52
 228.193359375 -41.2431640625 228.193359375 -41.2431640625 228.193359375 -7.603515625 c 0,53,-1
 228.193359375 -7.6005859375 l 0,54,55
 228.193359375 9.576171875 228.193359375 9.576171875 241.619140625 21.7822265625 c 128,-1,56
 255.043945312 33.9873046875 255.043945312 33.9873046875 272.98046875 33.9873046875 c 0,57,58
 288.98046875 33.9873046875 288.98046875 33.9873046875 299.974609375 21.7001953125 c 128,-1,59
 310.967773438 9.412109375 310.967773438 9.412109375 310.96875 -7.6005859375 c 0,60,61
 310.96875 -23.265625 310.96875 -23.265625 299.887695312 -34.427734375 c 128,-1,62
 288.805664062 -45.58984375 288.805664062 -45.58984375 272.98046875 -45.58984375 c 0,63,64
 270.584960938 -45.58984375 270.584960938 -45.58984375 267.381835938 -44.7900390625 c 1,65,66
 285.165039062 -67.1826171875 285.165039062 -67.1826171875 314.16796875 -67.1826171875 c 0,67,68
 340.565429688 -67.1826171875 340.565429688 -67.1826171875 357.9296875 -44.666015625 c 128,-1,69
 375.291992188 -22.1494140625 375.291992188 -22.1494140625 378.149414062 9.5947265625 c 0,70,71
 379.544921875 24.25390625 379.544921875 24.25390625 379.966796875 43 c 1,72,-1
 50 43 l 1,73,-1
 50 67 l 1,74,-1
 380.149414062 67 l 1,75,-1
 380.149414062 70.7763671875 l 1,76,77
 366.34765625 68.3779296875 366.34765625 68.3779296875 352.157226562 68.3779296875 c 0,78,79
 293.948242188 68.3779296875 293.948242188 68.3779296875 253.07421875 110.872070312 c 0,80,81
 235.306640625 129.342773438 235.306640625 129.342773438 225.262695312 151 c 1,82,-1
 50 151 l 1,83,-1
 50 175 l 1,84,-1
 216.747070312 175 l 1,85,86
 212.198242188 192.927734375 212.198242188 192.927734375 212.198242188 212.732421875 c 0,87,-1
 212.198242188 212.735351562 l 0,88,89
 212.198242188 226.194335938 212.198242188 226.194335938 214.8515625 240.284179688 c 0,90,91
 216.13671875 247.11328125 216.13671875 247.11328125 217.3359375 253 c 1,92,-1
 52 253 l 1,93,-1
 52 277 l 1,94,-1
 223.927734375 277 l 1,95,96
 226.390625 283.020507812 226.390625 283.020507812 230.055664062 290.233398438 c 0,97,98
 238.048828125 305.966796875 238.048828125 305.966796875 240.86328125 312.3671875 c 128,-1,99
 243.676757812 318.766601562 243.676757812 318.766601562 255.79296875 336.56640625 c 0,100,101
 262.0234375 345.71875 262.0234375 345.71875 265.614257812 351 c 1,102,-1
 50 351 l 1,103,-1
 50 375 l 1,104,-1
 282.780273438 375 l 1,105,106
 284.826171875 377.770507812 284.826171875 377.770507812 287.193359375 380.966796875 c 0,107,108
 302.211914062 401.252929688 302.211914062 401.252929688 302.96875 402.280273438 c 1,109,110
 291.291992188 431.788085938 291.291992188 431.788085938 284.233398438 455 c 1,111,-1
 50 455 l 1,112,-1
 50 479 l 1,113,-1
 277.780273438 479 l 1,114,115
 270.977539062 509.079101562 270.977539062 509.079101562 270.977539062 550.225585938 c 0,116,-1
 270.977539062 550.237304688 l 0,117,118
 270.977539062 583.478515625 270.977539062 583.478515625 284.538085938 614.130859375 c 128,-1,119
 298.098632812 644.782226562 298.098632812 644.782226562 312.33203125 659.892578125 c 128,-1,120
 326.56640625 675.000976562 326.56640625 675.000976562 333.357421875 675.000976562 c 0,121,122
 341.953125 675.000976562 341.953125 675.000976562 358.766601562 652.0859375 c 128,-1,123
 375.581054688 629.170898438 375.581054688 629.170898438 390.05859375 592.748046875 c 128,-1,124
 404.537109375 556.326171875 404.537109375 556.326171875 404.537109375 525.849609375 c 0,125,-1
 404.537109375 525.845703125 l 0,126,127
 404.537109375 511.80078125 404.537109375 511.80078125 402.018554688 497.530273438 c 0,128,129
 400.391601562 488.3125 400.391601562 488.3125 397.713867188 479 c 1,130,-1
 708.161132812 479 l 1,131,132
 708.1640625 618.192382812 708.1640625 618.192382812 708.642578125 668.655273438 c 1,133,134
 713.500976562 670.596679688 713.500976562 670.596679688 717.1953125 670.596679688 c 0,135,136
 725.397460938 670.596679688 725.397460938 670.596679688 727.864257812 661.02734375 c 0,137,138
 729.852539062 653.318359375 729.852539062 653.318359375 730.181640625 645.280273438 c 0,139,140
 731.09765625 622.892578125 731.09765625 622.892578125 737.631835938 615.56640625 c 1,141,142
 758.77734375 560.78515625 758.77734375 560.78515625 821.780273438 495.565429688 c 0,143,144
 829.8046875 487.258789062 829.8046875 487.258789062 837.029296875 479 c 1,145,-1
 966 479 l 1,146,-1
 966 455 l 1,147,-1
 856.409179688 455 l 1,148,149
 886.4375 414.401367188 886.4375 414.401367188 896.779296875 375 c 1,150,-1
 966 375 l 1,151,-1
 966 351 l 1,152,-1
 901.606445312 351 l 1,153,154
 903.318359375 338.715820312 903.318359375 338.715820312 903.318359375 327.047851562 c 0,155,156
 903.318359375 300.416992188 903.318359375 300.416992188 894.400390625 277 c 1,157,-1
 968 277 l 1,158,-1
 968 253 l 1,159,-1
 726.140625 253 l 1,160,161
 726.1328125 209.084960938 726.1328125 209.084960938 726.022460938 175 c 1,162,-1
 966 175 l 1,163,-1
 966 151 l 1,164,-1
 725.926757812 151 l 1,165,166
 725.834960938 132.314453125 725.834960938 132.314453125 725.705078125 117.334960938 c 1,167,168
 722.048828125 89.392578125 722.048828125 89.392578125 706.157226562 67 c 1,169,-1
 966 67 l 1,170,-1
 966 43 l 1,171,-1
 683.735351562 43 l 1,172,173
 680.571289062 40.35546875 680.571289062 40.35546875 677.17578125 37.81640625 c 0,174,175
 637.875976562 8.431640625 637.875976562 8.431640625 592.71875 8.431640625 c 0,176,177
 589.322265625 8.431640625 589.322265625 8.431640625 585.889648438 8.5966796875 c 0,40,41
513.448242188 67 m 1,178,179
 512.291015625 73.6689453125 512.291015625 73.6689453125 512.291015625 80.9619140625 c 0,180,181
 512.291015625 116.055664062 512.291015625 116.055664062 539.779296875 147.999023438 c 0,182,183
 541.090820312 149.522460938 541.090820312 149.522460938 542.431640625 151 c 1,184,-1
 467.634765625 151 l 1,185,186
 463.046875 130.077148438 463.046875 130.077148438 449.9921875 112.8359375 c 0,187,188
 429.860351562 86.2568359375 429.860351562 86.2568359375 400.943359375 75.974609375 c 1,189,-1
 400.943359375 67 l 1,190,-1
 513.448242188 67 l 1,178,179
570.732421875 175 m 1,191,192
 586.497070312 185.078125 586.497070312 185.078125 605.099609375 190.881835938 c 0,193,194
 624.73046875 197.004882812 624.73046875 197.004882812 643.645507812 197.004882812 c 0,195,196
 662.1640625 197.004882812 662.1640625 197.004882812 679.998046875 191.134765625 c 1,197,198
 685.223632812 190.529296875 685.223632812 190.529296875 694.252929688 182.793945312 c 0,199,200
 703.006835938 175.294921875 703.006835938 175.294921875 706.62109375 175.294921875 c 0,201,202
 706.735351562 175.294921875 706.735351562 175.294921875 706.844726562 175.302734375 c 0,203,204
 709.0078125 175.452148438 709.0078125 175.452148438 709.0078125 180.018554688 c 0,205,206
 709.0078125 182.971679688 709.0078125 182.971679688 708.103515625 187.770507812 c 1,207,208
 708.166015625 210.9921875 708.166015625 210.9921875 708.190429688 253 c 1,209,-1
 437.83984375 253 l 1,210,211
 439.545898438 251.251953125 439.545898438 251.251953125 441.197265625 249.403320312 c 0,212,213
 470.032226562 217.125 470.032226562 217.125 470.119140625 175 c 1,214,-1
 570.732421875 175 l 1,191,192
438.033203125 175 m 1,215,216
 436.235351562 183.221679688 436.235351562 183.221679688 432.533203125 191.090820312 c 0,217,218
 425.336914062 206.395507812 425.336914062 206.395507812 411.606445312 217.716796875 c 128,-1,219
 397.876953125 229.0390625 397.876953125 229.0390625 380.149414062 233.129882812 c 1,220,221
 386.8671875 203.4296875 386.8671875 203.4296875 391.450195312 175 c 1,222,-1
 438.033203125 175 l 1,215,216
279.119140625 175 m 1,223,224
 274.978515625 187.06640625 274.978515625 187.06640625 274.978515625 200.740234375 c 0,225,226
 274.978515625 219.838867188 274.978515625 219.838867188 283.0703125 236.909179688 c 0,227,228
 287.166992188 245.548828125 287.166992188 245.548828125 293.38671875 253 c 1,229,-1
 262.498046875 253 l 1,230,231
 260.018554688 247.165039062 260.018554688 247.165039062 257.556640625 240.87890625 c 0,232,233
 244.588867188 207.7578125 244.588867188 207.7578125 244.588867188 176.747070312 c 0,234,235
 244.588867188 175.870117188 244.588867188 175.870117188 244.609375 175 c 2,236,-1
 279.119140625 175 l 1,223,224
370.2578125 175 m 1,237,238
 365.40234375 204.366210938 365.40234375 204.366210938 358.15625 234.73046875 c 1,239,240
 334.234375 233.577148438 334.234375 233.577148438 320.202148438 220.100585938 c 128,-1,241
 306.170898438 206.624023438 306.170898438 206.624023438 306.170898438 188.34375 c 0,242,243
 306.170898438 181.306640625 306.170898438 181.306640625 307.92578125 175 c 1,244,-1
 370.2578125 175 l 1,237,238
708.200195312 277 m 1,245,246
 708.205078125 293.4921875 708.205078125 293.4921875 708.205078125 312.291015625 c 0,247,248
 708.203125 330.706054688 708.203125 330.706054688 708.197265625 351 c 1,249,-1
 344.79296875 351 l 1,250,251
 356.978515625 316.326171875 356.978515625 316.326171875 366.548828125 283.515625 c 1,252,253
 385.203125 282.807617188 385.203125 282.807617188 401.059570312 277 c 1,254,-1
 708.200195312 277 l 1,245,246
860.740234375 277 m 1,255,256
 858.811523438 282.9453125 858.811523438 282.9453125 858.811523438 288.682617188 c 128,-1,257
 858.811523438 294.4609375 858.811523438 294.4609375 860.766601562 300.029296875 c 1,258,259
 861.935546875 311.235351562 861.935546875 311.235351562 861.935546875 321.9375 c 0,260,261
 861.935546875 336.96484375 861.935546875 336.96484375 859.630859375 351 c 1,262,-1
 726.078125 351 l 1,263,264
 726.0859375 332.251953125 726.0859375 332.251953125 726.108398438 311.876953125 c 0,265,266
 726.129882812 293.797851562 726.129882812 293.797851562 726.13671875 277 c 1,267,-1
 860.740234375 277 l 1,255,256
326.266601562 277 m 1,268,269
 335.3984375 280.665039062 335.3984375 280.665039062 345.758789062 282.31640625 c 1,270,271
 334.30078125 320.734375 334.30078125 320.734375 323.365234375 349.896484375 c 1,272,273
 297.486328125 315.126953125 297.486328125 315.126953125 284.004882812 294.563476562 c 0,274,275
 278.850585938 286.69921875 278.850585938 286.69921875 273.770507812 277 c 1,276,-1
 326.266601562 277 l 1,268,269
708.188476562 375 m 1,277,278
 708.177734375 400.29296875 708.177734375 400.29296875 708.161132812 428.217773438 c 0,279,280
 708.161132812 436.577148438 708.161132812 436.577148438 708.161132812 444.87890625 c 2,281,-1
 708.161132812 455 l 1,282,-1
 389.3515625 455 l 1,283,284
 381.267578125 434.629882812 381.267578125 434.629882812 371.690429688 418.838867188 c 0,285,286
 360.239257812 399.958007812 360.239257812 399.958007812 342.170898438 375 c 1,287,-1
 708.188476562 375 l 1,277,278
853.768554688 375 m 1,288,289
 840.5625 415.057617188 840.5625 415.057617188 806.002929688 445.924804688 c 0,290,291
 800.891601562 450.596679688 800.891601562 450.596679688 795.89453125 455 c 1,292,-1
 726.166015625 455 l 1,293,294
 726.153320312 451.33984375 726.153320312 451.33984375 726.140625 447.55859375 c 0,295,296
 726.072265625 418.303710938 726.072265625 418.303710938 726.072265625 381.858398438 c 0,297,-1
 726.073242188 375 l 1,298,-1
 853.768554688 375 l 1,288,289
306.778320312 455 m 1,299,300
 311.51953125 440.939453125 311.51953125 440.939453125 318.166015625 423.077148438 c 1,301,302
 329.555664062 439.392578125 329.555664062 439.392578125 338.541992188 455 c 1,303,-1
 306.778320312 455 l 1,299,300
766.932617188 479 m 1,304,305
 745.4765625 495.572265625 745.4765625 495.572265625 726.453125 506.418945312 c 1,306,307
 726.349609375 493.98828125 726.349609375 493.98828125 726.270507812 479 c 1,308,-1
 766.932617188 479 l 1,304,305
EndSplineSet
Validated: 3073
EndChar

StartChar: h
Encoding: 104 104 33
Width: 615
VWidth: 0
Flags: W
HStem: -46.2305 103.737<214.372 272.17> -46.2305 92.7139<216.002 272.17 347.336 402.938> 76.9014 33.9414<214.421 271.058 349.313 403.148> 221.151 37.5771<210.76 265.486 354.035 409.392> 369.001 39.1885<204.068 260.461 359.107 413.354>
VStem: 138.259 64.5977<363.416 369.001 408.189 427.534> 150.87 62.0107<72.8008 76.9014 110.843 130.354> 166.171 37.8975<298.73 363.873 452.188 471.642> 173.676 39.2051<156.082 214.062> 260.461 0.516602<408.725 419.963> 263.312 93.4512<260.31 368.62 407.545 419.963> 271.058 78.2559<47.607 76.9014 111.971 221.151> 403.313 37.1641<48.3547 63.7161> 409.392 64.0166<212.04 221.151 258.729 273.846> 414.866 43.8574<445.05 469.953>
LayerCount: 2
Fore
SplineSet
207.168945312 -46.23046875 m 1,0,-1
 204.462890625 -31.857421875 l 2,1,2
 201.272460938 -19.2421875 201.272460938 -19.2421875 191.482421875 4.5087890625 c 128,-1,3
 181.69140625 28.26171875 181.69140625 28.26171875 178.515625 40.4833984375 c 1,4,5
 173.353174135 43.0652204092 173.353174135 43.0652204092 173.353174135 53.5446775608 c 0,6,7
 173.353174135 60.220578564 173.353174135 60.220578564 175.448242188 70.1015625 c 0,8,9
 176.352539062 74.3623046875 176.352539062 74.3623046875 164.39453125 68.755859375 c 1,10,11
 151.817382812 72.80078125 151.817382812 72.80078125 150.870117188 99.18359375 c 128,-1,12
 149.922851562 125.567382812 149.922851562 125.567382812 137.911132812 130.513671875 c 1,13,14
 122.0625 132.32421875 122.0625 132.32421875 117.903320312 147.446289062 c 0,15,16
 117.015735979 150.67295138 117.015735979 150.67295138 117.015735979 153.173464402 c 0,17,18
 117.015735979 161.784042691 117.015735979 161.784042691 127.540588681 161.784042691 c 0,19,20
 134.670907733 161.784042691 134.670907733 161.784042691 146.631835938 157.83203125 c 0,21,22
 173.8046875 148.856445312 173.8046875 148.856445312 173.67578125 157.72265625 c 0,23,24
 173.60546875 162.46484375 173.60546875 162.46484375 172.024414062 172.337890625 c 128,-1,25
 170.443359375 182.2109375 170.443359375 182.2109375 171.9375 194.486328125 c 128,-1,26
 173.431640625 206.762695312 173.431640625 206.762695312 168.4921875 214.298828125 c 128,-1,27
 163.553710938 221.833984375 163.553710938 221.833984375 149.874023438 217.063476562 c 1,28,29
 148.333007812 222.896484375 148.333007812 222.896484375 145.932617188 236.474609375 c 128,-1,30
 143.532226562 250.051757812 143.532226562 250.051757812 141.528320312 256.936523438 c 0,31,32
 135.754882812 276.77734375 135.754882812 276.77734375 115.616210938 284.572265625 c 1,33,34
 110.68780243 291.951868153 110.68780243 291.951868153 110.68780243 296.955805367 c 0,35,36
 110.68780243 306.788108919 110.68780243 306.788108919 129.715820312 307.448242188 c 0,37,38
 131.51637227 307.51066274 131.51637227 307.51066274 133.258891006 307.51066274 c 0,39,40
 153.92533283 307.51066274 153.92533283 307.51066274 166.428710938 298.73046875 c 1,41,42
 166.16745608 308.405574832 166.16745608 308.405574832 166.17091954 325.817022075 c 0,43,44
 166.17091954 355.201704119 166.17091954 355.201704119 159.686523438 364.158203125 c 1,45,46
 155.285090452 362.795572424 155.285090452 362.795572424 151.785807278 362.795572424 c 0,47,48
 138.212692748 362.795572424 138.212692748 362.795572424 138.212692748 383.296760035 c 2,49,-1
 138.332814081 389.693070558 l 2,50,51
 138.332814081 417.709393187 138.332814081 417.709393187 122.482421875 422.602539062 c 1,52,53
 100.404817327 439.663416855 100.404817327 439.663416855 100.404817327 447.306135794 c 0,54,55
 100.404817327 454.35562273 100.404817327 454.35562273 108.607421875 460.9609375 c 1,56,57
 121.13671875 463.705078125 121.13671875 463.705078125 136.134765625 456.96875 c 128,-1,58
 151.131835938 450.232421875 151.131835938 450.232421875 157.428710938 452.126953125 c 128,-1,59
 163.723632812 454.020507812 163.723632812 454.020507812 161.537109375 464.264648438 c 128,-1,60
 159.350585938 474.509765625 159.350585938 474.509765625 158.961914062 481.4609375 c 128,-1,61
 158.573242188 488.412109375 158.573242188 488.412109375 158.254882812 493.6953125 c 128,-1,62
 157.9375 498.979492188 157.9375 498.979492188 158.00390625 505.4140625 c 128,-1,63
 158.071289062 511.849609375 158.071289062 511.849609375 158.711914062 516.454101562 c 0,64,65
 160.21875 527.279296875 160.21875 527.279296875 165.70703125 530.94140625 c 1,66,67
 166.731445312 535.413085938 166.731445312 535.413085938 166.620117188 550.5625 c 128,-1,68
 166.509765625 565.711914062 166.509765625 565.711914062 171.276367188 572.188476562 c 128,-1,69
 176.044921875 578.6640625 176.044921875 578.6640625 190.372070312 578.310546875 c 1,70,71
 219.41015625 588.044921875 219.41015625 588.044921875 246.767578125 633.043945312 c 0,72,73
 260.010742188 654.827148438 260.010742188 654.827148438 268.166015625 663.401367188 c 128,-1,74
 276.321289062 671.9765625 276.321289062 671.9765625 282.588867188 669.15625 c 128,-1,75
 288.85546875 666.3359375 288.85546875 666.3359375 291.309570312 660.071289062 c 128,-1,76
 293.763671875 653.806640625 293.763671875 653.806640625 296.879882812 645.841796875 c 128,-1,77
 299.995117188 637.876953125 299.995117188 637.876953125 303.173828125 636.3359375 c 0,78,79
 306.566480885 635.257243959 306.566480885 635.257243959 309.447481626 635.257243959 c 0,80,81
 321.193416174 635.257243959 321.193416174 635.257243959 324.434570312 653.1875 c 0,82,83
 327.40233033 669.598067803 327.40233033 669.598067803 338.474599003 669.598067803 c 0,84,85
 342.227359932 669.598067803 342.227359932 669.598067803 346.911132812 667.712890625 c 1,86,87
 358.533203125 657.814453125 358.533203125 657.814453125 379.69921875 623.942382812 c 128,-1,88
 400.8671875 590.069335938 400.8671875 590.069335938 414.75 583.875 c 128,-1,89
 428.633789062 577.681640625 428.633789062 577.681640625 431.982421875 576.516601562 c 128,-1,90
 435.331054688 575.3515625 435.331054688 575.3515625 442.143554688 572.111328125 c 128,-1,91
 448.958007812 568.87109375 448.958007812 568.87109375 449.743164062 565.918945312 c 128,-1,92
 450.530273438 562.965820312 450.530273438 562.965820312 452.9765625 557.157226562 c 128,-1,93
 455.423828125 551.34765625 455.423828125 551.34765625 450.0390625 545.044921875 c 1,94,95
 459.293146914 524.862301315 459.293146914 524.862301315 459.293146914 484.446206034 c 0,96,97
 459.293146914 474.419925186 459.293146914 474.419925186 458.723632812 463.1484375 c 1,98,99
 454.97265625 446.221679688 454.97265625 446.221679688 460.7578125 445.0078125 c 128,-1,100
 466.543945312 443.791992188 466.543945312 443.791992188 476.318359375 449.997070312 c 128,-1,101
 486.09375 456.201171875 486.09375 456.201171875 491.08984375 458.40625 c 0,102,103
 506.768554688 465.328125 506.768554688 465.328125 514.6171875 455.140625 c 1,104,105
 517.159179688 442.38671875 517.159179688 442.38671875 497.318359375 423.606445312 c 128,-1,106
 477.477539062 404.826171875 477.477539062 404.826171875 480.315429688 389.526367188 c 1,107,108
 478.570475402 356.566426346 478.570475402 356.566426346 467.385348592 356.566426346 c 0,109,110
 466.701991781 356.566426346 466.701991781 356.566426346 465.983398438 356.689453125 c 0,111,112
 462.108398438 357.3515625 462.108398438 357.3515625 457.154296875 361.090820312 c 1,113,114
 454.583007812 347.9921875 454.583007812 347.9921875 453.0390625 323.259765625 c 128,-1,115
 451.494140625 298.52734375 451.494140625 298.52734375 450.819335938 292.333007812 c 1,116,117
 481.240507725 307.913592294 481.240507725 307.913592294 498.557595871 307.913592294 c 0,118,119
 505.37336624 307.913592294 505.37336624 307.913592294 510.159179688 305.5 c 1,120,121
 519.875976562 298.54296875 519.875976562 298.54296875 513.801757812 292.005859375 c 128,-1,122
 507.7265625 285.469726562 507.7265625 285.469726562 502.322265625 280.954101562 c 128,-1,123
 496.918945312 276.440429688 496.918945312 276.440429688 494.932617188 273.974609375 c 1,124,125
 473.398737713 270.12848805 473.398737713 270.12848805 473.398737713 242.426931744 c 0,126,127
 473.398737713 213.073896734 473.398737713 213.073896734 454.142578125 211.999023438 c 1,128,129
 444.147266961 207.665430699 444.147266961 207.665430699 444.147266961 190.563638145 c 0,130,131
 444.147266961 186.527123043 444.147266961 186.527123043 444.704101562 181.779296875 c 0,132,133
 446.338208026 167.850276226 446.338208026 167.850276226 446.338208026 158.362948185 c 0,134,135
 446.338208026 150.914744554 446.338208026 150.914744554 445.331054688 146.204101562 c 1,136,137
 464.45732849 157.829012261 464.45732849 157.829012261 482.118291799 157.829012261 c 0,138,139
 487.561855909 157.829012261 487.561855909 157.829012261 492.866210938 156.724609375 c 0,140,141
 509.108398438 153.34375 509.108398438 153.34375 499.139648438 133.860351562 c 1,142,143
 463.224609375 114.2890625 463.224609375 114.2890625 462.149414062 69.77734375 c 1,144,145
 458.782226562 68.45703125 458.782226562 68.45703125 451.196289062 67.705078125 c 128,-1,146
 443.611328125 66.951171875 443.611328125 66.951171875 441.793945312 63.81640625 c 0,147,148
 440.495347758 61.5745800419 440.495347758 61.5745800419 440.495347758 47.0027272376 c 0,149,150
 440.495347758 34.2557786005 440.495347758 34.2557786005 427.439453125 9.3720703125 c 0,151,152
 413.900390625 -16.431640625 413.900390625 -16.431640625 411.364257812 -28.37890625 c 1,153,154
 413.631835938 -40.34765625 413.631835938 -40.34765625 408.877929688 -44.3583984375 c 128,-1,155
 404.122070312 -48.3681640625 404.122070312 -48.3681640625 392.393554688 -46.23046875 c 1,156,-1
 207.168945312 -46.23046875 l 1,0,-1
271.740234375 76.9013671875 m 1,157,-1
 214.420898438 76.9013671875 l 1,158,159
 212.817382812 57.5068359375 212.817382812 57.5068359375 215.6953125 57.5068359375 c 1,160,161
 225.454101562 46.9248046875 225.454101562 46.9248046875 243.536132812 46.4833984375 c 0,162,163
 244.205123468 46.467103623 244.205123468 46.467103623 244.864274408 46.467103623 c 0,164,165
 262.021198776 46.467103623 262.021198776 46.467103623 272.51171875 57.5068359375 c 1,166,-1
 271.740234375 76.9013671875 l 1,157,-1
403.313476562 57.5068359375 m 1,167,-1
 403.1484375 76.962890625 l 1,168,-1
 347.459960938 76.9013671875 l 1,169,-1
 346.938476562 57.5068359375 l 1,170,171
 359.619140625 47.4521484375 359.619140625 47.4521484375 375.466796875 47.392578125 c 128,-1,172
 391.315429688 47.3330078125 391.315429688 47.3330078125 403.313476562 57.5068359375 c 1,167,-1
404.541992188 112.555664062 m 1,173,-1
 406.360351562 165.642578125 l 1,174,-1
 409.391601562 221.151367188 l 1,175,-1
 352.51171875 221.151367188 l 1,176,-1
 349.313476562 111.970703125 l 1,177,178
 374.910367663 112.718893316 374.910367663 112.718893316 391.272168928 112.718893316 c 0,179,180
 398.914469348 112.718893316 398.914469348 112.718893316 404.541992188 112.555664062 c 1,173,-1
271.057617188 110.236328125 m 1,181,-1
 267.491210938 221.151367188 l 1,182,-1
 210.759765625 221.151367188 l 1,183,-1
 212.880859375 110.842773438 l 1,184,185
 251.40625 110.842773438 251.40625 110.842773438 271.057617188 110.236328125 c 1,181,-1
410.32421875 258.728515625 m 1,186,-1
 411.537109375 311.662109375 l 1,187,-1
 413.354492188 369.037109375 l 1,188,-1
 356.762695312 369.037109375 l 1,189,-1
 354.03515625 258.728515625 l 1,190,-1
 410.32421875 258.728515625 l 1,186,-1
204.068359375 369.000976562 m 1,191,-1
 206.794921875 258.728515625 l 1,192,-1
 265.486328125 258.728515625 l 1,193,-1
 266.395507812 260.309570312 l 1,194,195
 263.063476562 338.596679688 263.063476562 338.596679688 263.311523438 368.620117188 c 1,196,-1
 204.068359375 369.000976562 l 1,191,-1
414.877929688 405.200195312 m 1,197,-1
 414.866210938 422.767578125 l 1,198,199
 416.512149559 429.153596765 416.512149559 429.153596765 416.512149559 434.969811781 c 0,200,201
 416.512149559 452.56420514 416.512149559 452.56420514 401.450195312 464.944335938 c 0,202,203
 393.361397597 471.593942597 393.361397597 471.593942597 385.816298429 471.593942597 c 0,204,205
 374.669285477 471.593942597 374.669285477 471.593942597 364.708984375 457.080078125 c 1,206,207
 360.126953125 447.203125 360.126953125 447.203125 359.107421875 405.200195312 c 1,208,-1
 414.877929688 405.200195312 l 1,197,-1
202.856445312 408.189453125 m 1,209,210
 217.623506045 407.213945592 217.623506045 407.213945592 230.666950428 407.213945592 c 0,211,212
 246.898533759 407.213945592 246.898533759 407.213945592 260.4609375 408.724609375 c 1,213,-1
 260.4609375 408.724609375 l 6,214,-1
 260 411 l 1,215,216
 259.075314033 472.953959782 259.075314033 472.953959782 229.636075091 472.953959782 c 0,217,218
 227.238301257 472.953959782 227.238301257 472.953959782 224.651367188 472.54296875 c 1,219,220
 203 465 203 465 202.965820312 422.455078125 c 0,221,222
 203 415 203 415 202.856445312 408.189453125 c 1,209,210
EndSplineSet
Validated: 2085
EndChar

StartChar: i
Encoding: 105 105 34
Width: 594
VWidth: 0
Flags: W
HStem: 139.491 51.416<112.313 154.661> 209.548 63.9795<130.211 180.643> 387.724 58.6484<180.869 232.987> 469.55 64.5967<212.336 260.267> 557.934 64.8496<238.483 288.747>
VStem: 180.628 52.3809<414.58 445.582>
LayerCount: 2
Fore
SplineSet
195.938476562 -21.2509765625 m 6,0,1
 194.654296875 -5.759765625 194.654296875 -5.759765625 191.866210938 -0.13671875 c 132,-1,2
 189.078125 5.4873046875 189.078125 5.4873046875 170.38671875 20.3935546875 c 132,-1,3
 151.694335938 35.2998046875 151.694335938 35.2998046875 147.146484375 41.3017578125 c 4,4,5
 135.618164062 56.517578125 135.618164062 56.517578125 149.352539062 98.22265625 c 132,-1,6
 163.087890625 139.926757812 163.087890625 139.926757812 153.845703125 139.491210938 c 4,7,8
 149.872070312 139.3046875 149.872070312 139.3046875 140.36328125 131.825195312 c 132,-1,9
 130.854492188 124.345703125 130.854492188 124.345703125 121.614257812 126.665039062 c 132,-1,10
 112.374023438 128.984375 112.374023438 128.984375 108.1328125 132.022460938 c 4,11,12
 100.360351562 137.58984375 100.360351562 137.58984375 100.360351562 155.3125 c 132,-1,13
 100.360351562 173.036132812 100.360351562 173.036132812 111.950195312 183.72265625 c 132,-1,14
 123.5390625 194.408203125 123.5390625 194.408203125 136.846679688 190.907226562 c 132,-1,15
 150.154296875 187.40625 150.154296875 187.40625 154.450195312 170.291992188 c 4,16,17
 161.162109375 143.55078125 161.162109375 143.55078125 171.837890625 170.8125 c 4,18,19
 190.21484375 217.740234375 190.21484375 217.740234375 183.6015625 221.643554688 c 132,-1,20
 176.989257812 225.546875 176.989257812 225.546875 169.0078125 217.565429688 c 132,-1,21
 161.025390625 209.583984375 161.025390625 209.583984375 150.642578125 209.547851562 c 132,-1,22
 140.258789062 209.510742188 140.258789062 209.510742188 129.88671875 219.8828125 c 132,-1,23
 119.514648438 230.254882812 119.514648438 230.254882812 127.34765625 251.890625 c 132,-1,24
 135.1796875 273.52734375 135.1796875 273.52734375 149.045898438 273.52734375 c 132,-1,25
 162.913085938 273.52734375 162.913085938 273.52734375 171.833007812 265.944335938 c 132,-1,26
 180.752929688 258.361328125 180.752929688 258.361328125 180.752929688 252.30078125 c 132,-1,27
 180.752929688 246.240234375 180.752929688 246.240234375 183.553710938 242.864257812 c 4,28,29
 189.936523438 235.169921875 189.936523438 235.169921875 192.778320312 239.2734375 c 132,-1,30
 195.62109375 243.376953125 195.62109375 243.376953125 205.016601562 272.575195312 c 132,-1,31
 214.411132812 301.771484375 214.411132812 301.771484375 209.736328125 306.446289062 c 132,-1,32
 205.061523438 311.122070312 205.061523438 311.122070312 198.090820312 304.813476562 c 132,-1,33
 191.120117188 298.505859375 191.120117188 298.505859375 179.10546875 297.091796875 c 132,-1,34
 167.090820312 295.676757812 167.090820312 295.676757812 161.0234375 299.426757812 c 132,-1,35
 154.956054688 303.176757812 154.956054688 303.176757812 153.9765625 318.451171875 c 132,-1,36
 152.997070312 333.725585938 152.997070312 333.725585938 159.888671875 348.177734375 c 132,-1,37
 166.780273438 362.629882812 166.780273438 362.629882812 184.8828125 361.471679688 c 132,-1,38
 202.984375 360.3125 202.984375 360.3125 207.985351562 341.013671875 c 4,39,40
 216.440429688 308.385742188 216.440429688 308.385742188 231.994140625 359.528320312 c 4,41,42
 241.64453125 391.264648438 241.64453125 391.264648438 236.383789062 394.515625 c 132,-1,43
 231.122070312 397.766601562 231.122070312 397.766601562 222.762695312 389.912109375 c 4,44,45
 205.875 374.046875 205.875 374.046875 189.541015625 387.723632812 c 132,-1,46
 173.20703125 401.399414062 173.20703125 401.399414062 180.627929688 423.885742188 c 132,-1,47
 188.048828125 446.372070312 188.048828125 446.372070312 210.013671875 446.372070312 c 4,48,49
 218.143554688 446.372070312 218.143554688 446.372070312 225.576171875 439.494140625 c 132,-1,50
 233.008789062 432.6171875 233.008789062 432.6171875 233.008789062 425.567382812 c 132,-1,51
 233.008789062 418.518554688 233.008789062 418.518554688 240.604492188 414.452148438 c 132,-1,52
 248.200195312 410.387695312 248.200195312 410.387695312 250.330078125 417.326171875 c 4,53,54
 263.701171875 460.879882812 263.701171875 460.879882812 265.477539062 470.201171875 c 132,-1,55
 267.25390625 479.522460938 267.25390625 479.522460938 261.78515625 481.62109375 c 132,-1,56
 256.315429688 483.720703125 256.315429688 483.720703125 253.624023438 479.3671875 c 132,-1,57
 250.935546875 475.013671875 250.935546875 475.013671875 236.565429688 469.549804688 c 132,-1,58
 222.194335938 464.0859375 222.194335938 464.0859375 212.016601562 477.708007812 c 132,-1,59
 201.838867188 491.329101562 201.838867188 491.329101562 208.737304688 512.233398438 c 132,-1,60
 215.635742188 533.13671875 215.635742188 533.13671875 234.313476562 534.146484375 c 132,-1,61
 252.990234375 535.15625 252.990234375 535.15625 259.654296875 514.620117188 c 4,62,63
 269.42578125 484.515625 269.42578125 484.515625 281.563476562 518.67578125 c 6,64,-1
 285.133789062 529.635742188 l 6,65,66
 294.610351562 560.950195312 294.610351562 560.950195312 296.393554688 565.95703125 c 132,-1,67
 298.188476562 570.997070312 298.188476562 570.997070312 292.403320312 570.841796875 c 4,68,69
 284.459960938 570.626953125 284.459960938 570.626953125 272.740234375 561.962890625 c 132,-1,70
 261.020507812 553.297851562 261.020507812 553.297851562 249.427734375 557.93359375 c 132,-1,71
 237.8359375 562.569335938 237.8359375 562.569335938 234.822265625 575.599609375 c 132,-1,72
 231.809570312 588.630859375 231.809570312 588.630859375 238.202148438 605.092773438 c 5,73,74
 247.119140625 623.791992188 247.119140625 623.791992188 265.224609375 622.783203125 c 132,-1,75
 283.330078125 621.774414062 283.330078125 621.774414062 287.703125 604.8984375 c 132,-1,76
 292.076171875 588.0234375 292.076171875 588.0234375 298.427734375 588.25 c 132,-1,77
 304.779296875 588.4765625 304.779296875 588.4765625 311.381835938 603.1171875 c 4,78,79
 324.388671875 631.958984375 324.388671875 631.958984375 355.223632812 647.302734375 c 132,-1,80
 386.05859375 662.646484375 386.05859375 662.646484375 421.026367188 655.344726562 c 132,-1,81
 455.993164062 648.04296875 455.993164062 648.04296875 479.819335938 609.736328125 c 4,82,83
 491.48046875 590.987304688 491.48046875 590.987304688 493.568359375 558.447265625 c 132,-1,84
 495.65625 525.907226562 495.65625 525.907226562 482.069335938 502.430664062 c 132,-1,85
 468.482421875 478.954101562 468.482421875 478.954101562 430.930664062 453.864257812 c 4,86,87
 415.0703125 443.266601562 415.0703125 443.266601562 413.223632812 435.775390625 c 4,88,89
 407.56640625 412.814453125 407.56640625 412.814453125 427.169921875 330.94140625 c 132,-1,90
 446.772460938 249.068359375 446.772460938 249.068359375 453.573242188 200.822265625 c 132,-1,91
 460.373046875 152.576171875 460.373046875 152.576171875 457.4296875 144.905273438 c 132,-1,92
 454.486328125 137.234375 454.486328125 137.234375 430.467773438 122.064453125 c 132,-1,93
 406.44921875 106.895507812 406.44921875 106.895507812 394.399414062 92.7392578125 c 132,-1,94
 382.349609375 78.583984375 382.349609375 78.583984375 372.0546875 56.822265625 c 132,-1,95
 361.759765625 35.0595703125 361.759765625 35.0595703125 359.69140625 24.5986328125 c 132,-1,96
 357.623046875 14.13671875 357.623046875 14.13671875 357.62109375 -8.853515625 c 6,97,-1
 357.618164062 -44.025390625 l 5,98,-1
 197.827148438 -44.025390625 l 5,99,-1
 195.938476562 -21.2509765625 l 6,0,1
EndSplineSet
Validated: 33
EndChar

StartChar: j
Encoding: 106 106 35
Width: 639
VWidth: 0
Flags: W
VStem: 155.014 313.183<256.949 444.565 497.877 619.511> 217.857 162.346<-45.1294 41.4324>
LayerCount: 2
Fore
SplineSet
71.0595703125 157.806640625 m 1,0,1
 42.2353515625 163.603515625 42.2353515625 163.603515625 49.982421875 194.443359375 c 0,2,3
 58.4013671875 227.958007812 58.4013671875 227.958007812 54.0966796875 246.259765625 c 128,-1,4
 49.791015625 264.5625 49.791015625 264.5625 60.3720703125 275.328125 c 128,-1,5
 70.9541015625 286.094726562 70.9541015625 286.094726562 85.9345703125 282.592773438 c 128,-1,6
 100.915039062 279.090820312 100.915039062 279.090820312 107.217773438 261.959960938 c 1,7,8
 115.1015625 250.693359375 115.1015625 250.693359375 127.903320312 245.409179688 c 128,-1,9
 140.704101562 240.125 140.704101562 240.125 148.993164062 246.432617188 c 128,-1,10
 157.283203125 252.740234375 157.283203125 252.740234375 152.680664062 271.14453125 c 1,11,12
 156.528320312 320.724609375 156.528320312 320.724609375 158.053710938 444.694335938 c 1,13,14
 138.295898438 446.286132812 138.295898438 446.286132812 121.196289062 430.161132812 c 0,15,16
 116.192382812 425.442382812 116.192382812 425.442382812 105.623046875 412.444335938 c 128,-1,17
 95.0537109375 399.4453125 95.0537109375 399.4453125 93.11328125 397.247070312 c 1,18,19
 70.5791015625 386.11328125 70.5791015625 386.11328125 60.283203125 405.229492188 c 128,-1,20
 49.98828125 424.346679688 49.98828125 424.346679688 61.912109375 442.901367188 c 1,21,22
 63.533203125 450.84765625 63.533203125 450.84765625 60.541015625 473.578125 c 128,-1,23
 57.5478515625 496.309570312 57.5478515625 496.309570312 62.041015625 509.514648438 c 128,-1,24
 66.5341796875 522.720703125 66.5341796875 522.720703125 85.7685546875 523.224609375 c 1,25,26
 95.5693359375 520.59765625 95.5693359375 520.59765625 114.42578125 499.801757812 c 128,-1,27
 133.283203125 479.005859375 133.283203125 479.005859375 150.82421875 480.146484375 c 0,28,29
 156.322265625 479.626953125 156.322265625 479.626953125 156.998046875 484.282226562 c 128,-1,30
 157.672851562 488.936523438 157.672851562 488.936523438 156.3046875 496.43359375 c 128,-1,31
 154.936523438 503.931640625 154.936523438 503.931640625 155.013671875 513.311523438 c 128,-1,32
 155.090820312 522.69140625 155.090820312 522.69140625 154.198242188 543.322265625 c 128,-1,33
 153.3046875 563.953125 153.3046875 563.953125 152.411132812 584.583007812 c 128,-1,34
 151.518554688 605.213867188 151.518554688 605.213867188 150.831054688 621.083984375 c 1,35,36
 205.19921875 615.920898438 205.19921875 615.920898438 233.654296875 632.850585938 c 128,-1,37
 262.110351562 649.78125 262.110351562 649.78125 318.415039062 650.040039062 c 1,38,39
 335.533203125 651.624023438 335.533203125 651.624023438 366.864257812 640.870117188 c 128,-1,40
 398.1953125 630.116210938 398.1953125 630.116210938 414.170898438 630.5234375 c 1,41,42
 440.662109375 636.901367188 440.662109375 636.901367188 459.212890625 626.943359375 c 128,-1,43
 477.764648438 616.985351562 477.764648438 616.985351562 468.196289062 589.780273438 c 1,44,45
 469.092773438 579.834960938 469.092773438 579.834960938 466.048828125 559.268554688 c 0,46,47
 459.147460938 512.637695312 459.147460938 512.637695312 474.223632812 497.392578125 c 1,48,49
 498.614257812 493.729492188 498.614257812 493.729492188 529.666015625 523.623046875 c 0,50,51
 543.9296875 537.354492188 543.9296875 537.354492188 552.1015625 542.25 c 1,52,53
 578.487304688 546.22265625 578.487304688 546.22265625 579.967773438 525.696289062 c 0,54,55
 580.78515625 514.359375 580.78515625 514.359375 577.4921875 493.1875 c 128,-1,56
 574.19921875 472.015625 574.19921875 472.015625 574.89453125 465.596679688 c 1,57,58
 581.298828125 452.349609375 581.298828125 452.349609375 576.272460938 435.872070312 c 128,-1,59
 571.245117188 419.395507812 571.245117188 419.395507812 560.034179688 414.737304688 c 128,-1,60
 548.823242188 410.078125 548.823242188 410.078125 534.654296875 423.514648438 c 1,61,62
 524.685546875 443.036132812 524.685546875 443.036132812 500.162109375 455.081054688 c 128,-1,63
 475.638671875 467.126953125 475.638671875 467.126953125 463.763671875 450.200195312 c 0,64,65
 457.11328125 440.600585938 457.11328125 440.600585938 457.020507812 423.415039062 c 128,-1,66
 456.928710938 406.228515625 456.928710938 406.228515625 457.393554688 390.533203125 c 128,-1,67
 457.859375 374.838867188 457.859375 374.838867188 458.052734375 365.961914062 c 128,-1,68
 458.245117188 357.084960938 458.245117188 357.084960938 458.736328125 342.002929688 c 128,-1,69
 459.227539062 326.920898438 459.227539062 326.920898438 459.63671875 315.04296875 c 0,70,71
 461.040039062 274.389648438 461.040039062 274.389648438 461.5234375 259.795898438 c 1,72,73
 503.55078125 248.150390625 503.55078125 248.150390625 530.389648438 278.340820312 c 1,74,75
 541.2890625 295.842773438 541.2890625 295.842773438 558.01171875 300.408203125 c 128,-1,76
 574.735351562 304.974609375 574.735351562 304.974609375 588.987304688 289.024414062 c 1,77,78
 579.203125 262.627929688 579.203125 262.627929688 579.006835938 226.083984375 c 128,-1,79
 578.811523438 189.540039062 578.811523438 189.540039062 578.735351562 185.724609375 c 1,80,81
 563.810546875 168.572265625 563.810546875 168.572265625 553.294921875 174.446289062 c 128,-1,82
 542.780273438 180.321289062 542.780273438 180.321289062 537.947265625 184.556640625 c 128,-1,83
 533.114257812 188.791992188 533.114257812 188.791992188 525.56640625 197.436523438 c 128,-1,84
 518.017578125 206.08203125 518.017578125 206.08203125 509.571289062 213.573242188 c 128,-1,85
 501.125 221.064453125 501.125 221.064453125 485.020507812 222.098632812 c 128,-1,86
 468.916992188 223.1328125 468.916992188 223.1328125 462.454101562 213.525390625 c 128,-1,87
 455.991210938 203.918945312 455.991210938 203.918945312 463.3671875 185.358398438 c 1,88,89
 463.705078125 158.741210938 463.705078125 158.741210938 457.623046875 133.939453125 c 128,-1,90
 451.540039062 109.137695312 451.540039062 109.137695312 440.736328125 98.599609375 c 1,91,92
 383.233398438 31.2841796875 383.233398438 31.2841796875 380.203125 -38.109375 c 1,93,94
 382.93359375 -49.1630859375 382.93359375 -49.1630859375 366.21875 -45.6181640625 c 0,95,96
 359.994140625 -44.2978515625 359.994140625 -44.2978515625 355.580078125 -45.888671875 c 1,97,98
 231.470703125 -48.1435546875 231.470703125 -48.1435546875 217.633789062 -47.6142578125 c 1,99,100
 217.623046875 -45.017578125 217.623046875 -45.017578125 217.857421875 -26.1767578125 c 128,-1,101
 218.090820312 -7.3359375 218.090820312 -7.3359375 217.586914062 -1.0166015625 c 128,-1,102
 217.083984375 5.3037109375 217.083984375 5.3037109375 215.528320312 19.408203125 c 0,103,104
 212.88671875 43.3515625 212.88671875 43.3515625 199.65625 62.7822265625 c 1,105,106
 185.038085938 93.4072265625 185.038085938 93.4072265625 135.493164062 125.112304688 c 1,107,108
 145.3203125 202.223632812 145.3203125 202.223632812 145.721679688 206.958007812 c 1,109,110
 127.986328125 205.038085938 127.986328125 205.038085938 106.211914062 182.666015625 c 128,-1,111
 84.4375 160.293945312 84.4375 160.293945312 71.0595703125 157.806640625 c 1,0,1
EndSplineSet
Validated: 33
EndChar

StartChar: dollar
Encoding: 36 36 36
Width: 962
Flags: W
HStem: 576 93.2979G<243.793 304.575 403.25 415.75 600.5 612.5>
VStem: 135.736 74.9941<135.677 462.323> 379 62<-141.233 29 197 344 511 681.718> 523 62<-81.7178 89 256 403 571 741.233> 752.47 74.9941<135.677 462.323>
LayerCount: 2
Fore
SplineSet
210.73046875 299 m 260,0,1
 210.73046875 195.780273438 210.73046875 195.780273438 240.567382812 107.883789062 c 132,-1,2
 270.404296875 19.986328125 270.404296875 19.986328125 328.463867188 -55.009765625 c 5,3,-1
 275.2421875 -91.2978515625 l 5,4,5
 212.34375 -14.689453125 212.34375 -14.689453125 174.0390625 84.8994140625 c 132,-1,6
 135.736328125 184.491210938 135.736328125 184.491210938 135.736328125 299 c 260,7,8
 135.736328125 413.508789062 135.736328125 413.508789062 174.0390625 513.100585938 c 132,-1,9
 212.34375 612.689453125 212.34375 612.689453125 275.2421875 689.297851562 c 5,10,-1
 328.463867188 653.009765625 l 5,11,12
 270.404296875 578.013671875 270.404296875 578.013671875 240.567382812 490.116210938 c 132,-1,13
 210.73046875 402.219726562 210.73046875 402.219726562 210.73046875 299 c 260,0,1
752.469726562 299 m 260,14,15
 752.469726562 195.780273438 752.469726562 195.780273438 722.6328125 107.883789062 c 132,-1,16
 692.795898438 19.986328125 692.795898438 19.986328125 634.736328125 -55.009765625 c 5,17,-1
 687.958007812 -91.2978515625 l 5,18,19
 750.856445312 -14.689453125 750.856445312 -14.689453125 789.161132812 84.8994140625 c 132,-1,20
 827.463867188 184.491210938 827.463867188 184.491210938 827.463867188 299 c 260,21,22
 827.463867188 413.508789062 827.463867188 413.508789062 789.161132812 513.100585938 c 132,-1,23
 750.856445312 612.689453125 750.856445312 612.689453125 687.958007812 689.297851562 c 5,24,-1
 634.736328125 653.009765625 l 5,25,26
 692.795898438 578.013671875 692.795898438 578.013671875 722.6328125 490.116210938 c 132,-1,27
 752.469726562 402.219726562 752.469726562 402.219726562 752.469726562 299 c 260,14,15
585 256 m 5,28,29
 597 260 597 260 604 260 c 4,30,31
 621 260 621 260 634 247.5 c 132,-1,32
 647 235 647 235 647 217 c 6,33,-1
 647 168 l 6,34,35
 647 155 647 155 639.5 144 c 132,-1,36
 632 133 632 133 621 128 c 6,37,-1
 585 113 l 5,38,-1
 585 -60 l 6,39,40
 585 -73 585 -73 576 -82 c 132,-1,41
 567 -91 567 -91 554.5 -91 c 132,-1,42
 542 -91 542 -91 532.5 -82 c 132,-1,43
 523 -73 523 -73 523 -60 c 6,44,-1
 523 89 l 5,45,-1
 441 54 l 5,46,-1
 441 -120 l 6,47,48
 441 -132 441 -132 431.5 -141 c 132,-1,49
 422 -150 422 -150 409.5 -150 c 132,-1,50
 397 -150 397 -150 388 -141.5 c 132,-1,51
 379 -133 379 -133 379 -120 c 6,52,-1
 379 29 l 5,53,54
 367 24 367 24 360 24 c 4,55,56
 343 24 343 24 330 36.5 c 132,-1,57
 317 49 317 49 317 67 c 6,58,-1
 317 118 l 6,59,60
 317 130 317 130 324.5 141.5 c 132,-1,61
 332 153 332 153 343 157 c 6,62,-1
 379 172 l 5,63,-1
 379 344 l 5,64,65
 367 340 367 340 360 340 c 4,66,67
 343 340 343 340 330 352.5 c 132,-1,68
 317 365 317 365 317 383 c 6,69,-1
 317 432 l 6,70,71
 317 445 317 445 324.5 456 c 132,-1,72
 332 467 332 467 343 472 c 6,73,-1
 379 487 l 5,74,-1
 379 660 l 6,75,76
 379 673 379 673 388 682 c 132,-1,77
 397 691 397 691 409.5 691 c 132,-1,78
 422 691 422 691 431.5 682 c 132,-1,79
 441 673 441 673 441 660 c 6,80,-1
 441 511 l 5,81,-1
 523 546 l 5,82,-1
 523 720 l 6,83,84
 523 732 523 732 532.5 741 c 132,-1,85
 542 750 542 750 554.5 750 c 132,-1,86
 567 750 567 750 576 741.5 c 132,-1,87
 585 733 585 733 585 720 c 6,88,-1
 585 571 l 5,89,90
 597 576 597 576 604 576 c 4,91,92
 621 576 621 576 634 563.5 c 132,-1,93
 647 551 647 551 647 533 c 6,94,-1
 647 482 l 6,95,96
 647 470 647 470 639.5 458.5 c 132,-1,97
 632 447 632 447 621 443 c 6,98,-1
 585 428 l 5,99,-1
 585 256 l 5,28,29
523 403 m 5,100,-1
 441 370 l 5,101,-1
 441 197 l 5,102,-1
 523 230 l 5,103,-1
 523 403 l 5,100,-1
EndSplineSet
Validated: 9
EndChar

StartChar: m
Encoding: 109 109 37
Width: 700
VWidth: 0
Flags: W
HStem: -78.165 180.362<476.347 563.023>
VStem: 307.15 23.4746<366.697 574.784 640.635 700.222> 601.963 23.4746<86.6348 390.51 456.359 515.909>
LayerCount: 2
Fore
SplineSet
479.375 -84.927734375 m 0,0,1
 460 -85 460 -85 442.7734375 -78.1650390625 c 0,2,3
 426 -71 426 -71 415.022460938 -56.662109375 c 0,4,5
 404 -42 404 -42 404 -21.6279296875 c 0,6,7
 404 38 404 38 472.662109375 78.6474609375 c 0,8,9
 512 102 512 102 550.0625 102.197265625 c 0,10,11
 581 102 581 102 601.962890625 86.634765625 c 1,12,-1
 601.962890625 390.509765625 l 1,13,-1
 330.625 574.784179688 l 1,14,-1
 330.625 326.647460938 l 2,15,16
 331 325 331 325 330.362304688 324.772460938 c 0,17,18
 331 322 331 322 330.625 318.997070312 c 0,19,20
 331 260 331 260 262 218.721679688 c 0,21,22
 223 195 223 195 184.5625 195.134765625 c 0,23,24
 154 195 154 195 131.34765625 211.736328125 c 0,25,26
 109 228 109 228 109.1875 258.434570312 c 0,27,28
 109 318 109 318 177.849609375 358.709960938 c 0,29,30
 217 382 217 382 255.25 382.259765625 c 0,31,32
 286 382 286 382 307.150390625 366.697265625 c 1,33,-1
 307.150390625 727.859375 l 2,34,35
 308 737 308 737 308.190429688 749.083984375 c 0,36,37
 309 767 309 767 309.706054688 769.56640625 c 0,38,39
 310 773 310 773 313.903320312 773.493164062 c 0,40,-1
 617.974609375 574.034179688 l 2,41,42
 624 570 624 570 624.421875 567.91015625 c 0,43,44
 625 547 625 547 625.4375 540.546875 c 2,45,-1
 625.4375 52.0595703125 l 2,46,47
 625 51 625 51 624.650390625 49.134765625 c 0,48,49
 625 44 625 44 625.4375 38.9345703125 c 0,50,51
 625 -20 625 -20 556.775390625 -61.3408203125 c 0,52,53
 517 -85 517 -85 479.375 -84.927734375 c 0,0,1
601.962890625 456.359375 m 1,54,-1
 601.962890625 515.909179688 l 1,55,-1
 330.625 700.221679688 l 1,56,-1
 330.625 640.634765625 l 1,57,-1
 601.962890625 456.359375 l 1,54,-1
EndSplineSet
Validated: 33
EndChar

StartChar: period
Encoding: 46 46 38
Width: 114
Flags: W
LayerCount: 2
Fore
SplineSet
0 57 m 128,-1,1
 0 81 0 81 16.5 97.5 c 128,-1,2
 33 114 33 114 57 114 c 128,-1,3
 81 114 81 114 97.5 97.5 c 128,-1,4
 114 81 114 81 114 57 c 128,-1,5
 114 33 114 33 97.5 16.5 c 128,-1,6
 81 0 81 0 57 0 c 128,-1,7
 33 0 33 0 16.5 16.5 c 128,-1,0
 0 33 0 33 0 57 c 128,-1,1
EndSplineSet
Validated: 1
EndChar

StartChar: hyphen
Encoding: 45 45 39
Width: 167
Flags: W
LayerCount: 2
Fore
SplineSet
153 153 m 2,0,-1
 13 153 l 2,1,2
 8 153 8 153 4 157.5 c 128,-1,3
 0 162 0 162 0 167 c 0,4,5
 0 180 0 180 13 180 c 2,6,-1
 153 180 l 2,7,8
 158 180 158 180 162.5 176 c 128,-1,9
 167 172 167 172 167 167 c 128,-1,10
 167 162 167 162 162.5 157.5 c 128,-1,11
 158 153 158 153 153 153 c 2,0,-1
EndSplineSet
Validated: 1
EndChar

StartChar: comma
Encoding: 44 44 40
Width: 114
Flags: W
LayerCount: 2
Fore
SplineSet
57 -150 m 0,0,1
 52 -158 52 -158 45 -158 c 0,2,3
 32 -158 32 -158 32 -145 c 0,4,5
 32 -141 32 -141 33 -139 c 0,6,7
 67 -67 67 -67 67 -38 c 0,8,9
 67 -8 67 -8 38 3 c 0,10,11
 21 9 21 9 10.5 24 c 128,-1,12
 0 39 0 39 0 57 c 0,13,14
 0 81 0 81 16.5 97.5 c 128,-1,15
 33 114 33 114 57 114 c 128,-1,16
 81 114 81 114 97.5 97.5 c 128,-1,17
 114 81 114 81 114 57 c 0,18,19
 114 -29 114 -29 57 -150 c 0,0,1
EndSplineSet
Validated: 1
EndChar

StartChar: plus
Encoding: 43 43 41
Width: 250
Flags: W
LayerCount: 2
Fore
SplineSet
125 125 m 128,-1,1
 116 125 116 125 109.5 131.5 c 128,-1,2
 103 138 103 138 103 147 c 2,3,-1
 103 228 l 1,4,-1
 22 228 l 2,5,6
 13 228 13 228 6.5 234.5 c 128,-1,7
 0 241 0 241 0 250 c 128,-1,8
 0 259 0 259 6.5 265.5 c 128,-1,9
 13 272 13 272 22 272 c 2,10,-1
 103 272 l 1,11,-1
 103 353 l 2,12,13
 103 362 103 362 109.5 368.5 c 128,-1,14
 116 375 116 375 125 375 c 128,-1,15
 134 375 134 375 140.5 368.5 c 128,-1,16
 147 362 147 362 147 353 c 2,17,-1
 147 272 l 1,18,-1
 228 272 l 2,19,20
 237 272 237 272 243.5 265.5 c 128,-1,21
 250 259 250 259 250 250 c 128,-1,22
 250 241 250 241 243.5 234.5 c 128,-1,23
 237 228 237 228 228 228 c 2,24,-1
 147 228 l 1,25,-1
 147 147 l 2,26,27
 147 138 147 138 140.5 131.5 c 128,-1,0
 134 125 134 125 125 125 c 128,-1,1
EndSplineSet
Validated: 1
EndChar

StartChar: p
Encoding: 112 112 42
Width: 594
VWidth: 0
Flags: W
HStem: -77.541 21G<170.023 209.958> 656.012 20G<340.697 358.535>
VStem: 336.732 25.7676<122.98 331.145 432.78 499.219 599.445 675.313> 494.896 33.2988<34.5036 193.823 258.623 349.6>
LayerCount: 2
Fore
SplineSet
344.662109375 676.01171875 m 2,0,-1
 354.5703125 676.01171875 l 2,1,2
 362.5 676.01171875 362.5 676.01171875 362.5 668.083984375 c 0,3,4
 362.5 629.276367188 362.5 629.276367188 379.076171875 589.521484375 c 128,-1,5
 395.65234375 549.765625 395.65234375 549.765625 419.310546875 515.770507812 c 128,-1,6
 442.967773438 481.776367188 442.967773438 481.776367188 466.625 447.78125 c 128,-1,7
 490.283203125 413.786132812 490.283203125 413.786132812 506.859375 374.03125 c 128,-1,8
 523.435546875 334.276367188 523.435546875 334.276367188 523.435546875 295.46875 c 0,9,10
 523.435546875 259.225585938 523.435546875 259.225585938 505.203125 220.154296875 c 1,11,12
 528.1953125 172.888671875 528.1953125 172.888671875 528.1953125 127.396484375 c 0,13,14
 528.1953125 56.60546875 528.1953125 56.60546875 494.896484375 -17.685546875 c 0,15,16
 488.946289062 -27.19921875 488.946289062 -27.19921875 479.830078125 -27.19921875 c 0,17,18
 471.590820312 -27.19921875 471.590820312 -27.19921875 465.745117188 -21.02734375 c 128,-1,19
 459.8984375 -14.85546875 459.8984375 -14.85546875 461.59765625 -5.79296875 c 0,20,21
 494.896484375 60.802734375 494.896484375 60.802734375 494.896484375 127.396484375 c 0,22,23
 494.896484375 154.677734375 494.896484375 154.677734375 483.11328125 183.252929688 c 128,-1,24
 471.330078125 211.828125 471.330078125 211.828125 449.225585938 239.55078125 c 128,-1,25
 427.120117188 267.272460938 427.120117188 267.272460938 408.143554688 286.985351562 c 128,-1,26
 389.16796875 306.698242188 389.16796875 306.698242188 362.5 331.14453125 c 1,27,-1
 362.5 271.685546875 l 1,28,-1
 362.5 77.013671875 l 2,29,30
 362.5 76.041015625 362.5 76.041015625 362.2421875 75.033203125 c 0,31,32
 362.458984375 72 362.458984375 72 362.458984375 69.126953125 c 0,33,34
 362.458984375 -0.3525390625 362.458984375 -0.3525390625 280.802734375 -49 c 0,35,36
 231.870117188 -77.541015625 231.870117188 -77.541015625 188.044921875 -77.541015625 c 0,37,38
 152.001953125 -77.541015625 152.001953125 -77.541015625 126.81640625 -58.884765625 c 128,-1,39
 101.630859375 -40.228515625 101.630859375 -40.228515625 101.630859375 -5.396484375 c 0,40,41
 101.630859375 64.0859375 101.630859375 64.0859375 183.28515625 112.73046875 c 0,42,43
 232.215820312 141.271484375 232.215820312 141.271484375 276.04296875 141.271484375 c 0,44,45
 312.78125 141.271484375 312.78125 141.271484375 336.732421875 122.98046875 c 1,46,-1
 336.732421875 668.083984375 l 2,47,48
 336.732421875 676.01171875 336.732421875 676.01171875 344.662109375 676.01171875 c 2,0,-1
362.5 499.21875 m 1,49,50
 362.5 466.44921875 362.5 466.44921875 375.623046875 431.694335938 c 128,-1,51
 388.745117188 396.940429688 388.745117188 396.940429688 403.633789062 374.091796875 c 128,-1,52
 418.521484375 351.244140625 418.521484375 351.244140625 445.190429688 314.161132812 c 128,-1,53
 471.858398438 277.078125 471.858398438 277.078125 483.796875 258.20703125 c 1,54,55
 489.345703125 274.857421875 489.345703125 274.857421875 489.345703125 295.46875 c 0,56,57
 489.345703125 322.462890625 489.345703125 322.462890625 478.12109375 350.80859375 c 128,-1,58
 466.896484375 379.155273438 466.896484375 379.155273438 445.533203125 407.099609375 c 128,-1,59
 424.168945312 435.044921875 424.168945312 435.044921875 406.299804688 454.541992188 c 128,-1,60
 388.4296875 474.040039062 388.4296875 474.040039062 362.5 499.21875 c 1,49,50
EndSplineSet
Validated: 1
EndChar

StartChar: k
Encoding: 107 107 43
Width: 598
VWidth: 0
Flags: W
HStem: -78.0391 24.8672<131.265 191.728> 111.574 24.0898<276.736 336.994> 624.412 20G<348.19 365.675>
VStem: 99.5176 24.8672<-45.8908 4.41779> 344.305 25.2559<52.1431 104.742 126.734 643.494>
LayerCount: 2
Fore
SplineSet
352.076171875 644.412109375 m 2,0,-1
 361.7890625 644.412109375 l 2,1,2
 369.560546875 644.412109375 369.560546875 644.412109375 369.560546875 636.642578125 c 2,3,-1
 369.560546875 87.755859375 l 2,4,5
 369.560546875 86.23828125 369.560546875 86.23828125 369.366210938 84.138671875 c 128,-1,6
 369.171875 82.0380859375 369.171875 82.0380859375 369.171875 71.419921875 c 128,-1,7
 369.171875 60.8017578125 369.171875 60.8017578125 361.400390625 36.1953125 c 0,8,9
 345.030273438 -15.64453125 345.030273438 -15.64453125 310.888671875 -38.40625 c 0,10,11
 251.440429688 -78.0390625 251.440429688 -78.0390625 164.794921875 -78.0390625 c 0,12,13
 135.658203125 -78.0390625 135.658203125 -78.0390625 117.587890625 -63.8515625 c 128,-1,14
 99.517578125 -49.6650390625 99.517578125 -49.6650390625 99.517578125 -27.2626953125 c 128,-1,15
 99.517578125 -4.861328125 99.517578125 -4.861328125 108.06640625 22.20703125 c 0,16,17
 124.64453125 74.705078125 124.64453125 74.705078125 157.80078125 96.80859375 c 0,18,19
 216.084960938 135.6640625 216.084960938 135.6640625 304.671875 135.6640625 c 0,20,21
 328.494140625 135.6640625 328.494140625 135.6640625 344.3046875 126.734375 c 1,22,-1
 344.3046875 636.642578125 l 2,23,24
 344.3046875 644.412109375 344.3046875 644.412109375 352.076171875 644.412109375 c 2,0,-1
327.315429688 107.576171875 m 128,-1,26
 319.865234375 111.57421875 319.865234375 111.57421875 312.657226562 111.57421875 c 128,-1,27
 305.450195312 111.57421875 305.450195312 111.57421875 302.341796875 110.796875 c 0,28,29
 280.771484375 104.534179688 280.771484375 104.534179688 246.165039062 82.0869140625 c 128,-1,30
 211.55859375 59.6396484375 211.55859375 59.6396484375 202.883789062 54.041015625 c 128,-1,31
 194.209960938 48.4423828125 194.209960938 48.4423828125 190.95703125 46.314453125 c 128,-1,32
 187.704101562 44.1865234375 187.704101562 44.1865234375 179.865234375 38.9521484375 c 128,-1,33
 172.02734375 33.716796875 172.02734375 33.716796875 168.166015625 30.90625 c 128,-1,34
 164.3046875 28.095703125 164.3046875 28.095703125 157.9765625 23.388671875 c 128,-1,35
 151.6484375 18.681640625 151.6484375 18.681640625 147.852539062 15.3525390625 c 0,36,37
 137.8125 6.5478515625 137.8125 6.5478515625 131.098632812 -1.38671875 c 128,-1,38
 124.384765625 -9.3212890625 124.384765625 -9.3212890625 124.384765625 -22.0830078125 c 128,-1,39
 124.384765625 -34.8447265625 124.384765625 -34.8447265625 134.337890625 -44.0087890625 c 128,-1,40
 144.291992188 -53.171875 144.291992188 -53.171875 153.764648438 -53.171875 c 128,-1,41
 163.237304688 -53.171875 163.237304688 -53.171875 166.349609375 -52.39453125 c 0,42,43
 189.323242188 -45.724609375 189.323242188 -45.724609375 256.118164062 -2.3984375 c 128,-1,44
 322.913085938 40.927734375 322.913085938 40.927734375 333.608398438 53.880859375 c 128,-1,45
 344.3046875 66.8349609375 344.3046875 66.8349609375 344.3046875 77.7724609375 c 128,-1,46
 344.3046875 88.7099609375 344.3046875 88.7099609375 339.53515625 96.14453125 c 128,-1,25
 334.765625 103.578125 334.765625 103.578125 327.315429688 107.576171875 c 128,-1,26
EndSplineSet
Validated: 1
EndChar

StartChar: l
Encoding: 108 108 44
Width: 300
VWidth: 0
Flags: W
HStem: 597.43 20G<336.737 354.081> 597.43 20G<336.737 354.081>
VStem: 332.883 25.0527<95.7441 616.434>
LayerCount: 2
Fore
SplineSet
236.591796875 617.4296875 m 2,0,-1
 246.2265625 617.4296875 l 2,1,2
 253.935546875 617.4296875 253.935546875 617.4296875 253.935546875 609.720703125 c 2,3,-1
 253.935546875 51.048828125 l 2,4,5
 253.935546875 50.10546875 253.935546875 50.10546875 253.685546875 49.12890625 c 0,6,7
 253.896484375 46.1923828125 253.896484375 46.1923828125 253.896484375 43.37890625 c 0,8,9
 253.896484375 -24.1796875 253.896484375 -24.1796875 174.49609375 -71.482421875 c 0,10,11
 126.923828125 -99.232421875 126.923828125 -99.232421875 84.3046875 -99.232421875 c 0,12,13
 49.2587890625 -99.232421875 49.2587890625 -99.232421875 24.7685546875 -81.0927734375 c 128,-1,14
 0.279296875 -62.9521484375 0.279296875 -62.9521484375 0.279296875 -29.083984375 c 0,15,16
 0.279296875 38.474609375 0.279296875 38.474609375 79.6796875 85.77734375 c 0,17,18
 127.251953125 113.52734375 127.251953125 113.52734375 169.87109375 113.52734375 c 0,19,20
 205.596679688 113.52734375 205.596679688 113.52734375 228.8828125 95.744140625 c 1,21,-1
 228.8828125 609.720703125 l 2,22,23
 228.8828125 617.4296875 228.8828125 617.4296875 236.591796875 617.4296875 c 2,0,-1
EndSplineSet
Validated: 1
EndChar

StartChar: uniE102
Encoding: 57602 57602 45
Width: 327
Flags: W
HStem: 299.912 136.092<-0.669922 326.473>
VStem: -0.669922 327.143<299.912 436.004>
LayerCount: 2
Fore
SplineSet
317.749023438 299.912109375 m 6,0,-1
 8.0537109375 299.912109375 l 6,1,2
 -0.669921875 299.912109375 -0.669921875 299.912109375 -0.669921875 308.63671875 c 6,3,-1
 -0.669921875 427.280273438 l 6,4,5
 -0.669921875 436.00390625 -0.669921875 436.00390625 8.0537109375 436.00390625 c 6,6,-1
 317.749023438 436.00390625 l 6,7,8
 326.47265625 436.00390625 326.47265625 436.00390625 326.47265625 427.280273438 c 6,9,-1
 326.47265625 308.63671875 l 6,10,11
 326.47265625 299.912109375 326.47265625 299.912109375 317.749023438 299.912109375 c 6,0,-1
EndSplineSet
Validated: 1
EndChar

StartChar: uniE103
Encoding: 57603 57603 46
Width: 327
Flags: W
HStem: 199.912 136.092<-0.669922 326.473>
VStem: -0.669922 327.143<199.912 336.004>
LayerCount: 2
Fore
SplineSet
317.749023438 199.912109375 m 2,0,-1
 8.0537109375 199.912109375 l 2,1,2
 -0.669921875 199.912109375 -0.669921875 199.912109375 -0.669921875 208.63671875 c 2,3,-1
 -0.669921875 327.280273438 l 2,4,5
 -0.669921875 336.00390625 -0.669921875 336.00390625 8.0537109375 336.00390625 c 2,6,-1
 317.749023438 336.00390625 l 2,7,8
 326.47265625 336.00390625 326.47265625 336.00390625 326.47265625 327.280273438 c 2,9,-1
 326.47265625 208.63671875 l 2,10,11
 326.47265625 199.912109375 326.47265625 199.912109375 317.749023438 199.912109375 c 2,0,-1
EndSplineSet
Validated: 1
EndChar

StartChar: uniE108
Encoding: 57608 57608 47
Width: 696
Flags: W
HStem: 122 178<160 535> 122 44<10.1882 160 535 684.812>
LayerCount: 2
Fore
SplineSet
670 122 m 2,0,-1
 25 122 l 2,1,2
 16 122 16 122 10 128.5 c 128,-1,3
 4 135 4 135 4 144 c 128,-1,4
 4 153 4 153 10 159.5 c 128,-1,5
 16 166 16 166 25 166 c 2,6,-1
 160 166 l 1,7,-1
 160 292 l 2,8,9
 160 300 160 300 168 300 c 2,10,-1
 527 300 l 2,11,12
 535 300 535 300 535 292 c 2,13,-1
 535 166 l 1,14,-1
 670 166 l 2,15,16
 679 166 679 166 685 159.5 c 128,-1,17
 691 153 691 153 691 144 c 128,-1,18
 691 135 691 135 685 128.5 c 128,-1,19
 679 122 679 122 670 122 c 2,0,-1
EndSplineSet
Validated: 1
EndChar

StartChar: uniE10A
Encoding: 57610 57610 48
Width: 250
Flags: W
HStem: 414 51<67.5 174.731>
VStem: -2 128<472.737 543.342> 76 48<101.055 129.733> 226 24<516.208 542.992>
LayerCount: 2
Fore
SplineSet
76 110 m 1,0,-1
 192 437 l 1,1,2
 125 414 125 414 85 414 c 0,3,4
 50 414 50 414 24 437 c 128,-1,5
 -2 460 -2 460 -2 494 c 0,6,7
 -2 523 -2 523 18.5 544 c 128,-1,8
 39 565 39 565 69 565 c 0,9,10
 89 565 89 565 104.5 554 c 128,-1,11
 120 543 120 543 126 525 c 0,12,13
 128 518 128 518 132 499 c 128,-1,14
 136 480 136 480 142 472.5 c 128,-1,15
 148 465 148 465 161 465 c 0,16,17
 172 465 172 465 195.5 492.5 c 128,-1,18
 219 520 219 520 226 535 c 0,19,20
 230 543 230 543 238.5 543 c 128,-1,21
 247 543 247 543 250 535 c 1,22,-1
 124 110 l 1,23,24
 114 101 114 101 100 101 c 128,-1,25
 86 101 86 101 76 110 c 1,0,-1
EndSplineSet
Validated: 1
EndChar

StartChar: uniE10B
Encoding: 57611 57611 49
Width: 301
Flags: W
LayerCount: 2
Fore
SplineSet
71 -87 m 5,0,-1
 171 240 l 5,1,2
 109 217 109 217 62 217 c 4,3,4
 27 217 27 217 1 240 c 132,-1,5
 -25 263 -25 263 -25 297 c 4,6,7
 -25 326 -25 326 -4.5 347 c 132,-1,8
 16 368 16 368 46 368 c 4,9,10
 66 368 66 368 81.5 357 c 132,-1,11
 97 346 97 346 103 328 c 4,12,13
 105 321 105 321 109 302 c 132,-1,14
 113 283 113 283 119 275.5 c 132,-1,15
 125 268 125 268 138 268 c 4,16,17
 150 268 150 268 173 295.5 c 132,-1,18
 196 323 196 323 200 338 c 6,19,-1
 247 490 l 5,20,21
 182 467 182 467 140 467 c 4,22,23
 105 467 105 467 79 490 c 132,-1,24
 53 513 53 513 53 547 c 4,25,26
 53 576 53 576 73.5 597 c 132,-1,27
 94 618 94 618 124 618 c 4,28,29
 144 618 144 618 159.5 607 c 132,-1,30
 175 596 175 596 181 578 c 4,31,32
 183 571 183 571 187 552 c 132,-1,33
 191 533 191 533 197 525.5 c 132,-1,34
 203 518 203 518 216 518 c 4,35,36
 227 518 227 518 248 545 c 132,-1,37
 269 572 269 572 276 588 c 4,38,39
 279 596 279 596 288 596 c 132,-1,40
 297 596 297 596 300 588 c 5,41,-1
 118 -87 l 5,42,43
 107 -96 107 -96 95 -96 c 4,44,45
 82 -96 82 -96 71 -87 c 5,0,-1
EndSplineSet
Validated: 1
EndChar

StartChar: uni0180
Encoding: 384 384 50
Width: 360
Flags: W
LayerCount: 2
Fore
SplineSet
179 473 m 128,-1,1
 156 473 156 473 140.5 457.5 c 128,-1,2
 125 442 125 442 119 411.5 c 128,-1,3
 113 381 113 381 111 355 c 128,-1,4
 109 329 109 329 109 290 c 2,5,-1
 109 250 l 1,6,-1
 109 210 l 2,7,8
 109 171 109 171 111 145 c 128,-1,9
 113 119 113 119 119 88.5 c 128,-1,10
 125 58 125 58 140.5 42.5 c 128,-1,11
 156 27 156 27 179 27 c 128,-1,12
 202 27 202 27 217.5 42.5 c 128,-1,13
 233 58 233 58 239.5 88.5 c 128,-1,14
 246 119 246 119 248 145.5 c 128,-1,15
 250 172 250 172 250 210 c 2,16,-1
 250 250 l 1,17,-1
 250 290 l 2,18,19
 250 328 250 328 248 354.5 c 128,-1,20
 246 381 246 381 239.5 411.5 c 128,-1,21
 233 442 233 442 217.5 457.5 c 128,-1,0
 202 473 202 473 179 473 c 128,-1,1
179 500 m 128,-1,23
 261 500 261 500 310 425.5 c 128,-1,24
 359 351 359 351 359 250 c 128,-1,25
 359 149 359 149 310 74.5 c 128,-1,26
 261 0 261 0 179 0 c 128,-1,27
 97 0 97 0 48.5 74.5 c 128,-1,28
 0 149 0 149 0 250 c 128,-1,29
 0 351 0 351 48.5 425.5 c 128,-1,22
 97 500 97 500 179 500 c 128,-1,23
EndSplineSet
Validated: 1
EndChar

StartChar: uni0181
Encoding: 385 385 51
Width: 298
Flags: W
LayerCount: 2
Fore
SplineSet
0 250 m 6,0,-1
 109 500 l 6,1,2
 110 503 110 503 114 503 c 4,3,4
 119 503 119 503 124 500 c 4,5,6
 152 487 152 487 164 487 c 4,7,8
 175 487 175 487 203 500 c 4,9,10
 204 501 204 501 207 501 c 4,11,12
 218 501 218 501 218 485 c 6,13,-1
 218 109 l 6,14,15
 218 74 218 74 237 47.5 c 132,-1,16
 256 21 256 21 286 21 c 4,17,18
 297 21 297 21 297 11 c 4,19,20
 297 0 297 0 286 0 c 4,21,22
 266 0 266 0 225 6.5 c 132,-1,23
 184 13 184 13 164 13 c 132,-1,24
 144 13 144 13 103 6.5 c 132,-1,25
 62 0 62 0 41 0 c 4,26,27
 30 0 30 0 30 11 c 4,28,29
 30 21 30 21 41 21 c 4,30,31
 71 21 71 21 90 47.5 c 132,-1,32
 109 74 109 74 109 109 c 6,33,-1
 109 367 l 6,34,35
 109 384 109 384 94 384 c 4,36,37
 88 384 88 384 85 378 c 6,38,-1
 24 239 l 6,39,40
 21 231 21 231 13 231 c 4,41,42
 -1 231 -1 231 -1 244 c 4,43,44
 -1 248 -1 248 0 250 c 6,0,-1
EndSplineSet
Validated: 1
EndChar

StartChar: uni0182
Encoding: 386 386 52
Width: 360
Flags: W
LayerCount: 2
Fore
SplineSet
21 10 m 0,0,1
 20 0 20 0 11 0 c 0,2,3
 0 0 0 0 0 10 c 0,4,5
 0 51 0 51 17.5 84 c 128,-1,6
 35 117 35 117 61 137.5 c 128,-1,7
 87 158 87 158 118 181 c 128,-1,8
 149 204 149 204 175 224.5 c 128,-1,9
 201 245 201 245 218.5 279 c 128,-1,10
 236 313 236 313 236 355 c 0,11,12
 236 406 236 406 217 442.5 c 128,-1,13
 198 479 198 479 161 479 c 0,14,15
 141 479 141 479 127 469 c 128,-1,16
 113 459 113 459 113 442 c 0,17,18
 113 429 113 429 130.5 408.5 c 128,-1,19
 148 388 148 388 148 374 c 0,20,21
 148 346 148 346 128 325.5 c 128,-1,22
 108 305 108 305 79 305 c 0,23,24
 51 305 51 305 31 325 c 128,-1,25
 11 345 11 345 11 374 c 0,26,27
 11 429 11 429 55.5 464.5 c 128,-1,28
 100 500 100 500 161 500 c 0,29,30
 235 500 235 500 290 459.5 c 128,-1,31
 345 419 345 419 345 355 c 0,32,33
 345 300 345 300 317 262 c 128,-1,34
 289 224 289 224 254 207.5 c 128,-1,35
 219 191 219 191 167 168.5 c 128,-1,36
 115 146 115 146 88 126 c 1,37,38
 108 131 108 131 125 131 c 0,39,40
 177 131 177 131 226 98 c 0,41,42
 262 73 262 73 296 73 c 0,43,44
 331 73 331 73 338 101 c 0,45,46
 339 109 339 109 348 109 c 0,47,48
 359 109 359 109 359 99 c 0,49,50
 359 56 359 56 314 28 c 128,-1,51
 269 0 269 0 227 0 c 0,52,53
 170 0 170 0 133 42 c 0,54,55
 113 65 113 65 83 65 c 0,56,57
 60 65 60 65 41.5 50 c 128,-1,58
 23 35 23 35 21 10 c 0,0,1
EndSplineSet
Validated: 1
EndChar

StartChar: uni0183
Encoding: 387 387 53
Width: 327
Flags: W
LayerCount: 2
Fore
SplineSet
147 479 m 0,0,1
 89 479 89 479 89 446 c 0,2,3
 89 435 89 435 107 422.5 c 128,-1,4
 125 410 125 410 125 399 c 0,5,6
 125 375 125 375 108.5 358.5 c 128,-1,7
 92 342 92 342 68 342 c 128,-1,8
 44 342 44 342 27.5 358.5 c 128,-1,9
 11 375 11 375 11 399 c 0,10,11
 11 444 11 444 51.5 472 c 128,-1,12
 92 500 92 500 147 500 c 0,13,14
 219 500 219 500 265.5 471 c 128,-1,15
 312 442 312 442 312 385 c 0,16,17
 312 345 312 345 304.5 320.5 c 128,-1,18
 297 296 297 296 271 284 c 0,19,20
 258 278 258 278 258 264 c 128,-1,21
 258 250 258 250 271 244 c 0,22,23
 326 219 326 219 326 140 c 0,24,25
 326 74 326 74 276.5 37 c 128,-1,26
 227 0 227 0 151 0 c 0,27,28
 90 0 90 0 45 30.5 c 128,-1,29
 0 61 0 61 0 111 c 0,30,31
 0 138 0 138 19 157 c 128,-1,32
 38 176 38 176 65 176 c 128,-1,33
 92 176 92 176 111 157 c 128,-1,34
 130 138 130 138 130 111 c 0,35,36
 130 98 130 98 110 84 c 128,-1,37
 90 70 90 70 90 58 c 0,38,39
 90 40 90 40 108 30.5 c 128,-1,40
 126 21 126 21 151 21 c 0,41,42
 186 21 186 21 201.5 55.5 c 128,-1,43
 217 90 217 90 217 140 c 0,44,45
 217 169 217 169 216 184 c 128,-1,46
 215 199 215 199 210 217 c 128,-1,47
 205 235 205 235 193.5 242.5 c 128,-1,48
 182 250 182 250 163 250 c 2,49,-1
 81 250 l 2,50,51
 68 250 68 250 68 264 c 0,52,53
 68 277 68 277 81 277 c 2,54,-1
 163 277 l 2,55,56
 182 277 182 277 193.5 284.5 c 128,-1,57
 205 292 205 292 210 309 c 128,-1,58
 215 326 215 326 216 341.5 c 128,-1,59
 217 357 217 357 217 385 c 0,60,61
 217 479 217 479 147 479 c 0,0,1
EndSplineSet
Validated: 1
EndChar

StartChar: uni0184
Encoding: 388 388 54
Width: 392
Flags: W
LayerCount: 2
Fore
SplineSet
208 319 m 0,0,1
 249 344 249 344 265 366 c 0,2,3
 276 381 276 381 290 415 c 0,4,5
 293 422 293 422 301.5 420 c 128,-1,6
 310 418 310 418 310 408 c 2,7,-1
 310 152 l 1,8,-1
 378 152 l 2,9,10
 391 152 391 152 391 138 c 0,11,12
 391 125 391 125 378 125 c 2,13,-1
 310 125 l 1,14,-1
 310 109 l 2,15,16
 310 74 310 74 329 47.5 c 128,-1,17
 348 21 348 21 378 21 c 0,18,19
 388 21 388 21 388 11 c 0,20,21
 388 0 388 0 378 0 c 0,22,23
 358 0 358 0 317 6.5 c 128,-1,24
 276 13 276 13 255 13 c 128,-1,25
 234 13 234 13 193 6.5 c 128,-1,26
 152 0 152 0 132 0 c 0,27,28
 122 0 122 0 122 11 c 0,29,30
 122 21 122 21 132 21 c 0,31,32
 162 21 162 21 181 47.5 c 128,-1,33
 200 74 200 74 200 109 c 2,34,-1
 200 125 l 1,35,-1
 27 125 l 2,36,37
 13 125 13 125 5.5 132 c 128,-1,38
 -2 139 -2 139 -2 146 c 0,39,40
 -2 150 -2 150 0 152 c 0,41,42
 146 325 146 325 146 485 c 0,43,44
 146 500 146 500 158 500 c 2,45,-1
 161 500 l 1,46,47
 202 487 202 487 228 487 c 128,-1,48
 254 487 254 487 295 500 c 0,49,50
 297 501 297 501 299 501 c 0,51,52
 306 501 306 501 310 495.5 c 128,-1,53
 314 490 314 490 310 485 c 2,54,-1
 27 152 l 1,55,-1
 200 152 l 1,56,-1
 200 299 l 2,57,58
 200 314 200 314 208 319 c 0,0,1
EndSplineSet
Validated: 1
EndChar

StartChar: uni0185
Encoding: 389 389 55
Width: 331
Flags: W
LayerCount: 2
Fore
SplineSet
42 500 m 1,0,1
 115 487 115 487 179 487 c 128,-1,2
 243 487 243 487 316 500 c 1,3,-1
 319 500 l 2,4,5
 327 500 327 500 331 494.5 c 128,-1,6
 335 489 335 489 331 485 c 0,7,8
 244 398 244 398 68 398 c 0,9,10
 62 398 62 398 57.5 393.5 c 128,-1,11
 53 389 53 389 53 383 c 2,12,-1
 53 275 l 1,13,14
 100 322 100 322 157 322 c 0,15,16
 245 322 245 322 293 282 c 128,-1,17
 341 242 341 242 341 161 c 0,18,19
 341 93 341 93 288 46.5 c 128,-1,20
 235 0 235 0 162 0 c 0,21,22
 96 0 96 0 48 29.5 c 128,-1,23
 0 59 0 59 0 111 c 0,24,25
 0 138 0 138 19 157 c 128,-1,26
 38 176 38 176 65 176 c 128,-1,27
 92 176 92 176 111 157 c 128,-1,28
 130 138 130 138 130 111 c 0,29,30
 130 98 130 98 110 84 c 128,-1,31
 90 70 90 70 90 58 c 0,32,33
 90 21 90 21 162 21 c 0,34,35
 232 21 232 21 232 161 c 0,36,37
 232 217 232 217 214 256 c 128,-1,38
 196 295 196 295 157 295 c 0,39,40
 86 295 86 295 51 247 c 0,41,42
 47 242 47 242 40 242 c 0,43,44
 27 242 27 242 27 255 c 2,45,-1
 27 485 l 2,46,47
 27 500 27 500 40 500 c 2,48,-1
 42 500 l 1,0,1
EndSplineSet
Validated: 1
EndChar

StartChar: uni0186
Encoding: 390 390 56
Width: 333
Flags: W
LayerCount: 2
Fore
SplineSet
166 255 m 0,0,1
 146 255 146 255 133.5 247 c 128,-1,2
 121 239 121 239 116 220 c 128,-1,3
 111 201 111 201 110 185 c 128,-1,4
 109 169 109 169 109 138 c 128,-1,5
 109 107 109 107 110 91 c 128,-1,6
 111 75 111 75 116 56 c 128,-1,7
 121 37 121 37 133.5 29 c 128,-1,8
 146 21 146 21 166 21 c 0,9,10
 206 21 206 21 218 50 c 128,-1,11
 230 79 230 79 230 138 c 128,-1,12
 230 197 230 197 218 226 c 128,-1,13
 206 255 206 255 166 255 c 0,0,1
109 263 m 1,14,15
 147 277 147 277 166 277 c 0,16,17
 243 277 243 277 288 241.5 c 128,-1,18
 333 206 333 206 333 138 c 128,-1,19
 333 70 333 70 288 35 c 128,-1,20
 243 0 243 0 166 0 c 0,21,22
 113 0 113 0 74.5 37 c 128,-1,23
 36 74 36 74 18 129.5 c 128,-1,24
 0 185 0 185 0 250 c 0,25,26
 0 351 0 351 51 425.5 c 128,-1,27
 102 500 102 500 186 500 c 0,28,29
 241 500 241 500 281.5 472 c 128,-1,30
 322 444 322 444 322 399 c 0,31,32
 322 372 322 372 303 353 c 128,-1,33
 284 334 284 334 257 334 c 128,-1,34
 230 334 230 334 211 353 c 128,-1,35
 192 372 192 372 192 399 c 0,36,37
 192 410 192 410 211.5 423 c 128,-1,38
 231 436 231 436 231 448 c 0,39,40
 231 462 231 462 217.5 470.5 c 128,-1,41
 204 479 204 479 186 479 c 0,42,43
 161 479 161 479 144.5 467.5 c 128,-1,44
 128 456 128 456 120.5 433 c 128,-1,45
 113 410 113 410 110.5 386.5 c 128,-1,46
 108 363 108 363 108 328 c 0,47,48
 108 317 108 317 108.5 295.5 c 128,-1,49
 109 274 109 274 109 263 c 1,14,15
EndSplineSet
Validated: 1
EndChar

StartChar: uni0187
Encoding: 391 391 57
Width: 333
Flags: W
LayerCount: 2
Fore
SplineSet
64 417 m 0,0,1
 27 417 27 417 27 350 c 2,2,-1
 27 263 l 2,3,4
 27 250 27 250 13 250 c 0,5,6
 0 250 0 250 0 263 c 2,7,-1
 0 487 l 2,8,9
 0 500 0 500 13 500 c 0,10,11
 27 500 27 500 27 487 c 2,12,-1
 27 473 l 2,13,14
 27 469 27 469 29.5 464.5 c 128,-1,15
 32 460 32 460 35 458.5 c 128,-1,16
 38 457 38 457 40 459 c 0,17,18
 69 500 69 500 116 500 c 0,19,20
 161 500 161 500 200 463 c 0,21,22
 220 445 220 445 244 445 c 0,23,24
 294 445 294 445 328 494 c 0,25,26
 332 500 332 500 338 500 c 0,27,28
 343 500 343 500 347.5 496 c 128,-1,29
 352 492 352 492 352 487 c 128,-1,30
 352 482 352 482 350 479 c 0,31,32
 273 369 273 369 229 275 c 128,-1,33
 185 181 185 181 185 86 c 0,34,35
 185 48 185 48 192 13 c 0,36,37
 193 7 193 7 189.5 2 c 128,-1,38
 186 -3 186 -3 181 -3 c 0,39,40
 180 -3 180 -3 179 -2.5 c 128,-1,41
 178 -2 178 -2 177 -2 c 0,42,43
 128 13 128 13 108 13 c 128,-1,44
 88 13 88 13 39 -2 c 0,45,46
 38 -2 38 -2 37 -2.5 c 128,-1,47
 36 -3 36 -3 35 -3 c 0,48,49
 29 -3 29 -3 25.5 2 c 128,-1,50
 22 7 22 7 24 13 c 0,51,52
 62 102 62 102 114.5 185.5 c 128,-1,53
 167 269 167 269 245 379 c 1,54,55
 212 360 212 360 183 360 c 0,56,57
 149 360 149 360 124 384 c 0,58,59
 89 417 89 417 64 417 c 0,0,1
EndSplineSet
Validated: 1
EndChar

StartChar: uni0188
Encoding: 392 392 58
Width: 360
Flags: W
LayerCount: 2
Fore
SplineSet
252 285 m 1,0,1
 306 341 306 341 306 388 c 0,2,3
 306 428 306 428 270.5 453.5 c 128,-1,4
 235 479 235 479 187 479 c 0,5,6
 152 479 152 479 130.5 456.5 c 128,-1,7
 109 434 109 434 109 404 c 0,8,9
 109 367 109 367 140 349 c 2,10,-1
 252 285 l 1,0,1
279 269 m 1,11,12
 364 220 364 220 364 142 c 0,13,14
 364 84 364 84 314.5 42 c 128,-1,15
 265 0 265 0 179 0 c 0,16,17
 107 0 107 0 53.5 38.5 c 128,-1,18
 0 77 0 77 0 138 c 0,19,20
 0 162 0 162 13.5 186 c 128,-1,21
 27 210 27 210 39 222 c 128,-1,22
 51 234 51 234 78 259 c 1,23,24
 14 300 14 300 14 368 c 0,25,26
 14 422 14 422 60 461 c 128,-1,27
 106 500 106 500 187 500 c 0,28,29
 251 500 251 500 298 469.5 c 128,-1,30
 345 439 345 439 345 388 c 0,31,32
 345 356 345 356 328 329 c 128,-1,33
 311 302 311 302 279 269 c 1,11,12
106 243 m 1,34,35
 74 215 74 215 57 191.5 c 128,-1,36
 40 168 40 168 40 138 c 0,37,38
 40 88 40 88 81.5 54.5 c 128,-1,39
 123 21 123 21 179 21 c 0,40,41
 218 21 218 21 242.5 46.5 c 128,-1,42
 267 72 267 72 267 106 c 0,43,44
 267 151 267 151 230 172 c 2,45,-1
 106 243 l 1,34,35
EndSplineSet
Validated: 1
EndChar

StartChar: uni0189
Encoding: 393 393 59
Width: 333
Flags: W
LayerCount: 2
Fore
SplineSet
166 245 m 0,0,1
 186 245 186 245 198.5 253 c 128,-1,2
 211 261 211 261 216 279.5 c 128,-1,3
 221 298 221 298 222.5 315 c 128,-1,4
 224 332 224 332 224 362 c 128,-1,5
 224 392 224 392 222.5 409 c 128,-1,6
 221 426 221 426 216 444.5 c 128,-1,7
 211 463 211 463 198.5 471 c 128,-1,8
 186 479 186 479 166 479 c 0,9,10
 126 479 126 479 114 450 c 128,-1,11
 102 421 102 421 102 362 c 128,-1,12
 102 303 102 303 114 274 c 128,-1,13
 126 245 126 245 166 245 c 0,0,1
224 237 m 1,14,15
 186 223 186 223 166 223 c 0,16,17
 89 223 89 223 44.5 258.5 c 128,-1,18
 0 294 0 294 0 362 c 128,-1,19
 0 430 0 430 44.5 465 c 128,-1,20
 89 500 89 500 166 500 c 0,21,22
 245 500 245 500 289 425.5 c 128,-1,23
 333 351 333 351 333 250 c 128,-1,24
 333 149 333 149 281.5 74.5 c 128,-1,25
 230 0 230 0 146 0 c 0,26,27
 91 0 91 0 51 28 c 128,-1,28
 11 56 11 56 11 101 c 0,29,30
 11 128 11 128 30 147 c 128,-1,31
 49 166 49 166 76 166 c 128,-1,32
 103 166 103 166 122 147 c 128,-1,33
 141 128 141 128 141 101 c 0,34,35
 141 90 141 90 121.5 77 c 128,-1,36
 102 64 102 64 102 52 c 0,37,38
 102 38 102 38 115 29.5 c 128,-1,39
 128 21 128 21 146 21 c 0,40,41
 171 21 171 21 187.5 32.5 c 128,-1,42
 204 44 204 44 211.5 67 c 128,-1,43
 219 90 219 90 221.5 113.5 c 128,-1,44
 224 137 224 137 224 172 c 2,45,-1
 224 237 l 1,14,15
EndSplineSet
Validated: 1
EndChar

StartChar: D
Encoding: 68 68 60
Width: 320
Flags: W
HStem: -124.383 28.8984<21.2135 91.214> 95.9561 27.9941<190.948 259.99>
VStem: -15.9004 28.8975<-86.969 -28.6929> 268.553 28.8965<28.2186 87.5097 113.471 790.383>
LayerCount: 2
Fore
SplineSet
268.552734375 58.931640625 m 0,0,1
 268.552734375 74.6595801318 268.552734375 74.6595801318 256.986850262 85.3078174096 c 128,-1,2
 245.420966149 95.9560546875 245.420966149 95.9560546875 230.625976562 95.9560546875 c 0,3,4
 223.401367188 95.9560546875 223.401367188 95.9560546875 219.790039062 95.0537109375 c 0,5,6
 194.725265759 87.7771797355 194.725265759 87.7771797355 116.844726562 37.259765625 c 0,7,8
 38.7608409478 -13.387267448 38.7608409478 -13.387267448 22.9296875 -33.17578125 c 0,9,10
 12.9970703125 -44.5277821697 12.9970703125 -44.5277821697 12.9970703125 -58.4609375 c 0,11,12
 12.9970703125 -74.1882259637 12.9970703125 -74.1882259637 24.5629932886 -84.8363004819 c 128,-1,13
 36.1289162647 -95.484375 36.1289162647 -95.484375 50.923828125 -95.484375 c 0,14,15
 58.1474609375 -95.484375 58.1474609375 -95.484375 61.759765625 -94.5830078125 c 0,16,17
 88.4622762882 -86.8300950849 88.4622762882 -86.8300950849 165.608398438 -36.7890625 c 0,18,19
 243.696511474 13.8644754134 243.696511474 13.8644754134 259.522460938 33.646484375 c 0,20,21
 268.552734375 43.9671954658 268.552734375 43.9671954658 268.552734375 58.931640625 c 0,0,1
297.448743765 59.248046875 m 2,22,23
 297.448743765 59.0900390995 297.448743765 59.0900390995 297.44921875 58.931640625 c 0,24,25
 297.44921875 36.9556206206 297.44921875 36.9556206206 288.419921875 8.3623046875 c 0,26,27
 269.395152176 -51.8802277485 269.395152176 -51.8802277485 229.72265625 -78.328125 c 0,28,29
 160.64131674 -124.3828125 160.64131674 -124.3828125 59.9541015625 -124.3828125 c 0,30,31
 43.6737191051 -124.3828125 43.6737191051 -124.3828125 30.1357087587 -120.480998073 c 128,-1,32
 16.5976984123 -116.579183646 16.5976984123 -116.579183646 6.17171006451 -108.770482029 c 128,-1,33
 -4.25427828332 -100.961780412 -4.25427828332 -100.961780412 -10.0773344542 -88.1129865985 c 128,-1,34
 -15.900390625 -75.2641927846 -15.900390625 -75.2641927846 -15.900390625 -58.4619140625 c 0,35,36
 -15.900390625 -39.3503690801 -15.900390625 -39.3503690801 -5.966796875 -7.8916015625 c 0,37,38
 13.2973077013 53.1125536828 13.2973077013 53.1125536828 51.8271484375 78.7978515625 c 0,39,40
 119.552951395 123.950195312 119.552951395 123.950195312 222.499023438 123.950195312 c 0,41,42
 249.889200525 123.950195312 249.889200525 123.950195312 268.551757812 113.471403397 c 1,43,-1
 268.551757812 790.3828125 l 1,44,-1
 297.900390625 790.3828125 l 1,45,-1
 297.900390625 59.248046875 l 1,46,-1
 297.448743765 59.248046875 l 2,22,23
EndSplineSet
Validated: 1
EndChar

StartChar: G
Encoding: 71 71 61
Width: 487
Flags: W
VStem: 267.381 29.3027<103.086 396.146 511.733 587.292 700.969 788.356> 447.259 37.8682<58.7762 239.973 313.669 417.318>
LayerCount: 2
Fore
SplineSet
434.633789062 313.1953125 m 1,0,1
 440.947265625 332.128906461 440.947265625 332.128906461 440.947265625 355.571289062 c 0,2,3
 440.947265625 386.271480886 440.947265625 386.271480886 428.181810371 418.508669913 c 128,-1,4
 415.416355116 450.745858939 415.416355116 450.745858939 391.118482598 482.527737558 c 128,-1,5
 366.82061008 514.309616176 366.82061008 514.309616176 346.498704902 536.48224169 c 128,-1,6
 326.176799724 558.654867204 326.176799724 558.654867204 296.685546875 587.291992188 c 1,7,8
 296.685546875 550.023311599 296.685546875 550.023311599 311.60964774 510.498475033 c 128,-1,9
 326.533748605 470.973638467 326.533748605 470.973638467 343.46634103 444.988783878 c 128,-1,10
 360.398933455 419.003929288 360.398933455 419.003929288 390.72707938 376.831269223 c 128,-1,11
 421.055225306 334.658609157 421.055225306 334.658609157 434.633789062 313.1953125 c 1,0,1
296.685546875 779.340820312 m 1,12,13
 296.685546875 741.892873806 296.685546875 741.892873806 310.243417245 703.369659469 c 128,-1,14
 323.801287616 664.846445132 323.801287616 664.846445132 344.138093171 633.810150101 c 128,-1,15
 364.474898727 602.773855071 364.474898727 602.773855071 388.201171875 567.456419813 c 128,-1,16
 411.927445023 532.138984556 411.927445023 532.138984556 432.264250579 501.102612486 c 128,-1,17
 452.601056134 470.066240415 452.601056134 470.066240415 466.158926505 431.542854637 c 128,-1,18
 479.716796875 393.019468859 479.716796875 393.019468859 479.716796875 355.571289062 c 0,19,20
 479.716796875 314.357222785 479.716796875 314.357222785 458.979492188 269.916015625 c 1,21,22
 485.126953125 216.172127954 485.126953125 216.172127954 485.126953125 164.424804688 c 0,23,24
 485.126953125 83.9015232015 485.126953125 83.9015232015 447.258789062 -0.57421875 c 0,25,26
 440.495056375 -11.3935546875 440.495056375 -11.3935546875 430.126953125 -11.3935546875 c 0,27,28
 420.754974114 -11.3935546875 420.754974114 -11.3935546875 414.106429764 -4.37553562864 c 128,-1,29
 407.457885413 2.64248343021 407.457885413 2.64248343021 409.390625 12.9501953125 c 0,30,31
 447.258789062 88.689678592 447.258789062 88.689678592 447.258789062 164.424804688 c 0,32,33
 447.258789062 195.452022719 447.258789062 195.452022719 433.857945364 227.950338289 c 128,-1,34
 420.457101665 260.448653858 420.457101665 260.448653858 395.318263133 291.976144866 c 128,-1,35
 370.179424601 323.503635873 370.179424601 323.503635873 348.596470754 345.923910066 c 128,-1,36
 327.013516908 368.344184259 327.013516908 368.344184259 296.685546875 396.145507812 c 1,37,-1
 296.685546875 328.522460938 l 1,38,-1
 296.68359375 328.522460938 l 1,39,-1
 296.68359375 41.7568359375 l 1,40,-1
 296.639640604 41.7568359375 l 1,41,42
 296.612675798 -37.2320979923 296.612675798 -37.2320979923 203.771484375 -92.541015625 c 0,43,44
 148.129663566 -125 148.129663566 -125 98.28125 -125 c 0,45,46
 57.2893860883 -125 57.2893860883 -125 28.6446930441 -103.782340121 c 128,-1,47
 0 -82.5646802415 0 -82.5646802415 0 -42.951171875 c 0,48,49
 0 36.0658465747 0 36.0658465747 92.87109375 91.392578125 c 0,50,51
 148.512914559 123.8515625 148.512914559 123.8515625 198.361328125 123.8515625 c 0,52,53
 238.913500448 123.8515625 238.913500448 123.8515625 267.380859375 103.086344381 c 1,54,-1
 267.380859375 788.356445312 l 1,55,-1
 296.68359375 788.356445312 l 1,56,-1
 296.68359375 779.340820312 l 1,57,-1
 296.685546875 779.340820312 l 1,12,13
EndSplineSet
Validated: 1
EndChar

StartChar: E
Encoding: 69 69 62
Width: 320
VWidth: 0
Flags: W
VStem: 268.236 29.3477<103.812 790.032>
LayerCount: 2
Fore
SplineSet
199.131835938 124.501953125 m 0,0,1
 218.546404406 124.501953125 218.546404406 124.501953125 235.920591123 119.415567115 c 128,-1,2
 253.294777841 114.329181105 253.294777841 114.329181105 267.235002749 104.529440209 c 0,3,4
 267.739427888 104.17483792 267.739427888 104.17483792 268.236328125 103.812034504 c 2,5,-1
 268.236328125 790.032226562 l 1,6,-1
 297.583984375 790.032226562 l 1,7,-1
 297.583984375 42.28125 l 1,8,-1
 297.561515945 42.28125 l 1,9,10
 297.535124012 -36.8283716459 297.535124012 -36.8283716459 204.549804688 -92.224609375 c 0,11,12
 148.818777851 -124.733398438 148.818777851 -124.733398438 98.8955078125 -124.733398438 c 0,13,14
 57.8416756188 -124.733398438 57.8416756188 -124.733398438 29.1537479656 -103.483024915 c 128,-1,15
 0.4658203125 -82.2326513917 0.4658203125 -82.2326513917 0.4658203125 -42.5576171875 c 0,16,17
 0.4658203125 36.5811988092 0.4658203125 36.5811988092 93.4775390625 91.9931640625 c 0,18,19
 149.205695976 124.501953125 149.205695976 124.501953125 199.131835938 124.501953125 c 0,0,1
EndSplineSet
Validated: 1
EndChar

StartChar: C
Encoding: 67 67 63
Width: 503
Flags: W
HStem: -136 22<230.486 322.343> 114 22<179.254 272.922>
VStem: 0 146<-50.8373 56.8611> 355 146<-56.8611 50.8373>
LayerCount: 2
Fore
SplineSet
217 114 m 4,0,1
 182 114 182 114 164 89 c 132,-1,2
 146 64 146 64 146 26 c 4,3,4
 146 -33 146 -33 186 -73.5 c 132,-1,5
 226 -114 226 -114 285 -114 c 4,6,7
 320 -114 320 -114 337.5 -89 c 132,-1,8
 355 -64 355 -64 355 -26 c 4,9,10
 355 33 355 33 315.5 73.5 c 132,-1,11
 276 114 276 114 217 114 c 4,0,1
501 0 m 132,-1,13
 501 -57 501 -57 428 -96 c 4,14,15
 354 -136 354 -136 251 -136 c 4,16,17
 147 -136 147 -136 73 -96 c 4,18,19
 0 -57 0 -57 0 0 c 132,-1,20
 0 57 0 57 73 96 c 4,21,22
 147 136 147 136 251 136 c 4,23,24
 354 136 354 136 428 96 c 4,25,12
 501 57 501 57 501 0 c 132,-1,13
EndSplineSet
Validated: 1
EndChar

StartChar: F
Encoding: 70 70 64
Width: 488
Flags: W
VStem: 268.236 29.3477<103.812 555.245 694.905 790.032> 448.39 37.9268<178.512 380.05>
LayerCount: 2
Fore
SplineSet
199 125 m 0,0,1
 218 125 218 125 235.5 119.5 c 128,-1,2
 253 114 253 114 267 105 c 0,3,4
 268 105 268 105 268 104 c 2,5,-1
 268 790 l 1,6,-1
 298 790 l 1,7,-1
 298 781 l 2,8,9
 298 732 298 732 317 680.5 c 128,-1,10
 336 629 336 629 364 584.5 c 128,-1,11
 392 540 392 540 419.5 495.5 c 128,-1,12
 447 451 447 451 466.5 400 c 128,-1,13
 486 349 486 349 486 300 c 0,14,15
 486 209 486 209 448 113 c 0,16,17
 441 102 441 102 431 102 c 0,18,19
 422 102 422 102 415 109 c 0,20,21
 410 114 410 114 410.02671996 121.823849073 c 0,22,23
 410 124 410 124 410 126 c 0,24,25
 448 215 448 215 448 300 c 0,26,27
 448 323 448 323 442 346.5 c 128,-1,28
 436 370 436 370 423.5 393 c 128,-1,29
 411 416 411 416 398 436.5 c 128,-1,30
 385 457 385 457 365.5 480 c 128,-1,31
 346 503 346 503 332 518.5 c 128,-1,32
 318 534 318 534 298 555 c 1,33,-1
 298 42 l 1,34,-1
 298 42 l 1,35,36
 298 -37 298 -37 205 -92 c 0,37,38
 149 -125 149 -125 99 -125 c 0,39,40
 58 -125 58 -125 29 -103.5 c 128,-1,41
 0 -82 0 -82 0 -43 c 0,42,43
 0 36 0 36 93 92 c 0,44,45
 149 125 149 125 199 125 c 0,0,1
EndSplineSet
Validated: 5
EndChar

StartChar: M
Encoding: 77 77 65
Width: 297
VWidth: 0
Flags: W
HStem: 543.106 20G<237.772 257.363>
VStem: -0 29.3477<-125 -47.3338 69.1514 153.228 272.332 561.298> 222.597 37.9268<213.389 341.731> 234.336 37.9268<418.63 548.765>
LayerCount: 2
Fore
SplineSet
272.262695312 482.737304688 m 0,0,1
 272.262695312 428.71065675 272.262695312 428.71065675 237.951171875 377.986328125 c 1,2,3
 260.5234375 330.019310129 260.5234375 330.019310129 260.5234375 279.556640625 c 0,4,5
 260.5234375 234.608369141 260.5234375 234.608369141 236.712432617 192.275543091 c 128,-1,6
 212.901427734 149.942717041 212.901427734 149.942717041 178.918731445 115.868144409 c 128,-1,7
 144.936035156 81.7935717773 144.936035156 81.7935717773 110.953338867 47.7190430908 c 128,-1,8
 76.9706425781 13.6445144043 76.9706425781 13.6445144043 53.1596376953 -28.6881212158 c 128,-1,9
 29.3486328125 -71.0207568359 29.3486328125 -71.0207568359 29.3486328125 -115.96875 c 1,10,-1
 29.34765625 -115.96875 l 1,11,-1
 29.34765625 -125 l 1,12,-1
 -0 -125 l 1,13,-1
 -0 622.75 l 1,14,-1
 0.00293685776019 622.75 l 1,15,16
 0.0287543118358 701.862112143 0.0287543118358 701.862112143 93.013671875 757.256835938 c 0,17,18
 148.744698711 789.765625 148.744698711 789.765625 198.666015625 789.765625 c 0,19,20
 239.721446944 789.765625 239.721446944 789.765625 268.410528159 768.515248128 c 128,-1,21
 297.099609375 747.264871257 297.099609375 747.264871257 297.099609375 707.58984375 c 0,22,23
 297.099609375 628.45149813 297.099609375 628.45149813 204.084960938 573.0390625 c 0,24,25
 148.358478095 540.530273438 148.358478095 540.530273438 98.4326171875 540.530273438 c 0,26,27
 57.846903327 540.530273438 57.846903327 540.530273438 29.34765625 561.297566726 c 1,28,-1
 29.34765625 335.543945312 l 1,29,-1
 29.3486328125 335.543945312 l 1,30,-1
 29.3486328125 272.33203125 l 1,31,32
 234.3359375 374.82342159 234.3359375 374.82342159 234.3359375 482.737304688 c 0,33,34
 234.3359375 507.116210409 234.3359375 507.116210409 221.6953125 538.724609375 c 0,35,36
 219.768549927 549.049293285 219.768549927 549.049293285 226.424084754 556.077869299 c 128,-1,37
 233.079619581 563.106445312 233.079619581 563.106445312 242.463867188 563.106445312 c 0,38,39
 272.262695312 563.106445312 272.262695312 563.106445312 272.262695312 482.737304688 c 0,0,1
29.3486328125 69.1513671875 m 1,40,41
 66.4008148805 89.6909081322 66.4008148805 89.6909081322 95.5759068909 109.354654694 c 128,-1,42
 124.750998901 129.018401256 124.750998901 129.018401256 156.144826752 156.232976531 c 128,-1,43
 187.538654602 183.447551807 187.538654602 183.447551807 205.067667145 215.149912263 c 128,-1,44
 222.596679688 246.852272718 222.596679688 246.852272718 222.596679688 279.556640625 c 0,45,46
 222.596679688 311.870936641 222.596679688 311.870936641 209.956054688 342.768554688 c 1,47,48
 191.734052775 322.496651457 191.734052775 322.496651457 152.737108568 285.73231132 c 128,-1,49
 113.740164361 248.967971182 113.740164361 248.967971182 91.0833870375 225.323230672 c 128,-1,50
 68.4266097141 201.678490162 68.4266097141 201.678490162 48.8876212633 163.880016398 c 128,-1,51
 29.3486328125 126.081542633 29.3486328125 126.081542633 29.3486328125 87.2119140625 c 2,52,-1
 29.3486328125 69.1513671875 l 1,40,41
EndSplineSet
Validated: 1
EndChar

StartChar: J
Encoding: 74 74 66
Width: 314
VWidth: 0
Flags: W
HStem: 541.433 27.9941<37.9281 106.952> 760.867 28.8975<206.688 276.758>
VStem: 0.450195 28.8965<-125 551.911 577.873 637.164> 284.903 28.8975<694.076 752.161>
LayerCount: 2
Fore
SplineSet
0.4506673877 606.134765625 m 2,0,1
 0.4506673877 606.292286322 0.4506673877 606.292286322 0.4501953125 606.450195312 c 0,2,3
 0.4501953125 628.42247171 0.4501953125 628.42247171 9.48046875 657.020507812 c 0,4,5
 28.5054041884 717.261850647 28.5054041884 717.261850647 68.177734375 743.7109375 c 0,6,7
 137.257609056 789.764648438 137.257609056 789.764648438 237.946289062 789.764648438 c 0,8,9
 271.805230751 789.764648438 271.805230751 789.764648438 292.803006 773.278929872 c 128,-1,10
 313.80078125 756.793211307 313.80078125 756.793211307 313.80078125 723.84375 c 0,11,12
 313.80078125 704.73318158 313.80078125 704.73318158 303.8671875 673.274414062 c 0,13,14
 284.603028991 612.270088027 284.603028991 612.270088027 246.073242188 586.583984375 c 0,15,16
 178.345513234 541.432617188 178.345513234 541.432617188 75.4013671875 541.432617188 c 0,17,18
 48.0112172341 541.432617188 48.0112172341 541.432617188 29.3486328125 551.910890468 c 1,19,-1
 29.3486328125 -125 l 1,20,-1
 -0 -125 l 1,21,-1
 -0 606.134765625 l 1,22,-1
 0.4506673877 606.134765625 l 2,0,1
29.3486328125 606.042311767 m 2,23,24
 29.4969812122 590.584612624 29.4969812122 590.584612624 40.9130404343 580.074869792 c 128,-1,25
 52.479401181 569.426757812 52.479401181 569.426757812 67.2744140625 569.426757812 c 0,26,27
 74.4990234375 569.426757812 74.4990234375 569.426757812 78.1103515625 570.328125 c 0,28,29
 103.177565145 577.606239095 103.177565145 577.606239095 181.055664062 628.122070312 c 0,30,31
 259.143144232 678.773717223 259.143144232 678.773717223 274.970703125 698.55859375 c 0,32,33
 284.903320312 709.909060201 284.903320312 709.909060201 284.903320312 723.842773438 c 0,34,35
 284.903320312 739.570563099 284.903320312 739.570563099 273.33715628 750.218875299 c 128,-1,36
 261.770992247 760.8671875 261.770992247 760.8671875 246.9765625 760.8671875 c 0,37,38
 239.751953125 760.8671875 239.751953125 760.8671875 236.139648438 759.96484375 c 0,39,40
 209.444318102 752.21467668 209.444318102 752.21467668 132.291992188 702.171875 c 0,41,42
 54.2065419172 651.521544789 54.2065419172 651.521544789 38.3779296875 631.735351562 c 0,43,44
 29.3466796875 621.414919576 29.3466796875 621.414919576 29.3466796875 606.450195312 c 0,45,46
 29.3466796875 606.292224251 29.3466796875 606.292224251 29.3478466267 606.134765625 c 2,47,-1
 29.3486328125 606.134765625 l 1,48,-1
 29.3486328125 606.042311767 l 2,23,24
EndSplineSet
Validated: 1
EndChar

StartChar: K
Encoding: 75 75 67
Width: 298
VWidth: 0
Flags: W
VStem: -0 29.3486<-125 561.312>
LayerCount: 2
Fore
SplineSet
0.0224687598171 622.750976562 m 1,0,1
 0.0494343903691 701.859665546 0.0494343903691 701.859665546 93.0341796875 757.256835938 c 0,2,3
 148.766880681 789.765625 148.766880681 789.765625 198.688476562 789.765625 c 0,4,5
 224.973043512 789.765625 224.973043512 789.765625 246.723485487 781.186329784 c 128,-1,6
 268.473927463 772.607034568 268.473927463 772.607034568 282.796045763 753.494008758 c 128,-1,7
 297.118164062 734.380982947 297.118164062 734.380982947 297.118164062 707.58984375 c 0,8,9
 297.118164062 628.448887634 297.118164062 628.448887634 204.106445312 573.0390625 c 0,10,11
 148.378288399 540.530273438 148.378288399 540.530273438 98.453125 540.530273438 c 0,12,13
 57.8544981036 540.530273438 57.8544981036 540.530273438 29.3486328125 561.311835929 c 1,14,-1
 29.3486328125 -125 l 1,15,-1
 -0 -125 l 1,16,-1
 -0 622.750976562 l 1,17,-1
 0.0224687598171 622.750976562 l 1,0,1
EndSplineSet
Validated: 1
EndChar

StartChar: L
Encoding: 76 76 68
Width: 297
VWidth: 0
Flags: W
VStem: 0.000976562 29.3477<-125 -39.9979 109.788 561.295> 234.335 37.9277<273.074 446.77>
LayerCount: 2
Fore
SplineSet
198.666015625 789.765625 m 0,0,1
 224.950582575 789.765625 224.950582575 789.765625 246.70102455 781.186329784 c 128,-1,2
 268.451466525 772.607034568 268.451466525 772.607034568 282.773584825 753.494008758 c 128,-1,3
 297.095703125 734.380982947 297.095703125 734.380982947 297.095703125 707.58984375 c 0,4,5
 297.095703125 628.451027753 297.095703125 628.451027753 204.083984375 573.0390625 c 0,6,7
 148.355827462 540.530273438 148.355827462 540.530273438 98.4296875 540.530273438 c 0,8,9
 57.8474882905 540.530273438 57.8474882905 540.530273438 29.3486328125 561.295118433 c 1,10,-1
 29.3486328125 109.788085938 l 1,11,12
 68.7316574177 133.096300191 68.7316574177 133.096300191 99.7448677076 155.275257555 c 128,-1,13
 130.758077998 177.454214919 130.758077998 177.454214919 163.995000456 207.838984999 c 128,-1,14
 197.231922915 238.223755078 197.231922915 238.223755078 215.783441926 273.148029772 c 128,-1,15
 234.334960938 308.072304465 234.334960938 308.072304465 234.334960938 343.670898438 c 0,16,17
 234.334960938 415.334331243 234.334960938 415.334331243 197.311523438 490.864257812 c 0,18,19
 195.375968049 501.187452466 195.375968049 501.187452466 202.035208632 508.216773108 c 128,-1,20
 208.694449215 515.24609375 208.694449215 515.24609375 218.081054688 515.24609375 c 0,21,22
 229.932769784 515.24609375 229.932769784 515.24609375 236.141601562 505.3125 c 0,23,24
 272.262695312 424.399812469 272.262695312 424.399812469 272.262695312 343.670898438 c 0,25,26
 272.262695312 300.686979167 272.262695312 300.686979167 254.269061053 258.452184606 c 128,-1,27
 236.275426794 216.217390046 236.275426794 216.217390046 209.284975405 183.567997685 c 128,-1,28
 182.294524016 150.918605324 182.294524016 150.918605324 150.805664062 113.851074219 c 128,-1,29
 119.316804109 76.7835431134 119.316804109 76.7835431134 92.3263527199 44.1341507523 c 128,-1,30
 65.335901331 11.4847583912 65.335901331 11.4847583912 47.3422670718 -30.750036169 c 128,-1,31
 29.3486328125 -72.9848307292 29.3486328125 -72.9848307292 29.3486328125 -115.96875 c 2,32,-1
 29.3486328125 -125 l 1,33,-1
 0.0009765625 -125 l 1,34,-1
 0.0009765625 622.242748684 l 2,35,36
 0.0009765625 622.473599817 0.0009765625 622.473599817 0 622.705078125 c 0,37,38
 0 701.844759279 0 701.844759279 93.01171875 757.255859375 c 0,39,40
 148.741549735 789.765625 148.741549735 789.765625 198.666015625 789.765625 c 0,0,1
EndSplineSet
Validated: 1
EndChar

StartChar: uniE109
Encoding: 57609 57609 69
Width: 238
Flags: W
LayerCount: 2
Fore
SplineSet
-23 115 m 0,0,1
 -23 155 -23 155 13 155 c 0,2,3
 67 155 67 155 143 118 c 1,4,-1
 6 282 l 2,5,6
 -4 293 -4 293 -4 307 c 0,7,8
 -4 316 -4 316 1 326 c 128,-1,9
 6 336 6 336 16 346.5 c 128,-1,10
 26 357 26 357 35 364.5 c 128,-1,11
 44 372 44 372 59 384 c 128,-1,12
 74 396 74 396 82 403 c 0,13,14
 121 436 121 436 121 488 c 0,15,16
 121 525 121 525 97 555 c 2,17,-1
 58 601 l 2,18,19
 55 605.5 55 605.5 55 610 c 0,20,21
 55 615 55 615 59.5 619.5 c 128,-1,22
 64 624 64 624 69 624 c 0,23,24
 75 624 75 624 79 619 c 2,25,-1
 231 437 l 2,26,27
 241 426 241 426 241 412 c 0,28,29
 241 403 241 403 236 393 c 128,-1,30
 231 383 231 383 221 372.5 c 128,-1,31
 211 362 211 362 202 354.5 c 128,-1,32
 193 347 193 347 178 335 c 128,-1,33
 163 323 163 323 155 316 c 0,34,35
 116 283 116 283 116 231 c 0,36,37
 116 194 116 194 140 164 c 2,38,-1
 227 60 l 2,39,40
 230 56 230 56 230 52 c 0,41,42
 230 47 230 47 225.5 42.5 c 128,-1,43
 221 38 221 38 216 38 c 0,44,45
 210 38 210 38 206 43 c 0,46,47
 191 60 191 60 161 73 c 128,-1,48
 131 86 131 86 104 86 c 0,49,50
 52 86 52 86 52 16 c 0,51,52
 52 -45 52 -45 80 -80 c 0,53,54
 83 -84 83 -84 81 -87.5 c 128,-1,55
 79 -91 79 -91 75 -91 c 128,-1,56
 71 -91 71 -91 70 -89 c 0,57,58
 34 -46 34 -46 5.5 15 c 128,-1,59
 -23 76 -23 76 -23 115 c 0,0,1
EndSplineSet
Validated: 1
EndChar

StartChar: uniE107
Encoding: 57607 57607 70
Width: 695
Flags: W
HStem: 141 178<160 535> 275 44<10.1882 160 535 684.812>
LayerCount: 2
Fore
SplineSet
527 141 m 2,0,-1
 168 141 l 2,1,2
 160 141 160 141 160 149 c 2,3,-1
 160 275 l 1,4,-1
 25 275 l 2,5,6
 16 275 16 275 10 281.5 c 128,-1,7
 4 288 4 288 4 297 c 128,-1,8
 4 306 4 306 10 312.5 c 128,-1,9
 16 319 16 319 25 319 c 2,10,-1
 670 319 l 2,11,12
 679 319 679 319 685 312.5 c 128,-1,13
 691 306 691 306 691 297 c 128,-1,14
 691 288 691 288 685 281.5 c 128,-1,15
 679 275 679 275 670 275 c 2,16,-1
 535 275 l 1,17,-1
 535 149 l 2,18,19
 535 141 535 141 527 141 c 2,0,-1
EndSplineSet
Validated: 1
EndChar

StartChar: r
Encoding: 114 114 71
Width: 507
VWidth: 0
Flags: MW
LayerCount: 2
Fore
SplineSet
253 675 m 0,0,1
 305 675 305 675 341.5 638.5 c 128,-1,2
 378 602 378 602 378 550 c 2,3,-1
 378 300 l 2,4,5
 378 248 378 248 341.5 211.5 c 128,-1,6
 305 175 305 175 253 175 c 128,-1,7
 201 175 201 175 164.5 211.5 c 128,-1,8
 128 248 128 248 128 300 c 2,9,-1
 128 300.391601562 l 1,10,-1
 265.20703125 300.391601562 l 1,11,-1
 265.20703125 347.999023438 l 1,12,-1
 128 347.999023438 l 1,13,-1
 128 406.615234375 l 1,14,-1
 265.20703125 406.615234375 l 1,15,-1
 265.20703125 454.22265625 l 1,16,-1
 128 454.22265625 l 1,17,-1
 128 509.716796875 l 1,18,-1
 265.20703125 509.716796875 l 1,19,-1
 265.20703125 557.446289062 l 1,20,-1
 128.732421875 557.446289062 l 1,21,22
 132 607 132 607 167.422851562 640.958007812 c 128,-1,23
 203 675 203 675 253 675 c 0,0,1
128 351.391601562 m 1,24,-1
 128 351.391601562 l 1,24,-1
128.732421875 557.446289062 m 1,25,-1
 128.732421875 557.446289062 l 1,25,-1
3 362.5 m 1,26,-1
 65.5 362.5 l 1,27,-1
 65.5 300 l 2,28,29
 65.5 222.890625 65.5 222.890625 120.6953125 167.6953125 c 128,-1,30
 175.890625 112.5 175.890625 112.5 253 112.5 c 128,-1,31
 330.109375 112.5 330.109375 112.5 385.3046875 167.6953125 c 128,-1,32
 440.5 222.890625 440.5 222.890625 440.5 300 c 2,33,-1
 440.5 362.5 l 5,34,-1
 503 362.5 l 5,35,-1
 503 300 l 2,36,37
 503 214.53515625 503 214.53515625 449.931640625 147.48828125 c 128,-1,38
 396.86328125 80.4423828125 396.86328125 80.4423828125 315.5 59.033203125 c 1,39,-1
 315.5 -12.5 l 1,40,-1
 378 -12.5 l 1,41,-1
 378 -75 l 1,42,-1
 128 -75 l 1,43,-1
 128 -12.5 l 1,44,-1
 190.5 -12.5 l 1,45,-1
 190.5 59.033203125 l 1,46,47
 109.125976562 80.3974609375 109.125976562 80.3974609375 56.0634765625 147.424804688 c 128,-1,48
 3 214.452148438 3 214.452148438 3 300 c 2,49,-1
 3 362.5 l 1,26,-1
EndSplineSet
Validated: 1
EndChar

